<svg width="256" height="256" viewBox="0 0 256 256" fill="none" xmlns="http://www.w3.org/2000/svg">
<path d="M16 79.28V176.68C16 186.16 21.08 194.88 29.28 199.6L114.92 248.52C123.04 253.16 132.96 253.16 141.08 248.52L226.72 199.6C234.92 194.92 240 186.16 240 176.68V79.28C240 69.8 234.92 61.08 226.72 56.4L141.08 7.48C132.96 2.84 123.04 2.84 114.92 7.48L29.28 56.4C21.08 61.08 16 69.84 16 79.28Z" fill="#1D1D1B"/>
<path fill-rule="evenodd" clip-rule="evenodd" d="M204 180L128 48L52 180H204ZM186.46 172H69.5376L111.058 144.999C115.399 149.325 121.387 152 128 152C134.613 152 140.601 149.326 144.942 144.999L186.46 172ZM187.987 168.222L130 67.5069V104.082C142.319 105.098 152 115.419 152 128C152 133.191 150.352 137.998 147.55 141.924L187.987 168.222ZM104 128C104 133.191 105.648 137.997 108.45 141.924L68.014 168.219L126 67.5069V104.082C113.681 105.098 104 115.419 104 128ZM128 144C136.837 144 144 136.837 144 128C144 119.163 136.837 112 128 112C119.163 112 112 119.163 112 128C112 136.837 119.163 144 128 144Z" fill="white"/>
</svg>
