<svg width="83" height="22" viewBox="0 0 83 22" fill="none" xmlns="http://www.w3.org/2000/svg">
<path d="M0.287598 18.4544V17.9044H2.76426V18.2244C2.76426 19.0544 3.47118 19.6044 4.89984 19.6044H6.46691C7.49021 19.6044 8.55799 19.2144 8.55799 18.1344C8.55799 17.1894 8.03399 16.7094 6.94149 16.7094H3.2339C1.5729 16.7094 0.688016 15.6994 0.688016 14.5244C0.688016 13.7894 1.05383 13.1444 1.5284 12.5894L1.93871 12.1044C1.25651 11.3694 0.8907 10.3794 0.8907 9.34443C0.8907 7.08943 2.5517 5.15942 5.41396 5.15942C6.02694 5.15942 6.57567 5.24942 7.07496 5.41442H11.8503V7.68942H9.53185C9.82846 8.14942 9.98665 8.72443 9.98665 9.34443C9.98665 11.5744 8.28116 13.4844 5.41396 13.4844C4.73176 13.4844 4.13855 13.3694 3.61949 13.1644L3.4168 13.3944C3.2339 13.5994 3.10042 13.8094 3.10042 14.0394C3.10042 14.3594 3.28333 14.6144 3.80733 14.6144H7.421C9.62578 14.6144 11.0594 15.8344 11.0594 18.0644C11.0594 20.1794 9.71971 21.8344 6.14559 21.8344H4.75648C1.40481 21.8344 0.287598 20.1994 0.287598 18.4544ZM7.47538 9.31943C7.47538 7.93943 6.45208 7.33942 5.42879 7.33942C4.43021 7.33942 3.3822 7.93943 3.3822 9.31943C3.3822 10.6994 4.43021 11.2994 5.42879 11.2994C6.45208 11.2994 7.47538 10.6994 7.47538 9.31943Z" fill="#1D1D1B"/>
<path d="M13.521 5.40939H16.0471V6.83439H16.4129C16.7985 5.91439 17.5944 5.24939 18.9588 5.24939H20.4616V7.77939H18.7808C16.8924 7.77939 16.052 8.95439 16.052 10.9094V16.4994H13.5259V5.40939H13.521Z" fill="#1D1D1B"/>
<path d="M22.1177 0.534424H24.8465V3.26942H22.1177V0.534424ZM22.2314 5.40942H24.7575V16.4944H22.2314V5.40942Z" fill="#1D1D1B"/>
<path d="M27.2344 5.4094H29.7605V6.7194H30.1263C30.5811 5.9394 31.5797 5.1344 33.0825 5.1344C34.3332 5.1344 35.4702 5.6844 36.0832 6.7894H36.449C36.9285 5.9394 38.1298 5.1344 39.8155 5.1344C41.8373 5.1344 43.612 6.4444 43.612 9.4144V16.4994H41.0859V9.9194C41.0859 8.3994 40.2653 7.6644 39.0641 7.6644C37.5415 7.6644 36.6962 8.8594 36.6962 10.5394V16.4994H34.17V9.9194C34.17 8.3994 33.3494 7.6644 32.1482 7.6644C30.6009 7.6644 29.7605 8.8594 29.7605 10.5394V16.4994H27.2344V5.4094Z" fill="#1D1D1B"/>
<path d="M45.6094 10.9544C45.6094 7.7544 47.8142 5.1344 51.2746 5.1344C54.7548 5.1344 56.9595 7.7544 56.9595 10.9544C56.9595 14.1494 54.7548 16.7744 51.2746 16.7744C47.8142 16.7744 45.6094 14.1544 45.6094 10.9544ZM54.4087 10.9544C54.4087 8.7894 52.9553 7.5244 51.2696 7.5244C49.5839 7.5244 48.1305 8.7894 48.1305 10.9544C48.1305 13.1144 49.5839 14.3794 51.2696 14.3794C52.9553 14.3844 54.4087 13.1144 54.4087 10.9544Z" fill="#1D1D1B"/>
<path d="M59.0259 0.534424H61.7547V3.26942H59.0259V0.534424ZM59.1396 5.40942H61.6657V16.4944H59.1396V5.40942Z" fill="#1D1D1B"/>
<path d="M64.1421 5.40939H66.6682V6.83439H67.034C67.4196 5.91439 68.2155 5.24939 69.5799 5.24939H71.0827V7.77939H69.4019C67.5135 7.77939 66.6731 8.95439 66.6731 10.9094V16.4994H64.147V5.40939H64.1421Z" fill="#1D1D1B"/>
<path d="M72.1899 10.9794C72.1899 7.6694 74.3305 5.1344 77.692 5.1344C80.8064 5.1344 82.9469 7.2944 82.9469 10.3344V11.6444H76.0112V9.7594H80.49C80.4208 8.4244 79.442 7.2994 77.7167 7.2994C75.942 7.2994 74.6468 8.5644 74.6468 10.8394C74.6221 13.2794 75.9223 14.4744 77.697 14.4744C79.0613 14.4744 79.882 13.8094 80.2231 12.9094H82.7492C82.156 15.1644 80.3615 16.7744 77.7217 16.7744C74.3749 16.7744 72.1899 14.3144 72.1899 10.9794Z" fill="#1D1D1B"/>
</svg>
