<svg width="418" height="124" viewBox="0 0 418 124" fill="none" xmlns="http://www.w3.org/2000/svg">
<path d="M142 81.7333V79.9H150.256V80.9666C150.256 83.7333 152.612 85.5666 157.374 85.5666H162.598C166.009 85.5666 169.568 84.2666 169.568 80.6666C169.568 77.5166 167.821 75.9166 164.18 75.9166H151.821C146.284 75.9166 143.335 72.55 143.335 68.6333C143.335 66.1833 144.554 64.0333 146.136 62.1833L147.504 60.5666C145.23 58.1166 144.01 54.8166 144.01 51.3666C144.01 43.85 149.547 37.4166 159.088 37.4166C161.131 37.4166 162.96 37.7166 164.625 38.2666H180.542V45.85H172.814C173.803 47.3833 174.33 49.3 174.33 51.3666C174.33 58.8 168.645 65.1666 159.088 65.1666C156.814 65.1666 154.837 64.7833 153.106 64.1L152.431 64.8666C151.821 65.55 151.376 66.25 151.376 67.0166C151.376 68.0833 151.986 68.9333 153.732 68.9333H165.778C173.127 68.9333 177.906 73 177.906 80.4333C177.906 87.4833 173.44 93 161.527 93H156.896C145.724 93 142 87.55 142 81.7333ZM165.959 51.2833C165.959 46.6833 162.548 44.6833 159.137 44.6833C155.809 44.6833 152.315 46.6833 152.315 51.2833C152.315 55.8833 155.809 57.8833 159.137 57.8833C162.548 57.8833 165.959 55.8833 165.959 51.2833Z" fill="#1D1D1B"/>
<path d="M186.111 38.2499H194.532V42.9999H195.751C197.036 39.9332 199.689 37.7166 204.237 37.7166H209.247V46.1499H203.644C197.349 46.1499 194.548 50.0666 194.548 56.5832V75.2166H186.128V38.2499H186.111Z" fill="#1D1D1B"/>
<path d="M214.767 22H223.863V31.1167H214.767V22ZM215.146 38.25H223.566V75.2H215.146V38.25Z" fill="#1D1D1B"/>
<path d="M231.823 38.2499H240.243V42.6166H241.462C242.978 40.0166 246.307 37.3333 251.316 37.3333C255.485 37.3333 259.275 39.1666 261.319 42.8499H262.538C264.136 40.0166 268.141 37.3333 273.76 37.3333C280.499 37.3333 286.415 41.6999 286.415 51.5999V75.2166H277.995V53.2833C277.995 48.2166 275.259 45.7666 271.255 45.7666C266.18 45.7666 263.362 49.7499 263.362 55.3499V75.2166H254.942V53.2833C254.942 48.2166 252.206 45.7666 248.202 45.7666C243.044 45.7666 240.243 49.7499 240.243 55.3499V75.2166H231.823V38.2499Z" fill="#1D1D1B"/>
<path d="M293.073 56.7332C293.073 46.0666 300.422 37.3333 311.957 37.3333C323.557 37.3333 330.907 46.0666 330.907 56.7332C330.907 67.3832 323.557 76.1333 311.957 76.1333C300.422 76.1333 293.073 67.3999 293.073 56.7332ZM322.404 56.7332C322.404 49.5166 317.559 45.2999 311.94 45.2999C306.321 45.2999 301.477 49.5166 301.477 56.7332C301.477 63.9332 306.321 68.1499 311.94 68.1499C317.559 68.1666 322.404 63.9332 322.404 56.7332Z" fill="#1D1D1B"/>
<path d="M337.794 22H346.89V31.1167H337.794V22ZM338.173 38.25H346.594V75.2H338.173V38.25Z" fill="#1D1D1B"/>
<path d="M354.848 38.2499H363.269V42.9999H364.488C365.773 39.9332 368.426 37.7166 372.974 37.7166H377.984V46.1499H372.381C366.086 46.1499 363.285 50.0666 363.285 56.5832V75.2166H354.865V38.2499H354.848Z" fill="#1D1D1B"/>
<path d="M381.674 56.8166C381.674 45.7833 388.809 37.3333 400.015 37.3333C410.396 37.3333 417.531 44.5333 417.531 54.6666V59.0333H394.412V52.7499H409.341C409.11 48.2999 405.848 44.5499 400.097 44.5499C394.181 44.5499 389.864 48.7666 389.864 56.3499C389.782 64.4832 394.115 68.4666 400.031 68.4666C404.579 68.4666 407.314 66.2499 408.451 63.2499H416.872C414.894 70.7666 408.913 76.1333 400.113 76.1333C388.958 76.1333 381.674 67.9333 381.674 56.8166Z" fill="#1D1D1B"/>
<path d="M0 37.64V86.34C0 91.08 2.54 95.44 6.64 97.8L49.46 122.26C53.52 124.58 58.48 124.58 62.54 122.26L105.36 97.8C109.46 95.46 112 91.08 112 86.34V37.64C112 32.9 109.46 28.54 105.36 26.2L62.54 1.74C58.48 -0.58 53.52 -0.58 49.46 1.74L6.64 26.2C2.54 28.54 0 32.92 0 37.64Z" fill="#1D1D1B"/>
<path fill-rule="evenodd" clip-rule="evenodd" d="M94 88L56 22L18 88H94ZM85.2302 84H26.7689L47.529 70.4995C49.6994 72.6627 52.6935 74 56 74C59.3064 74 62.3005 72.6628 64.4709 70.4996L85.2302 84ZM85.9936 82.1107L57 31.7534V50.0411C63.1595 50.5492 68 55.7093 68 62C68 64.5956 67.1759 66.9988 65.7751 68.9621L85.9936 82.1107ZM44 62C44 64.5956 44.824 66.9986 46.2248 68.9619L26.007 82.1098L55 31.7534V50.0411C48.8405 50.5492 44 55.7093 44 62ZM56 70C60.4183 70 64 66.4183 64 62C64 57.5817 60.4183 54 56 54C51.5817 54 48 57.5817 48 62C48 66.4183 51.5817 70 56 70Z" fill="white"/>
</svg>
