<?xml version="1.0" standalone="no"?>
<!DOCTYPE svg PUBLIC "-//W3C//DTD SVG 1.1//EN" "http://www.w3.org/Graphics/SVG/1.1/DTD/svg11.dtd">
<svg xmlns="http://www.w3.org/2000/svg">
<defs >
<font id="QwitcherGrypen" horiz-adv-x="411" ><font-face
    font-family="Qwitcher Grypen"
    units-per-em="1000"
    panose-1="0 0 0 0 0 0 0 0 0 0"
    ascent="800"
    descent="-300"
    alphabetic="0" />
<glyph unicode=" " glyph-name="space" horiz-adv-x="182" />
<glyph unicode="!" glyph-name="exclam" horiz-adv-x="376" d="M56 81Q43 86 40 92T38 114Q43 145 60 182T98 257T137 323Q139 327 139 329V332Q139 342 146 356T163 385T178 405Q183 414 188 417T201 427Q203 427 207 427T215 428Q231 428 249 425T266 412Q266
411 261 404T247 389L233 374Q230 370 228 368T224 364Q207 341 184 309T137 242T95 172T71 109Q86 114 92 120T109 137L113 138Q118 139 116 133L114 129Q111 123 103 112T90 96Q82 86 72 83Q68 82 65 81T56 81ZM45 -22Q35 -22 22 -20T6 -3Q6 -1 13 7T29 23T40
33Q43 35 54 44T70 48Q72 44 72 33V19Q72 18 69 16Q68 15 65 14T61 11H62V10Q64 9 66 7T66 1Q62 -6 57 -14T45 -22Z" />
<glyph unicode="&quot;" glyph-name="quotedbl" horiz-adv-x="213" d="M132 286Q128 286 127 289T126 293V295Q126 302 129 307T137 318L142 323Q148 331 148 337Q148 342 145 346T142 354Q142 365 151 372T170 380Q184 380 184 366V359Q184 354 183 348T177 338Q173
335 166 325T155 310Q148 300 142 293T132 286ZM66 286Q62 286 61 289T60 293V295Q60 302 63 308T71 318L75 323Q77 326 79 329T82 337Q81 342 79 346T76 354Q76 365 85 372T104 380Q112 380 114 376T118 366V359Q118 354 117 348T111 338Q107 335 100 325T89 310Q82
300 75 293T66 286Z" />
<glyph unicode="#" glyph-name="numbersign" horiz-adv-x="609" d="M110 24Q102 24 100 32T98 44Q98 57 104 76T117 115T129 146H50Q45 146 28 147T-6 153T-23 166Q-24 175 -7 179T17 183H143Q152 213 161 242T179 301Q160 301 142 301T105 300Q99 300 81 301T48
307T31 321Q31 327 38 330T56 336T70 338Q100 338 130 338T190 337Q197 360 204 382T218 427Q219 431 225 445T236 460Q244 460 245 452T248 438Q250 410 245 386T231 336Q263 336 294 336T357 335H373Q375 342 382 362T397 404T414 443T427 459Q433 459 435 452T439
440Q441 413 434 387T419 337Q451 337 483 338T547 340Q552 340 562 339T574 331Q574 326 562 321T533 312T500 306T479 303H409L370 185H478Q480 185 486 185T499 184Q507 183 512 181T519 175Q519 170 507 166T478 157T446 151T426 149L358 148Q355 139 350 119T336
77T319 40T299 24Q292 24 289 30T286 41Q285 53 290 73T303 115T315 148H168Q166 139 160 119T147 77T130 40T110 24ZM180 184H326Q335 214 343 243T361 302H219L180 184Z" />
<glyph unicode="$" glyph-name="dollar" horiz-adv-x="376" d="M42 -89Q38 -89 36 -81V-80Q38 -75 38 -63T39 -47Q41 -27 44 -18L43 -19V-17L44 -18Q42 -16 43 -12L44 -9V-6Q44 -1 46 8T50 22Q43 24 37 24T23 25Q16 27 8 30T-12 47Q-2 47 0 46L11 44Q17 43 24
42T40 40Q42 40 48 40T55 41Q57 49 60 59T67 79Q71 90 74 99T82 116L78 120H84L85 121Q86 127 92 142T102 164L100 165Q91 165 73 174T39 196T17 215Q13 220 6 229T-2 246Q-3 266 11 282T45 310T79 331H81Q83 333 86 333Q94 336 106 338T123 345V347Q132 349 145
352T167 355Q176 359 187 359Q193 359 199 359T211 358Q214 361 219 377T225 401Q222 403 221 403T217 405Q217 413 228 427T247 445L250 446Q254 448 256 450Q262 447 278 443T295 429Q296 424 284 411T267 392Q266 390 266 387T263 382Q260 375 252 370T242 357Q256
353 272 339T288 311Q288 299 277 293T258 279Q258 278 256 276L253 270Q248 262 244 262Q240 262 238 263L237 266V268Q237 274 241 277T247 286Q252 298 252 312Q252 318 247 325T233 333Q230 333 228 331Q227 331 221 322T208 303T201 292V288H197Q196 284 193
281T190 273L188 272V271Q190 271 190 271T188 271V271Q188 271 188 272V272V272V272L187 271H188Q188 271 187 269H186V265L183 262L184 258L181 256H179Q179 251 180 249Q175 249 174 248L173 244L170 243Q169 239 166 234T162 227Q158 223 156 219T149 212Q151
204 145 203L146 199L143 197Q143 197 143 197V197V196Q140 196 140 192T138 184Q136 183 133 183Q133 182 133 182T134 181Q134 176 138 175Q167 168 197 157T250 124Q256 119 260 113T265 97Q265 78 248 70T217 56Q210 54 205 51T192 45Q186 44 180 42T168 38L139
32Q126 29 109 28T78 23Q74 21 75 16H70L71 11H69Q65 7 65 -2H64Q63 -9 60 -27T56 -47Q55 -52 53 -60T51 -74Q49 -85 45 -88Q44 -89 42 -89ZM110 183Q118 200 126 215T143 246Q145 251 151 258T157 272L161 275Q163 281 167 287Q174 298 181 309T195 332H190Q189
332 178 330T164 326Q163 326 163 326T161 325L159 323Q156 321 154 321T148 318Q144 317 142 316T134 313Q129 308 121 305T106 299Q99 296 89 287T70 271Q67 268 63 266Q61 262 56 257L52 254Q42 244 43 227Q44 219 57 209T86 192T110 183ZM144 198Q144 197 145
197V197Q145 197 145 197Q144 197 144 197T143 197L144 198ZM76 43Q80 43 83 45Q85 45 87 45T89 47L92 46Q97 47 98 48V50Q100 53 105 55H106L107 57L110 55L113 57H117Q121 57 123 56L125 55L135 58H138L145 61L153 64L158 66V68H164Q171 68 178 75Q183 80 189
82T203 87Q207 89 209 92T210 103L219 112Q221 116 221 118Q221 122 217 126Q207 134 202 135T185 140Q170 144 153 149T122 156Q124 151 119 149Q119 148 119 148T120 145Q119 143 115 141Q117 139 117 137L115 133L111 134Q114 125 107 124V121Q101 115 101 104T92
88Q90 79 86 73Q85 64 83 59T77 45L76 43Z" />
<glyph unicode="%" glyph-name="percent" horiz-adv-x="355" d="M46 40Q35 40 32 50T29 62Q29 81 46 116T92 193T150 276T208 352T250 405Q227 395 194 386T141 376L140 378Q141 375 141 370Q141 356 129 339T99 307T65 281T42 271H34Q18 271 10 284T1 308Q1 322
12 344T41 388T77 425T111 440Q140 440 142 412Q142 408 142 404T141 396H143Q161 396 186 402T235 416T276 432Q277 433 280 433Q283 433 295 428T318 417T329 407Q329 403 328 401T324 396Q307 375 264 331Q243 309 219 283T171 231Q139 196 112 163T68 103T51
64Q51 56 55 55T59 50Q59 47 54 44T46 40ZM42 291Q55 291 74 307T108 344T123 376Q117 380 112 386T101 397Q89 396 73 378T44 339T31 304Q31 291 42 291ZM155 55Q140 55 132 68T123 92Q123 107 134 129T162 172T199 209T233 224Q261 224 263 196Q263 195 263 194T264
190Q264 188 264 186T262 180H263Q265 179 268 179T272 174Q272 168 267 165Q265 163 263 163L261 162Q262 148 252 130T225 95T192 66T163 55H155ZM164 74Q173 74 186 84T213 108T235 137T244 160Q232 169 223 181Q211 180 194 162T165 123T152 88Q152 83 154
79T164 74Z" />
<glyph unicode="&amp;" glyph-name="ampersand" horiz-adv-x="525" d="M413 -61Q384 -61 364 -45T331 -7Q327 0 323 6T316 19Q315 21 313 28T309 36Q305 36 300 30T290 22Q279 19 269 17T247 8Q243 6 230 4T204 -1T185 -3Q167 -3 146 8T110 37T93 72V81Q94 83
94 89T95 97Q97 107 99 113Q95 112 92 111T86 108L87 106Q79 105 73 101T58 93Q51 89 41 86T20 82Q4 82 -1 96T-6 123Q-6 135 9 149T37 166Q47 175 69 185T104 198Q109 200 114 200T124 201L126 199V201Q127 200 127 200T128 195H126Q117 191 108 188T89 180Q70
172 48 157T13 126L12 125Q10 121 10 121Q10 119 13 119T19 119Q26 119 43 124T80 138T119 154L123 162L125 163Q126 167 129 171T134 177Q134 182 137 183Q138 185 142 188T149 192V193Q149 201 156 203V205Q158 207 159 208T161 210L166 214Q170 218 171 222L173
227Q179 229 181 229L180 233H184L181 236H186Q187 238 191 242Q193 244 193 244L192 248H195V249H199L198 251L204 259Q207 259 207 261L211 263Q213 265 215 266Q219 271 233 277T248 288Q252 293 255 295T263 300Q266 302 269 305T274 312Q276 317 276 320T277
329Q278 343 279 362T288 397T310 419L326 421H328Q330 422 330 422T331 422Q350 422 351 405V396Q351 391 351 385T350 374Q357 381 357 391Q357 392 355 396V399Q354 400 353 406Q356 405 358 405H360Q365 405 369 402T376 398Q378 398 380 399T384 398Q392 395
398 389T406 378Q406 372 398 365T377 351Q371 348 359 341T342 329Q341 328 339 320T336 309Q334 301 331 295T325 289Q325 289 324 290T323 292Q322 295 322 298T323 305V306L317 307Q314 304 310 301T306 293Q306 289 307 286T308 279V277Q307 276 307 275V274Q309
272 309 269L306 267Q308 265 310 259L308 256H309L307 254Q305 252 305 250Q305 247 306 238T308 221Q334 229 358 229H367Q386 229 409 218T441 186Q451 174 451 162Q451 157 448 151Q447 150 442 147T430 139Q429 138 429 133Q421 133 421 126Q416 122 410 118T403
108L402 107Q402 107 402 106V106H401H402L401 107L400 106H401Q401 106 401 105L388 96Q385 89 377 83T359 75Q357 72 354 70Q351 68 350 67T348 60Q342 62 341 62Q349 38 359 16T383 -29Q387 -36 400 -42T421 -48H433Q454 -38 475 -18T504 24Q506 29 509 35T518
43Q517 35 516 28T512 13Q511 9 511 6T510 -2Q510 -5 510 -8T512 -15Q508 -19 506 -23T500 -31Q494 -40 478 -46T443 -57T413 -61ZM300 327Q305 332 314 341T327 357Q330 365 330 374Q330 379 330 383T329 395Q329 401 324 406L319 401Q314 386 306 365T300 327ZM322
311V312L321 311H322ZM186 181Q203 186 220 192T253 204Q258 206 261 207T265 209L272 211Q271 225 271 237T270 263V264Q266 260 257 252T237 235Q227 225 219 217T210 205Q207 204 199 196T186 181ZM336 95Q340 104 344 104L347 102V105L348 106Q350 113 355
111Q357 116 361 119Q365 125 368 128T377 135V138L380 140Q382 148 387 151V154H389V157Q393 161 393 163T394 170L395 172L400 174V175Q400 182 403 189T405 201Q395 204 385 204T366 205Q360 205 356 205T346 204Q337 203 328 202T311 195Q312 191 313 187T315
178L314 175L316 171Q314 167 314 168L317 169L316 164Q316 161 317 157T322 152L317 145Q321 139 325 121T331 96L332 97L336 95ZM173 21Q178 21 183 22T194 23Q200 25 206 27T219 29Q224 33 229 33T240 32L247 37H250Q251 37 251 37T253 38L258 41Q262 43 262
46L271 49L274 52Q275 52 278 56T282 64L286 61Q288 61 288 59Q290 60 291 60L294 61L295 65L299 64Q295 78 292 91T286 119Q285 130 283 141T278 162Q274 164 274 168T274 175L273 178Q274 180 274 187Q256 180 232 175Q223 173 215 170T197 165Q193 161 184 154T173
146Q168 143 157 138Q132 105 132 64Q132 39 139 30T173 21Z" />
<glyph unicode="&apos;" glyph-name="quotesingle" horiz-adv-x="143" d="M66 286Q62 286 61 289T60 293V295Q60 302 63 308T71 318L75 323Q77 326 79 329T82 337Q81 342 79 346T76 354Q76 365 85 372T104 380Q112 380 114 376T118 366V359Q118 354 117 348T111
338Q107 335 100 325T89 310Q82 300 75 293T66 286Z" />
<glyph unicode="(" glyph-name="parenleft" horiz-adv-x="299" d="M97 -3Q95 -2 89 -1T81 2H79Q75 2 73 5T67 10Q47 25 37 42T27 86Q27 94 28 101T30 116V129H32Q37 134 42 151T51 176Q63 208 82 235T123 288L124 289Q137 304 159 323T207 360T259 389T306 401Q334
401 356 382Q359 381 362 374T366 362Q366 354 356 357Q347 372 327 372Q314 372 301 367T276 355Q270 352 266 349T256 343Q250 339 244 337Q240 333 232 326T218 317Q214 310 207 305T195 294Q166 265 143 232H142Q140 230 136 222L126 205Q122 198 118 191T111
180Q111 173 105 161T93 141L94 138L92 135L91 129L88 122L89 119Q86 116 85 111T82 102V98Q82 94 82 92T80 85Q79 76 79 68T78 50Q78 45 78 40T79 29Q80 13 95 5Q100 2 100 1Q102 -3 97 -3Z" />
<glyph unicode=")" glyph-name="parenright" horiz-adv-x="299" d="M84 0Q69 0 57 5T33 19Q31 21 28 28T24 39Q24 47 34 44Q44 29 62 29Q104 29 120 37T144 55Q151 65 154 74T172 85Q176 93 182 97T194 107Q208 122 221 137T247 169H248Q249 171 254 180L264 197Q273
215 279 221Q279 229 285 241T296 260V263Q296 264 296 265T297 267L299 272Q299 276 302 279L301 282Q303 286 304 290T308 299V303Q308 307 308 310T309 317Q311 331 311 345T311 373Q310 387 294 397Q292 398 291 399T289 400Q287 404 292 404Q294 404 300 402T309
400Q314 400 316 397T323 391Q359 365 363 320V316Q363 311 363 307T361 297Q360 291 360 285T360 272H357Q353 268 348 251T339 225Q326 193 307 167T266 113L260 106Q244 86 213 61T147 18T84 0Z" />
<glyph unicode="*" glyph-name="asterisk" horiz-adv-x="271" d="M105 151Q101 151 99 157T95 168Q94 180 96 193T101 218Q95 214 83 206T59 190T40 183Q38 183 35 185T32 191Q32 198 43 207T67 225T83 235Q76 235 67 235T46 236Q32 236 20 239T8 247Q7 252 15
255T27 258L89 260Q85 266 75 278T55 302T45 320Q46 321 46 324L48 326H49Q49 328 52 328Q56 328 61 325T70 319L110 276L118 323Q119 328 121 339T130 350Q135 350 137 341T140 327Q142 314 140 301T136 273Q141 277 154 286T180 304T197 312Q204 312 204 305Q205
298 196 289T175 271T157 259H210Q215 259 223 258T232 251Q233 245 217 242T182 238T151 236Q158 229 164 223T176 209Q186 198 195 187T204 173Q205 170 203 169T198 167Q191 167 177 177T150 200T131 218Q129 210 125 194T116 164T105 151Z" />
<glyph unicode="+" glyph-name="plus" horiz-adv-x="312" d="M117 44Q110 44 105 51T99 65Q99 68 101 80T107 106L116 147Q107 147 88 148T49 151T13 156T-2 165V166Q-2 174 5 179T19 185H125Q133 216 140 247T153 310Q161 312 164 300T168 283Q169 277 169 271T169
259Q169 241 168 223T164 185H217Q235 185 253 185T292 188V182Q293 176 275 170T232 160Q210 156 190 154T161 150Q159 143 155 126T144 90T130 58T117 44Z" />
<glyph unicode="," glyph-name="comma" horiz-adv-x="107" d="M30 -54Q24 -54 24 -47V-45Q24 -38 28 -33T36 -22L40 -17Q46 -11 46 -6Q46 -1 44 3T41 12Q40 23 49 31T69 40Q81 40 83 26Q83 21 82 12T76 -2Q72 -5 65 -15T53 -30Q46 -40 40 -47T30 -54Z" />
<glyph unicode="-" glyph-name="hyphen" horiz-adv-x="276" d="M46 131Q43 132 42 137T40 148Q40 152 42 156Q43 160 53 161T74 163T89 164L141 165Q149 165 157 165T173 167Q186 167 202 167T231 158Q236 155 236 148Q236 146 233 141Q230 141 228 141T224 143Q212
149 198 149Q191 149 188 148L152 147Q148 146 145 146T138 145Q134 143 125 143T104 142H84Q74 141 68 139T49 131H46Z" />
<glyph unicode="." glyph-name="period" horiz-adv-x="107" d="M62 -4Q58 -4 50 1T41 12Q41 15 48 23T63 39T75 49Q88 46 88 35Q88 23 77 10T62 -4Z" />
<glyph unicode="/" glyph-name="slash" horiz-adv-x="464" d="M44 -76Q33 -76 27 -65T20 -46Q18 -22 32 7T65 65T96 111Q114 140 133 167T172 222Q177 228 193 250T232 304T280 368T328 430T369 477T391 495Q397 495 408 493T430 486T440 474V472Q440 465 434
459Q411 429 385 401T335 343Q280 279 227 215T124 84Q115 72 98 49T66 2T51 -41Q51 -54 57 -55T63 -62Q64 -67 56 -71T44 -76Z" />
<glyph unicode="0" glyph-name="zero" horiz-adv-x="310" d="M77 -11Q61 -11 50 -6T27 10Q18 21 16 34T13 56Q13 76 18 94T31 129Q33 135 35 136Q36 141 38 144T42 150Q50 163 60 179T84 206T114 218Q115 218 116 218T119 217H125Q132 217 137 213T146 204Q148
203 157 202Q146 196 143 197H138Q124 197 109 182T82 147T63 116Q61 112 58 108T55 99Q52 97 48 85T41 59T38 38Q38 37 38 35T39 29L44 20H41Q48 4 65 4Q74 4 84 7T101 15Q105 17 112 21T124 27Q132 37 142 42Q144 45 146 47T150 51L154 54Q164 62 176 77T195
103H196L208 125Q211 131 214 136T219 144Q219 150 222 157T228 169L227 172Q228 173 228 174L229 178Q230 180 230 181T231 183L230 186Q232 188 232 191T235 198V227Q235 234 235 240T234 253Q232 267 225 275T193 283Q168 283 146 270T104 241Q95 234 90 232L79
221Q73 215 60 204T37 181T27 162H21V177Q22 180 27 191T37 207Q37 219 43 222Q44 225 45 229T51 235Q55 242 65 250T82 266L86 276L87 269Q89 272 92 274T98 277Q108 283 122 292T147 302L148 303Q155 307 166 305H182V306Q186 305 188 305T194 306Q207 306 220
301T244 290Q263 278 275 264T289 229V225Q289 220 288 215T286 204Q285 200 286 194H283Q280 190 278 177T274 158Q257 114 224 76V75Q211 60 189 40T138 5T77 -11Z" />
<glyph unicode="1" glyph-name="one" horiz-adv-x="201" d="M50 -31Q32 -31 26 -20T20 7Q20 17 22 27T25 44Q28 55 31 65T37 85Q39 93 43 103T51 119V122Q51 127 54 131T58 141L62 147L61 149Q63 153 66 161T70 174Q75 190 78 194Q78 196 81 204T89 221L99 243L97
241Q91 240 85 234T74 228H73Q72 228 69 228T66 231Q66 233 73 237Q82 245 88 252T100 267Q110 282 121 293L131 299H134V300Q139 300 149 298T168 293T177 282Q177 273 170 263T157 245Q150 232 143 218T125 192H122Q120 188 119 183T115 173Q102 151 89 130T64
85Q63 84 62 82T60 78Q58 70 57 62T51 46Q53 34 48 23T43 0Q43 -10 45 -13T48 -18Q50 -19 53 -19T59 -18L61 -19Q64 -20 62 -24V-30Q58 -31 55 -31T50 -31Z" />
<glyph unicode="2" glyph-name="two" horiz-adv-x="358" d="M37 -31Q29 -31 24 -19T18 1Q17 8 29 20T59 48Q77 65 101 84T151 123Q185 151 217 177T271 224T297 258Q298 260 298 265Q291 268 282 269T265 270Q255 270 247 269T231 265Q224 264 217 261T199 256Q195
255 191 254T181 252Q172 249 163 243T144 235Q138 231 131 224H138Q138 221 129 214T109 200T97 192Q93 189 87 189Q81 189 73 201T64 217Q72 222 79 227T95 236Q95 236 95 236T97 237H98Q102 240 114 246T132 254Q136 258 149 263T176 273T198 280L207 283Q210
283 210 283V284L237 288H247L249 289Q257 289 261 290Q274 288 290 285T318 272T330 244Q330 227 320 213T296 189Q291 185 286 181T275 173Q259 163 245 152T214 130Q203 123 192 116T170 100Q162 93 145 87T123 72Q120 70 115 66T102 56Q97 52 92 49T84 43Q82
38 74 33T61 23L59 22L62 23Q71 26 84 31T106 37Q111 40 117 43T131 46Q136 49 142 50L147 52Q149 52 151 54L152 55L160 54L170 60L172 59Q176 60 186 64T197 73L204 72Q204 72 212 75V74Q218 76 223 76L229 79H233L242 81L243 80Q243 80 243 80T244 81Q252 88
270 89T297 91Q315 91 327 80T340 55Q340 49 334 44H331Q328 56 317 59L295 62Q289 59 271 57T246 54Q240 50 230 51L224 48H223Q203 43 187 35T151 21Q133 16 107 3Q94 -3 82 -9T62 -19Q55 -22 50 -26T37 -31Z" />
<glyph unicode="3" glyph-name="three" horiz-adv-x="275" d="M-12 -94Q-19 -94 -29 -90T-42 -79Q-47 -76 -47 -70Q-47 -60 -41 -58V-57H-35V-64Q-35 -69 -33 -73T-24 -78Q-19 -78 -15 -77T-6 -74H-5L-4 -75V-74H-3Q9 -69 21 -64T45 -51L71 -33Q79 -28 87 -23T101
-16Q104 -9 111 -5T125 5Q137 16 154 31T184 65T197 102Q197 136 159 136Q136 136 107 124T56 101Q51 99 47 94T36 88Q25 88 19 100H18Q18 106 17 112T15 124Q26 132 40 139T71 153Q86 160 102 167T131 182L132 181Q136 187 147 189L148 191Q162 200 180 215T199
244Q199 258 183 260T156 262Q137 262 112 257T71 241T62 218Q64 215 65 208H59Q49 215 42 234T33 263L36 266Q39 268 39 266H40Q41 267 42 267T44 268Q46 268 47 270H51L56 272H58V273L64 275H66Q75 280 83 280T99 284Q101 285 103 285H104Q111 285 117 286T130
287L140 289L141 288Q146 289 150 289T159 289Q165 289 179 286T199 281Q213 276 223 266T234 239Q234 220 219 205T185 180T151 162L142 157H144Q152 157 161 156T179 152Q183 151 185 149T192 146L197 142Q206 135 217 119T229 92Q229 87 230 80T230 68Q227 50
213 32T182 -2T150 -28Q119 -51 76 -72T-12 -94Z" />
<glyph unicode="4" glyph-name="four" horiz-adv-x="282" d="M162 -9Q156 -9 151 -6Q138 -1 133 12T127 41Q127 54 129 67T134 89L133 90L143 118L149 140Q140 139 132 135T115 127Q109 124 103 123T90 118Q85 116 77 111T64 105Q63 105 54 102T41 95Q37 92 34
90T26 88Q16 88 6 98T-5 118Q-5 128 3 136T19 151L20 150V150Q20 150 19 151H20V152L23 153Q25 155 27 155H30Q33 161 48 172T68 184H69Q68 184 68 185Q76 195 86 199V198Q88 203 102 212T121 226L122 228L124 227Q128 232 135 238T148 246V248Q151 251 155 253T162
257Q170 263 178 269T194 282Q198 285 201 288T208 293H210Q215 293 217 290T224 286Q228 286 228 290Q229 294 235 303T249 323T260 336Q268 335 283 329T300 315Q300 313 299 311Q295 306 291 301T281 292Q276 288 271 282T261 271Q257 266 243 247T215 206T196
175Q203 175 212 178Q214 174 214 174V179Q222 179 229 180T244 182Q260 182 260 174Q260 168 247 167L240 166Q238 166 239 164L240 161Q233 161 227 161T216 160Q212 156 209 156T204 155Q198 155 195 153Q189 150 186 150Q178 138 173 127T164 102V99Q164 95
162 88T157 76Q154 67 152 57T150 34Q151 30 151 20T154 7Q156 5 162 3T169 -4Q169 -6 167 -7T162 -9ZM23 120Q37 122 51 129T79 141Q83 143 86 144T94 145Q102 150 115 154T139 160Q147 164 153 172L157 178Q157 178 159 182L161 187Q163 192 166 194Q167 199
169 201T170 208L174 211Q174 212 174 212T175 214Q176 216 178 220T182 226Q185 231 185 234Q187 236 190 241T194 250Q182 241 174 237T152 223Q141 215 130 207T107 191L105 189L101 188V188Q98 179 85 173T72 160Q60 150 47 141T23 120ZM69 181Q70 182 71 182Q70
182 70 183Q70 182 69 181Z" />
<glyph unicode="5" glyph-name="five" horiz-adv-x="233" d="M-22 -49Q-30 -49 -45 -44T-61 -28Q-61 -22 -57 -22H-54L-50 -27Q-43 -34 -35 -34L-32 -32Q-30 -33 -27 -33T-23 -33H-18L-2 -28L-1 -26H3Q3 -26 4 -26T6 -26Q5 -26 9 -24T14 -21H17Q28 -14 39 -9T60
3Q83 17 111 43T159 99T179 156Q179 169 174 173T155 178Q145 178 126 172T90 158T68 143Q64 139 53 129T33 119Q30 119 22 124T10 136T11 148Q11 149 11 149T10 151Q10 155 12 160T16 166L14 168L19 171Q19 176 27 190T46 224T68 258T82 280Q84 285 90 296T103
306L118 303Q124 295 137 293T160 291Q162 292 165 292Q178 292 189 293T212 298Q215 299 217 299T224 300Q229 302 235 303T247 304Q250 306 253 306T259 306L265 309Q268 309 271 309T277 311L281 305Q277 303 274 302T269 300L264 298Q261 298 258 295Q257 294
254 292T248 289H241Q237 286 232 286T225 284V283Q219 278 209 278Q208 275 202 273Q195 269 176 267T152 265Q150 265 146 263T137 260Q133 259 128 260T118 259Q116 258 108 247T88 221T67 191T53 169H54Q57 170 58 173Q61 173 62 173T66 175L68 176V178Q76
179 81 181T94 185Q96 188 99 188T106 190Q109 192 112 192T120 194L122 195L123 194Q131 198 141 198Q159 198 178 190T211 167T224 134Q224 117 215 103T197 75L195 72H189L187 71Q186 64 182 64T175 58Q175 56 175 52T172 46Q168 45 164 41Q157 31 136 20T103
2Q99 -1 94 -2T85 -7Q80 -11 70 -18T51 -27Q41 -35 17 -42T-22 -49Z" />
<glyph unicode="6" glyph-name="six" horiz-adv-x="226" d="M58 -20Q42 -20 30 -9T10 19T2 47Q2 62 7 79Q9 84 10 89T12 100Q20 125 41 153T80 202Q94 219 115 237T154 271Q168 283 188 298T227 315Q238 314 249 306T259 283V277Q259 264 255 265T250 266Q247
277 238 277Q227 277 221 275T209 269Q205 266 201 263T192 258Q182 250 173 242T153 224L130 201Q124 194 119 189T111 181Q108 177 106 173T98 166Q96 161 93 157T85 149Q81 144 78 138T70 124Q58 104 44 80T30 31Q30 19 35 11T54 3Q55 3 55 3T56 4H59Q61 5 64
5L63 7Q67 6 71 8L77 9Q82 12 87 14H88Q90 16 95 19T105 27Q117 35 124 39Q125 41 128 41H130Q129 52 137 58T150 72L149 71Q151 82 156 91Q159 97 159 104Q157 111 152 111Q145 111 133 104T109 87T92 72Q89 68 86 65T81 56Q79 51 76 46T66 41Q65 61 70 74T88
100Q92 104 95 107T103 115H105Q109 123 116 123Q122 128 132 131L137 133V131H138Q148 132 161 124T186 104T197 82Q198 78 193 65T182 48Q180 45 169 36T155 24H154L151 17Q143 16 139 12T130 2Q125 -2 119 -3T108 -9L105 -11Q104 -12 102 -13T98 -14Q96 -15
95 -15T92 -17Q86 -17 75 -18T58 -20Z" />
<glyph unicode="7" glyph-name="seven" horiz-adv-x="303" d="M82 -72Q65 -72 46 -60T26 -32V-25Q26 -20 26 -16T28 -8Q39 27 60 54T99 112Q102 117 113 133T137 162Q146 173 155 183T174 204L216 244L239 264Q226 264 219 263T204 259Q197 257 189 254T165 248L164
247Q156 247 142 243T113 233Q103 229 88 224T62 219Q56 215 50 213L46 202Q34 201 25 195T5 188Q-7 188 -11 204T-17 231H-14L4 235V236L15 238L18 240Q20 240 30 243T52 249T66 253Q69 253 75 255T84 258Q89 260 94 261T105 263Q111 265 117 266T130 269Q134
271 139 271T148 273Q148 273 149 273T152 274Q159 276 166 277T180 280Q186 280 191 281T200 283H201L224 286V287Q236 286 246 287T266 289Q270 289 273 289T280 288Q285 288 289 291T297 298Q304 297 315 292T327 278Q328 268 315 257T292 242Q289 241 286 241T279
241Q273 241 268 235T257 226Q253 223 246 221T236 213Q234 210 232 207T226 202Q213 193 207 187Q203 183 199 178T190 167Q184 163 184 159Q175 155 173 153T169 148Q167 144 166 142T161 136Q157 132 154 131T147 124L144 120L136 111L132 105Q130 101 127 101L126
96Q121 93 113 82T105 64L100 66Q99 60 92 53L90 50Q86 46 86 42Q83 38 76 25T64 -2T57 -18Q57 -21 57 -24T56 -32Q56 -42 59 -49T76 -57Q79 -56 85 -56T92 -56Q95 -55 97 -55T101 -55Q104 -56 103 -58T100 -63L98 -64L97 -65V-66Q91 -72 82 -72Z" />
<glyph unicode="8" glyph-name="eight" horiz-adv-x="314" d="M56 -47Q45 -47 28 -35T8 -10Q8 -2 11 5T17 20Q17 24 20 29T26 38Q60 89 109 134Q104 138 94 141Q88 143 81 145T66 150Q51 156 36 165T8 192Q2 201 4 213Q5 232 16 244T44 266T74 281Q81 284 97 290T132
302T159 309H158Q169 311 178 312T198 314L199 315L202 316Q208 315 215 314T228 310Q234 308 241 302T253 292L257 288Q261 285 264 281T268 272Q268 264 261 264Q256 264 253 266T246 272Q242 274 236 276T217 279Q177 279 144 266T76 232Q68 228 56 218T43 196Q43
189 49 183Q60 174 75 167Q77 166 84 163T99 154L113 147L118 144Q122 144 124 149L127 152Q133 162 139 163Q140 163 140 163T141 164L145 167Q144 167 144 169T144 172Q150 177 157 184T173 192H174L175 193Q176 194 176 196L181 199L180 202Q182 206 184 207T189
212Q200 222 212 228T238 241Q247 246 261 253T289 267T312 275L315 276Q320 276 324 277T332 278Q347 278 365 261Q362 261 359 261T354 262Q347 262 341 261T326 257Q324 257 322 257T317 256Q286 241 260 224Q255 220 250 216T239 208Q233 204 227 201T216 194L201
179L202 176L195 177L196 175Q188 173 187 172L186 168Q183 167 179 163T174 156H164Q164 155 164 154T165 151L160 149V147L157 144L158 142L152 141L150 139Q151 140 151 140Q152 140 152 141V139Q152 140 151 140Q151 139 151 138L149 139L150 134Q146 134 143
133T139 130L146 125Q162 113 176 99T191 61Q191 42 177 23T142 -12T98 -37T56 -47ZM39 -22Q48 -22 58 -17T77 -7Q92 2 110 16T141 47T155 82Q155 101 141 114L143 116H139Q134 120 128 122L122 112Q121 111 119 110T115 107Q112 104 112 101L110 100L111 97H107Q97
93 94 85T83 69Q77 63 73 56T62 44Q60 41 54 29T43 3T36 -16H38V-20Q37 -22 39 -22ZM134 107L133 116H139L141 114L134 107Z" />
<glyph unicode="9" glyph-name="nine" horiz-adv-x="285" d="M130 -125Q122 -125 116 -115T105 -94T100 -76Q98 -43 109 0T135 72L144 88L159 111Q164 118 167 124T173 135Q172 132 168 132L167 129Q157 125 149 117T130 105L125 100Q124 99 124 98Q124 98 124
98Q125 97 125 97Q124 97 124 98Q124 98 124 98Q124 98 124 98V98V99L122 97Q123 98 124 98Q123 96 123 96H117Q105 92 101 85Q90 81 79 76T56 70Q37 70 18 83T-2 118Q-2 139 9 163T30 204Q45 224 65 241T106 273Q114 279 123 284T142 296H145Q150 304 166 305T190
309Q194 308 200 304T210 298Q221 293 233 285T247 262V258Q247 252 243 244Q242 242 231 233T207 215T191 206Q191 213 196 220Q203 231 210 244T218 272L217 274Q212 278 201 278Q182 278 160 264T124 238Q116 232 110 226T95 216Q89 210 82 201T68 188L67 186Q66
184 64 182T59 178V177Q57 173 54 169T48 161Q41 157 37 143T33 114Q33 102 36 94T48 88Q50 88 51 88T53 89Q79 100 102 113T147 143Q149 145 155 150T169 160Q175 165 181 169T190 175Q193 178 200 184T210 191Q221 200 229 212T244 235Q248 237 249 237Q252 237
261 234T279 226T287 215V214Q279 205 273 196T257 178Q255 176 252 176T247 173Q242 171 243 166Q235 162 233 158T228 145Q227 138 223 135L221 134Q221 133 221 133T220 133Q216 126 212 119T202 104Q197 97 193 92T185 78L176 64L170 57Q169 55 168 52T164
47Q163 46 161 44T158 40L156 39Q156 38 157 38H155L156 39Q156 39 156 40V39L155 38Q155 35 153 33Q154 32 154 31T153 28V27Q153 26 153 26T153 22L150 23L149 21Q149 19 147 17Q146 7 142 -2T135 -21Q130 -36 127 -59T126 -100Q127 -104 129 -109T135 -114L138
-113Q138 -113 138 -114Q140 -115 140 -115T141 -117Q139 -125 130 -125ZM139 -115V-115Q139 -116 139 -116V-115Z" />
<glyph unicode=":" glyph-name="colon" horiz-adv-x="107" d="M99 127Q95 127 87 132T78 143Q78 145 85 153T101 169T113 180Q126 177 126 167Q126 155 114 141T99 127ZM62 -4Q58 -4 50 1T41 12Q41 15 48 23T63 39T75 49Q88 46 88 35Q88 23 77 10T62 -4Z" />
<glyph unicode=";" glyph-name="semicolon" horiz-adv-x="107" d="M99 127Q95 127 87 132T78 143Q78 145 85 153T101 169T113 180Q126 177 126 167Q126 155 114 141T99 127ZM30 -54Q24 -54 24 -47V-45Q24 -38 28 -33T36 -22L40 -17Q46 -11 46 -6Q46 -1 44 3T41
12Q40 23 49 31T69 40Q81 40 83 26Q83 21 82 12T76 -2Q72 -5 65 -15T53 -30Q46 -40 40 -47T30 -54Z" />
<glyph unicode="&lt;" glyph-name="less" horiz-adv-x="245" d="M159 94L151 96Q130 120 104 138T52 174Q48 175 48 180Q48 185 58 203T83 242T111 282T129 306Q132 309 135 311T145 314Q152 314 153 307Q153 304 144 289T123 256T101 221T87 199Q92 194 105 181T132
152T157 123T168 105V102Q168 91 159 94Z" />
<glyph unicode="=" glyph-name="equal" horiz-adv-x="312" d="M140 231Q134 231 115 232T72 235T33 240T16 250V251Q16 259 22 264T37 269Q86 269 135 270T234 271Q245 271 255 271T277 270Q285 270 293 270T310 272V267Q310 261 289 255T237 244T179 235T140
232V231ZM122 146Q116 146 97 147T54 150T15 155T-2 165V166Q-2 174 5 179T19 185H216Q234 185 253 185T292 188V182Q292 176 271 170T219 158T161 150T122 146Z" />
<glyph unicode="&gt;" glyph-name="greater" horiz-adv-x="245" d="M62 88Q56 88 55 95Q55 98 63 112T83 145T106 180T121 203Q116 208 104 221T77 250T51 279T40 297V300Q40 310 49 310L57 306Q78 281 104 264T156 228Q160 227 160 222Q160 218 150 201T125 161T97
121T79 96Q75 93 72 91T62 88Z" />
<glyph unicode="?" glyph-name="question" horiz-adv-x="413" d="M92 28Q76 30 61 39T46 66Q46 87 64 108T95 141Q136 179 176 209T259 274Q279 290 298 304T336 336Q341 342 347 349T352 364Q352 370 340 371T319 373Q291 373 255 364T184 340T125 312Q123 311
121 310T116 308Q113 303 108 301T99 294Q93 289 86 282T74 267L73 265Q71 261 70 260Q70 260 70 260T72 260L73 258Q76 254 76 249Q76 244 70 243Q69 242 62 246L59 249H58Q53 249 47 256T36 271T31 281Q31 292 46 305T81 330T117 350T137 358H135Q146 363 156
367T178 374V375L200 380V381L233 388Q237 391 245 392T258 394Q261 396 264 396T270 396V397H271V400L275 397Q284 398 293 399T311 400Q325 400 345 393T378 377H382V376H384Q384 368 390 361T396 347Q396 337 392 324T382 303Q355 272 323 257T258 221Q245 213
233 204T210 184Q208 182 203 181T196 177Q189 171 183 166T169 156Q165 152 159 149T148 143Q142 139 137 136T129 130Q123 126 117 122T106 111Q99 104 90 89T81 63Q78 62 78 59T77 54Q78 50 81 48T87 44Q90 44 93 41Q100 38 100 35Q100 31 92 28ZM44 -59Q32
-59 24 -49T15 -29V-26Q15 -19 17 -12T22 2Q30 1 42 0T55 -13Q55 -16 53 -20Q52 -21 51 -22T48 -25Q43 -30 43 -37Q43 -43 46 -45T52 -50Q54 -52 55 -56Q48 -59 44 -59Z" />
<glyph unicode="@" glyph-name="at" horiz-adv-x="469" d="M108 -20Q87 -20 64 -9T23 21T3 62Q3 69 3 75T4 89L2 94Q4 97 6 101T7 109L10 116V123Q13 129 13 136V149Q13 152 13 155T15 161Q21 172 33 191T59 230T84 255Q88 258 91 262T99 269Q104 273 106 279T118
283Q120 284 129 291T141 300L142 304L145 303L146 304Q149 306 150 308L151 309Q154 313 159 313Q163 313 166 312Q169 317 174 317Q175 319 176 321T179 325H181L184 324L186 325L189 328L184 332Q193 333 199 332Q206 340 219 344T239 356Q252 358 262 363T285
370Q289 372 297 373T308 375H325Q335 375 352 366T385 345T406 326L409 323Q413 319 415 317T421 310L423 303L425 301Q427 297 429 294T428 285Q433 281 434 274T436 263V260Q436 254 432 251Q437 248 436 241L435 240V236Q436 235 440 235Q435 232 435 232V231V232Q432
230 433 223Q432 223 431 223T429 222V221H430Q433 218 433 215L431 208Q427 207 423 207Q424 204 424 200T421 195Q420 189 414 176T405 161L401 159Q400 157 399 155T398 148L397 147V145H392V141Q392 136 385 135H384L383 134Q380 132 380 128Q376 126 376 126L374
124Q372 122 369 122V119Q356 110 346 106T315 102Q293 102 276 111T255 142Q252 139 249 137T242 133Q239 132 233 124T225 111L213 102Q211 101 209 99T205 94L200 87Q197 84 194 81T189 77Q176 69 165 60T135 51Q125 51 111 62T96 83Q95 92 98 100T100 117Q103
119 111 133T120 148L122 149L121 153Q129 158 133 162T142 174Q145 177 152 177Q152 185 157 190Q168 195 175 206T196 219L195 223L207 228L212 234Q214 235 216 235T220 234Q222 234 223 238Q232 237 240 235T258 230Q263 230 273 226T293 216T303 206Q305 200
298 200Q296 200 292 202L285 204Q275 208 267 208Q260 208 252 206T237 201Q236 200 233 200Q232 198 229 197T224 193Q214 187 197 172T164 138T136 101T125 70Q145 74 163 89T197 117Q206 125 219 134T239 154Q244 162 256 175T282 189Q287 189 293 186T300
176Q302 165 294 154T289 125L290 122Q293 119 297 119Q311 119 327 134T359 169T384 209T390 237Q392 249 394 259T396 280Q396 306 382 327T336 349Q314 349 293 340T253 322Q247 319 240 317T227 311Q226 310 224 309T219 306L209 298Q205 295 200 292T192 288Q190
286 185 282T174 274L153 258Q147 253 142 247T131 235Q127 231 123 228T114 220Q107 213 100 204T86 187Q79 179 72 171T58 153Q48 137 37 110T26 63Q26 34 47 19T99 4Q108 4 124 6T145 13Q154 14 162 18T179 27Q183 29 183 29V30Q191 30 198 35T209 47L214 50V48H216L230
61H233L234 60Q240 66 247 70T258 82L259 83Q259 83 259 83T261 84L273 96L269 75Q268 72 265 69T259 63Q257 61 257 60Q233 28 194 4T108 -20Z" />
<glyph unicode="A" glyph-name="A" horiz-adv-x="678" d="M105 -36Q99 -36 93 -36T80 -34Q62 -31 48 -17T28 14Q27 20 27 26T26 39L25 47Q27 55 31 59Q29 62 29 66Q29 71 31 76T34 87Q42 96 47 106T52 128L55 130Q44 130 29 133T2 144T-12 166Q-12 176 -3 183T20
194T40 199Q49 202 61 202L62 196H61Q51 192 37 185T15 171Q7 165 11 163Q16 158 40 158L47 159L79 168Q84 170 91 179T102 193Q109 201 117 208T136 215Q136 213 136 211T134 207Q130 202 121 191T108 174L254 212Q266 215 279 216T304 222Q323 228 341 231T378
242Q386 245 393 259T408 280Q420 292 429 306T449 334Q458 346 469 359T490 386Q494 390 502 401T517 423T526 440L527 442Q527 445 529 447L544 466Q551 460 551 455Q551 451 545 443Q541 439 538 432T532 419Q525 407 518 396T503 372Q492 356 481 339T456 306Q455
305 454 303T451 299Q450 297 444 288T430 267T418 249Q450 253 482 259Q487 290 500 323T530 385T559 432Q560 433 560 436V442Q560 451 571 465T595 493T615 513Q623 510 640 505T661 491L667 475Q662 471 658 469T651 461L647 453L641 444L630 429Q616 411 614
406Q613 404 604 394T588 375T583 369L584 370Q580 359 574 350T561 329Q555 321 551 312T543 288L540 275Q551 275 562 276T584 277Q616 277 646 265T695 223Q699 218 699 211T698 198Q698 184 685 172T656 151T630 135V138H628V144Q637 150 648 164T667 192T675
216Q675 231 657 237T616 245T583 246Q574 246 560 246T538 242Q530 240 525 223T517 185T512 155Q511 145 509 140Q510 137 510 134T511 128Q512 118 512 108T513 86Q514 72 518 51T532 15T564 -2Q577 -2 589 6T605 24Q607 27 609 27T613 24Q613 23 613 23T614
21Q614 20 614 18T612 12Q609 1 594 -6T567 -13Q518 -13 493 15T461 79Q458 92 457 104T456 126Q456 140 457 151T461 173Q465 191 469 207T477 239Q471 238 455 233T422 220T397 207Q380 193 367 173T340 135Q337 131 331 124T319 108Q312 100 306 93T296 83Q294
81 291 79T286 75Q280 68 276 62T266 48L257 41Q246 32 235 23T212 6Q187 -13 161 -24T105 -36ZM94 -18Q100 -18 112 -13T136 0T154 10Q187 33 215 60T269 116Q280 128 292 139T314 163Q318 168 322 174T330 185Q332 187 334 189T338 193L347 200Q354 205 358 211Q350
210 329 204T281 191T226 175T177 160T149 149Q135 140 116 133Q107 129 99 125T84 116Q75 110 70 94T62 59T59 26Q59 7 66 -5T94 -18Z" />
<glyph unicode="B" glyph-name="B" horiz-adv-x="564" d="M147 -20Q101 -21 65 -6T6 52Q-4 69 -4 89Q-4 115 11 136T47 172T85 196T106 207Q110 211 113 211Q117 211 117 209T117 206L114 201Q107 194 98 184T73 157Q58 141 44 114T29 64Q29 36 46 24T88 8T137
4Q184 4 239 19T338 51Q352 56 376 68T428 96T481 129T523 164T539 195Q539 208 526 215T494 225T455 229T425 230Q407 230 388 230T352 226Q336 222 323 215T293 207Q286 207 283 213T278 223V225Q278 234 284 238T298 246Q316 252 334 255T371 265Q427 284 482
313T565 392Q573 406 573 420Q573 443 552 456T499 475T437 484T389 486Q325 486 266 477T146 452Q137 450 117 443T79 425T62 404Q62 392 76 392L75 387Q75 385 73 383V381Q55 383 37 393T18 424Q18 442 32 452T64 469T94 479Q119 487 145 492T196 502Q231 508
272 510T351 513Q388 513 434 509T523 490T590 441Q614 409 614 380Q614 357 600 339T562 308T514 286T469 271Q453 267 438 263T409 255H414Q439 256 469 252T526 235T568 200Q575 189 575 174Q575 162 569 151Q528 81 421 33T147 -20ZM173 49Q153 49 140 69T124
104Q122 131 131 160T155 216T185 264V268Q189 272 192 276T201 282Q202 292 209 299T223 314Q226 319 226 323Q229 326 234 331T245 343Q251 350 258 358T272 374Q284 388 295 400T310 416Q309 432 324 446T352 471Q360 471 372 468T394 458T405 443Q406 439 404
435Q402 427 390 415T363 392T341 372Q320 350 289 317T228 245T177 168T156 97Q156 82 160 72T184 62L185 52Q178 49 173 49Z" />
<glyph unicode="C" glyph-name="C" horiz-adv-x="432" d="M158 -17Q127 -17 109 -10T64 13Q31 33 11 60T-13 123Q-14 133 -12 146T-8 169Q-4 209 25 253T100 338T199 414T307 468T409 488Q427 488 443 478T461 450Q461 447 459 437Q461 440 464 444T472 452Q478
459 489 472T511 498T520 519Q520 523 516 529T510 538Q521 535 534 527T558 510T568 492V487Q567 483 558 474T538 455T522 442Q509 430 492 407T463 360T451 316Q451 305 455 298T469 280H465V277Q448 283 426 297T404 328V334Q404 339 404 342T406 350Q407 354
413 369T426 394Q424 393 422 392T415 391L414 399Q429 414 429 435Q429 449 419 453T392 458Q389 458 386 458T381 457Q341 450 313 437T259 405T203 362Q190 352 182 343T163 321Q156 314 149 307T134 293Q126 286 119 279T106 264Q96 251 84 234T72 197Q63 190
58 174T50 140T47 107Q47 82 58 54T100 15Q111 11 123 11T145 11Q149 11 160 12T173 16Q201 18 225 28T274 50Q285 54 303 64T343 86T384 109T413 127Q421 132 427 138T441 148Q444 150 448 153T458 161Q464 166 470 170T483 180Q496 190 507 198T525 207V206H528Q524
190 515 183T495 165Q457 128 418 97T332 40Q325 36 317 34T300 26V25H296Q269 8 231 -4T158 -17Z" />
<glyph unicode="D" glyph-name="D" horiz-adv-x="793" d="M305 -97Q286 -97 269 -82T252 -48Q252 -35 255 -23T258 3Q245 10 226 22T207 52Q207 68 220 79T243 97H250V96H252Q251 87 247 80T239 65Q235 58 233 52T230 39Q231 29 243 27T264 24Q267 45 278 63T296
101Q313 142 336 180T383 255Q411 299 437 344T497 430Q505 439 517 439Q527 439 542 433T559 417Q561 398 546 375T516 338H512L511 343Q511 345 513 345Q513 345 513 348H510L504 343Q506 334 500 322T486 300T474 283Q468 276 463 269T453 254Q444 241 444 228H441Q432
224 423 210T405 181T391 156Q378 136 366 115T345 70Q341 59 327 50T307 30H363Q365 31 369 31V32Q379 35 391 37Q395 39 398 39T402 40Q406 41 410 43T418 43L433 48L438 53V49Q447 51 456 53T474 56Q485 64 498 65T523 69Q529 76 545 82T571 88H572L591 98Q593
97 602 101T622 112L659 132Q687 147 715 171T762 226T782 288Q782 333 748 364T661 416Q617 435 572 441T484 448Q444 448 407 444T341 436Q325 434 306 431T273 424Q262 421 252 416T230 407Q180 389 129 369T35 312Q31 308 24 302T16 288Q16 282 25 279T46 276T61
275L60 277H51L70 279Q71 279 71 279T72 278Q87 280 101 283T128 289V291H140Q140 289 140 286T137 281Q117 272 85 262T29 252Q7 252 -16 266T-39 304Q-39 323 -17 342T40 380T109 412T172 436T206 448Q219 452 231 453T257 457Q281 461 304 465T352 470V471H382L390
475Q416 474 442 474T494 473Q557 469 618 453T731 404T813 312Q821 299 823 285T826 257Q826 209 797 173T723 109T629 63T540 29Q521 23 506 15T470 7H467L460 5Q456 4 452 3T447 1Q433 -2 419 -2T391 -3H354Q345 -3 336 -2T317 -1Q313 -1 306 -1T296 -4Q289
-10 289 -25T289 -48Q290 -58 294 -72T315 -86L316 -95Q312 -96 310 -96T305 -97Z" />
<glyph unicode="E" glyph-name="E" horiz-adv-x="504" d="M206 -61Q180 -61 146 -56T80 -38T25 -2T-1 58Q-3 88 15 116T64 167T127 208T186 235L220 247Q204 250 185 257T152 278T137 309Q135 332 152 353T195 393T248 423T295 442Q315 449 352 456T424 463Q443
463 459 461T486 451Q497 467 508 482T536 511Q550 511 567 503T586 476Q567 477 555 461T530 431L523 423Q530 413 534 401T539 377Q539 369 535 357T521 343Q520 353 521 362Q522 366 522 369T523 376Q522 380 519 390T509 401Q505 401 498 390T484 363T473 333T468
313Q470 305 482 298L474 290Q459 293 446 305T432 332Q432 348 439 364T454 394T461 415Q461 421 453 422T439 423Q417 423 384 415T316 391T250 358T201 320T184 282Q185 273 196 270T220 267T239 266H271Q282 270 296 270H312Q316 270 320 270T328 271Q332 272
336 273T344 274Q366 274 382 256T402 220L401 218V213Q389 219 382 220T367 222Q360 222 352 222T332 221Q318 221 304 219T276 215Q226 205 185 188T105 148Q87 138 71 125T44 95Q32 76 32 51Q32 17 54 0T108 -22T171 -28Q186 -28 200 -26T229 -21Q233 -20 240
-18T257 -12Q266 -10 273 -8T282 -5H283Q291 0 299 3T316 11Q345 25 370 41T413 83Q421 94 427 109T434 139Q434 158 416 170Q414 172 411 174T408 180V184Q422 182 436 171T460 147T472 122Q474 99 464 77T437 36T404 5Q400 2 394 -1T382 -4Q381 -17 365 -21T339
-31Q332 -34 327 -38T313 -43H312V-44Q286 -51 260 -56T206 -61Z" />
<glyph unicode="F" glyph-name="F" horiz-adv-x="583" d="M271 -30Q246 -30 230 -9T212 31Q210 53 216 78T233 122Q233 123 233 124T232 127Q232 132 234 137T238 148Q241 154 244 161T251 176L262 200Q264 207 264 207Q257 203 233 196T177 181T121 169T86 164Q78
164 71 173T59 193T53 210V212Q53 220 57 220T66 219Q68 218 72 215T78 212Q83 212 87 212T95 214Q105 216 115 218T134 223L232 244Q245 246 265 252T293 269Q299 277 308 291T327 321Q338 338 348 355T368 387Q357 382 357 386T358 392Q362 398 372 411T391 432Q351
423 302 410T204 382Q153 369 108 359T34 348Q21 348 6 352T-19 368Q-25 375 -29 392T-33 416Q-33 431 -17 446T20 471T55 480Q69 491 97 500T145 510Q153 510 161 512T177 514Q183 516 188 516Q191 516 199 515T211 511L210 512Q214 511 214 509T210 506Q194 501
178 499T145 493Q109 483 68 465T-2 424Q-4 423 -6 417T-9 407Q-8 405 3 403T17 401Q25 401 33 401T50 403Q80 407 116 412T186 424T238 434Q299 450 348 458T459 479Q469 482 493 483T533 488Q559 490 577 491T622 492Q638 492 657 487T690 473Q702 466 717 450T744
415T757 383Q759 363 752 355T734 345T710 335Q704 331 698 328T684 324H678V326H677V332H680Q696 343 712 362T728 401Q728 418 714 428T678 444T635 451T598 453Q567 453 531 452T464 442H461Q471 434 472 422Q472 419 464 407T446 383T431 367Q424 364 423 367V366Q423
363 422 359H412Q412 349 402 342T386 326Q382 321 382 313Q376 312 367 303T350 283T341 265Q344 265 345 264L347 263Q359 264 374 266T402 268Q405 268 408 268T414 267Q428 267 442 268T470 269Q476 269 490 266T521 258T548 247T560 233L561 227Q537 238 514
242T468 246Q428 246 394 243T334 224T292 171Q288 162 287 153T283 134Q276 115 268 92T259 46Q259 34 260 19T268 -9Q285 -10 293 -1T312 19Q317 26 327 26Q323 10 307 -10T271 -30Z" />
<glyph unicode="G" glyph-name="G" horiz-adv-x="483" d="M164 -195Q121 -195 91 -177T58 -118Q57 -107 62 -93T74 -73Q82 -73 83 -78Q81 -82 81 -85T80 -91Q81 -106 93 -126T124 -162T161 -178Q173 -178 183 -176T203 -169Q271 -134 308 -74T367 53L374 75Q376
82 378 87T380 93H381L379 94Q390 121 396 149T409 206L408 209Q361 165 314 125T210 55Q185 42 162 32T110 22Q88 22 62 36T17 72T-5 115Q-5 119 -4 130T0 152T5 167L4 172Q11 180 13 190T29 201Q29 203 29 205T28 209Q43 255 69 281T125 340Q130 345 134 351T144
362Q166 384 191 402T243 435L301 469Q319 480 344 488T396 501T443 509T472 509Q486 507 502 504T518 478Q518 463 511 451T497 424Q496 420 495 417T489 414H488Q487 410 485 407T478 402L477 404H476V408Q481 416 483 429T486 452Q486 461 482 472T467 482Q412
479 359 451T262 391Q255 386 248 381T235 369Q233 367 231 364T227 359Q223 355 219 352T210 345Q173 313 141 275T85 190Q75 169 67 153T56 119T54 76Q56 53 71 46T111 39Q112 39 121 41T139 47T150 50Q167 55 194 71T248 106T289 136Q312 155 334 176T378 218Q383
223 387 229T399 238Q402 243 413 256T436 283T451 297Q454 298 457 298T463 298Q468 298 483 296T514 289T530 277Q523 276 519 271T510 260Q505 254 500 250T488 245Q488 245 489 244L490 243Q491 242 491 241H495Q492 235 487 222T475 197T464 180Q465 168 461
160T452 140Q451 135 450 129T447 118Q443 105 436 92T426 65Q425 58 424 52T420 39Q417 33 414 28T412 15Q400 5 397 -9T386 -37Q368 -72 335 -108T258 -170T164 -195Z" />
<glyph unicode="H" glyph-name="H" horiz-adv-x="710" d="M244 -33Q234 -34 224 -25T208 -10Q192 7 188 34T183 79Q183 111 195 140T219 200Q185 195 152 189T83 183Q55 183 24 191T-18 231Q-19 233 -19 237Q-19 243 -15 248Q-12 254 -13 258Q-4 258 -4 264Q7
271 26 280T65 297T99 305Q114 315 135 315Q143 317 150 317T166 316Q172 318 178 318T192 319Q195 320 200 320Q204 320 208 320T217 319L220 316V310H219V309Q200 308 184 304T149 293Q140 290 123 285T86 271T53 251T39 227Q39 219 51 218T69 216Q89 216 100
216T122 218T153 223L232 235Q244 249 251 265T269 298Q296 341 326 382T393 460Q407 474 420 486T452 505Q460 503 470 498T485 484Q490 478 490 469Q490 462 486 456T477 445Q475 443 469 437T457 424T448 418H443V424Q433 419 426 410T411 394Q405 389 399 385T387
375Q383 372 370 355T340 315T310 273T293 245Q313 247 326 250T361 256Q389 259 417 261T474 268L494 271Q502 273 520 274T544 279Q551 290 566 313T601 365T641 420T680 465T708 487Q711 489 716 491T724 493Q733 493 748 486T766 467Q753 461 741 456Q734 452
730 447T717 441V439H714Q712 435 708 434L706 432Q705 431 705 431H706L709 425H705Q677 392 653 356T613 280V279Q613 277 612 277V275Q633 274 657 269T702 252T733 219Q735 215 736 212T737 203Q737 196 732 188T716 179L708 191Q712 196 714 201T717 211Q717
225 704 232T675 242T645 245Q631 245 613 242T587 227Q575 211 567 180T554 117T551 63Q552 57 553 46T560 26T574 16Q584 16 595 25T616 47T633 66L640 58Q631 50 629 41T621 21Q617 11 610 4T587 -3Q577 -3 568 1T550 11Q540 16 530 20T510 31Q500 38 493 49T486
83Q486 123 502 170T535 253H533V254Q516 253 510 251T484 246Q477 245 455 242T405 234T348 224T301 215T280 209Q275 204 269 186T258 149T251 121Q251 118 250 110T247 94Q246 87 244 81T240 71Q241 68 241 62Q241 57 241 52T240 42Q244 4 272 -22L275 -24Q277
-25 277 -26T277 -27Q277 -29 273 -30T267 -32L244 -33Z" />
<glyph unicode="I" glyph-name="I" horiz-adv-x="383" d="M9 -61Q-1 -61 -9 -46T-19 -23L-18 -21V-18H-8Q-6 -16 -4 -16H-3Q8 -13 14 -12T30 -8Q36 -7 54 -3T90 6T107 15L128 12Q136 14 143 16T159 19Q167 21 166 35T166 55Q171 118 196 174T255 284T320 387L197
375Q188 374 187 386T184 405Q184 414 194 420T216 428T235 431Q240 432 245 432T256 433Q258 433 261 433T266 432H269L270 424L263 422Q271 422 280 420T296 418Q316 422 322 422Q330 423 348 422Q350 424 353 425T357 427Q358 428 358 432V435Q358 439 359 444T367
454Q371 458 376 461T385 467Q390 466 401 463T422 454T432 442Q432 438 429 434T424 426Q435 426 445 426T466 424Q469 424 481 426T500 428Q515 428 529 427T559 426L568 420Q537 404 506 401T442 391Q405 384 386 369T344 323Q340 317 336 311T328 300Q304 266
278 225T232 139T213 50Q213 34 216 31T231 27Q237 27 244 29T258 32Q261 33 266 33Q286 35 307 35T348 36Q352 37 356 37T364 38Q369 38 382 35T408 27T422 14Q410 16 400 16T380 17Q371 17 347 16T295 10T247 -3T227 -23Q227 -29 241 -40L246 -44Q251 -48 253
-51T257 -61Q252 -60 250 -61H246Q230 -61 211 -47T188 -17Q159 -24 129 -30T69 -44Q54 -49 40 -55T9 -61Z" />
<glyph unicode="J" glyph-name="J" horiz-adv-x="453" d="M75 -215Q33 -215 8 -186T-17 -120Q-17 -93 -9 -66T6 -14Q7 -13 8 -11T10 -4Q11 -2 12 0T11 4Q23 18 30 34T47 65Q64 90 84 112T125 156L126 158Q130 162 134 162Q176 205 233 239T352 288Q372 294 392
294Q394 303 394 313T394 333Q393 347 386 367T366 395Q361 398 355 398T343 399Q321 399 296 394T248 389Q237 389 226 395T214 416Q214 430 229 435T257 441Q274 441 291 439T324 437Q363 436 402 436T480 435Q491 435 503 436T526 437L527 438Q541 439 554 440T581
445Q583 442 583 440Q583 437 575 432T564 426Q549 421 533 421T502 418Q484 416 468 410T433 403Q421 403 409 403T385 405Q393 402 401 399T411 396Q419 393 431 384T452 363T462 345Q463 339 463 334T463 323Q463 319 463 314T461 302H462V300Q470 300 485 298T515
293T530 286L533 278H531V277H523Q518 280 512 280T500 281Q476 281 460 262Q456 248 450 235T438 207Q433 185 429 164T413 122Q405 106 396 90T378 58Q374 51 370 44T361 28Q359 24 358 19T354 9Q353 8 344 -3T324 -29Q313 -43 304 -55T293 -69Q283 -81 272 -90T252
-112L251 -115Q244 -119 232 -129T214 -145Q198 -160 175 -176T126 -204T75 -215ZM80 -199Q101 -191 119 -182T154 -160Q165 -152 173 -142T192 -123Q239 -75 274 -20T337 95L349 120Q356 135 359 140Q358 150 363 160T371 179Q377 204 381 222T390 265Q382 267
368 265T341 260T322 254Q296 243 274 227T230 194Q223 188 214 182T197 169Q188 162 180 156T166 142Q163 138 160 134T154 125Q126 90 105 60T67 -12Q65 -18 62 -24T56 -35Q50 -48 43 -77T35 -136Q35 -161 44 -180T80 -199Z" />
<glyph unicode="K" glyph-name="K" horiz-adv-x="617" d="M716 -174Q707 -174 696 -173T676 -167Q645 -155 613 -122T550 -47T498 37T464 108Q462 113 458 126T448 153Q444 166 440 177T433 195Q414 175 397 153T362 108Q350 93 338 79T314 50Q304 34 295 17T273
-17Q270 -21 267 -23T256 -26Q248 -26 233 -18T217 1Q217 5 218 6Q230 30 241 54T266 100Q278 122 291 142T317 184Q322 192 326 200T336 216L340 222L341 228L346 227V228L344 230Q344 233 345 233L377 283Q375 288 380 288L383 290Q385 296 393 310T410 337T422
356L423 357Q425 359 425 360T427 362L429 371Q437 376 449 393T474 433T494 476T502 507Q502 520 493 523T471 527Q450 527 424 519T372 499T326 478Q286 459 249 438T177 391Q168 385 148 370T104 334T65 293T48 257Q48 245 63 245Q73 245 91 250T128 261T156
271Q170 276 180 282T205 289V287H211L205 282Q190 270 163 257T106 234T54 225Q35 225 13 236T-10 269Q-10 288 11 312T66 364T137 415T205 458T253 483Q272 491 294 500T334 517Q351 524 365 528T398 536Q405 538 412 539T427 541Q432 542 438 542T450 544H457Q462
544 467 544T478 542Q493 539 512 530T546 508T561 477Q561 460 548 442T524 409Q506 385 483 357T435 300Q412 271 392 242T357 186L354 185Q353 177 348 170T338 155L314 110Q308 98 296 80T281 49Q299 72 315 95T349 141Q363 158 385 180T414 221L415 222L401
221L400 228Q415 242 426 251T461 261Q464 265 472 273T489 290T501 302Q522 322 549 349T608 403Q640 429 677 450T758 478L766 480Q771 481 776 481T785 482Q794 482 808 477T834 461T845 436V434Q845 431 844 429T842 425Q842 425 842 424T841 418L837 422H834Q828
439 823 447T797 455Q784 455 771 452T746 443Q694 422 654 397T580 341T508 271Q498 261 494 249T490 224Q490 198 501 170T523 121Q534 98 550 64T588 -7T633 -76T683 -128T738 -148Q762 -148 778 -134Q788 -126 796 -104T809 -59T813 -22Q815 -19 818 -17T824
-18Q827 -21 829 -38Q830 -45 830 -54T831 -71Q831 -78 831 -84T832 -97Q832 -104 831 -112T824 -128Q818 -140 797 -150T752 -167T716 -174Z" />
<glyph unicode="L" glyph-name="L" horiz-adv-x="655" d="M128 -73Q124 -73 118 -71T111 -64Q110 -62 110 -58Q109 -53 110 -49H105Q89 -49 70 -45T38 -25Q34 -20 29 -5T20 24T16 42Q16 55 27 70T53 96T81 107Q87 113 105 121T144 136T178 146Q185 163 191 178Q202
206 214 232T239 275Q276 331 309 373T385 450T491 517Q506 525 520 531T552 539Q567 539 582 542Q593 540 610 535T642 521T657 500Q659 471 641 442T606 393Q573 353 534 315T449 249Q430 237 410 225T369 201Q340 186 310 174T248 149Q234 143 221 131T197 108Q189
100 180 81T164 41T159 9V7Q171 8 183 8T206 10Q225 12 243 15T280 19V21L301 22Q305 23 324 26T366 33T409 40T434 43Q440 46 449 46T466 47Q469 47 472 47T479 46Q481 46 495 47T512 50Q534 49 558 49T606 43T647 21Q658 11 666 -9T678 -48T682 -79Q682 -89 678
-98T663 -111Q660 -112 657 -112T651 -115Q644 -117 636 -121T620 -126H615V-124H614V-118H616Q631 -107 646 -91T662 -57Q662 -34 642 -20T591 1T530 11T480 14Q457 14 428 11T366 1L254 -21Q247 -22 242 -24T231 -29Q225 -30 219 -31T203 -33Q202 -33 198 -35L192
-37L174 -36Q171 -36 167 -36V-41L164 -40Q161 -41 158 -42Q156 -50 152 -57T142 -68Q140 -72 136 -72T128 -73ZM220 157Q348 207 446 283T616 459Q629 478 629 488Q629 495 625 498T616 502Q608 504 602 504Q579 504 557 494Q534 484 513 470T471 441L428 411Q379
377 337 329T262 232Q259 227 250 212T233 182T220 157ZM40 24Q41 15 52 11T78 5T101 4Q113 4 127 5Q133 22 139 42T151 77Q155 87 159 99T169 124Q154 114 132 99T89 69T54 41T40 24Z" />
<glyph unicode="M" glyph-name="M" horiz-adv-x="876" d="M828 -65Q802 -59 794 -37T784 5Q783 13 783 20T783 36Q783 80 791 126T815 212V211Q815 213 816 217T819 225L822 233Q823 235 823 236T823 237Q822 251 828 263T839 288Q854 333 872 377T913 463Q921
477 926 490T943 514Q952 514 970 511T1005 501T1022 484Q1023 473 1015 458T997 429T980 406Q979 407 977 407L975 406Q961 390 954 377T938 343Q930 324 914 309T890 274Q889 271 887 262T882 243Q881 238 879 230T875 217Q874 202 865 186T847 154T840 122Q836
117 836 110T834 97Q831 78 828 67T822 44T815 12Q814 9 814 6T814 -2Q814 -14 817 -25T828 -41Q837 -45 843 -49T850 -57Q850 -62 828 -65ZM109 -62Q45 -62 19 -26T-7 62Q-7 90 0 119T17 177Q19 184 24 195T34 212Q40 220 49 220L48 222Q47 224 46 227T47 234Q60
251 74 265T99 291Q107 299 114 307T129 322Q152 342 183 350T249 359Q265 359 279 354T308 338V331H307V329Q300 331 294 332T283 335Q278 336 273 337T262 338Q231 338 198 318T135 264T81 190T43 110T29 35Q29 0 47 -22T106 -45Q130 -45 157 -32T208 0T247 33Q255
41 262 48T277 62Q326 110 368 162T452 268Q472 294 493 319T532 373Q540 386 547 400T559 427Q562 436 563 444T570 461Q577 461 592 462T622 464Q634 464 643 462T652 452V436Q649 429 645 423T637 409Q625 387 615 365Q590 311 569 244T547 115Q547 93 554 77T587
60Q597 65 606 69T625 78Q662 102 689 135T741 206T790 279Q794 285 803 297T822 321T831 339Q841 350 843 345Q845 344 845 341T844 336Q843 330 831 307T799 254T761 192T725 137T704 106Q695 93 684 80T659 59Q646 50 629 47T596 43Q547 43 523 64T491 134Q490
139 490 145T489 156Q489 189 499 222T517 287L524 313L527 326Q523 319 517 310T503 291L466 242Q452 222 436 203T405 164Q376 126 347 89T283 19Q246 -15 203 -38T109 -62Z" />
<glyph unicode="N" glyph-name="N" horiz-adv-x="734" d="M284 -43Q274 -43 257 -38T238 -22Q237 -11 241 -2T250 17L280 85Q312 158 351 219T423 354Q437 386 457 422T477 494Q477 511 471 515T450 520Q431 520 413 513T377 497Q324 472 284 442T208 375T137
295Q124 280 106 258T74 211T60 165Q60 150 72 147T97 143Q105 143 112 145T127 148L146 151Q181 157 197 161T218 168T227 171Q229 171 233 171T245 173Q248 172 250 172T253 171Q255 169 255 167Q255 164 251 163T241 161Q232 157 215 149T174 133Q152 125 128
119T82 112Q66 112 47 117T14 134T-2 164Q-4 188 7 210T36 252T67 288Q73 294 77 301T87 314Q92 319 98 324T110 334Q121 344 129 354T151 371Q153 374 155 377T159 384Q164 392 173 398T190 411Q203 422 216 430T243 447Q264 462 285 476T331 501Q334 503 338
504T346 509L347 508Q375 529 416 534Q420 535 424 536T432 538Q461 538 488 521T515 469Q515 445 505 424T483 382Q476 371 471 359T460 336Q437 294 413 253T369 167Q364 157 355 140T344 111Q376 155 403 201T463 289Q471 300 479 310T494 331Q505 344 518 360T546
389T580 401Q593 401 612 394T649 376T671 353Q673 348 674 340T675 324Q675 315 675 306T673 291Q667 257 664 221T660 147Q660 113 663 80Q664 72 666 53T675 16T694 -1Q705 -1 713 16T726 42Q731 52 735 53Q737 50 737 46Q738 39 737 19T730 -8Q726 -12 716
-13T699 -14Q674 -16 658 -4T631 28T617 66T611 98Q609 123 608 149T607 200Q607 247 610 292Q610 297 611 307T612 330Q612 349 609 365T593 382Q585 382 576 375T561 363Q499 305 453 235T366 92Q350 64 339 35T312 -24Q308 -31 302 -37T284 -43Z" />
<glyph unicode="O" glyph-name="O" horiz-adv-x="536" d="M229 -23Q195 -23 158 -9T98 30Q86 43 80 51T72 72Q48 87 32 110T7 159T-4 201Q-5 213 -5 224T-5 247V248Q-8 251 -3 251Q-1 258 3 270T12 286V287Q10 291 10 295Q10 308 24 327T62 366T113 406T167 437Q183
447 205 451T251 457T293 463Q298 464 303 465T312 467Q354 467 402 457T494 425T566 370T599 290Q600 279 601 272T602 256Q602 242 598 223Q596 216 589 200T580 176Q576 167 571 158T559 141Q529 96 481 63T379 10Q346 -2 306 -12T229 -23ZM206 4H235V5Q249
6 263 9T290 16Q296 18 306 22T327 31Q338 36 348 40T365 48Q383 56 399 68T431 92Q480 130 513 181T547 293Q547 348 519 381T445 431T348 447Q341 447 334 446T319 444Q304 443 289 440T260 432Q222 422 183 400T110 347T57 278T41 202Q38 197 37 191T36 178Q37
173 42 156T56 123T72 104Q76 156 100 202T161 286T242 352Q255 360 274 368T310 377Q314 379 318 379T327 380Q334 380 352 374T386 360T402 341Q402 339 401 338L402 333Q380 347 365 347Q352 347 340 342T317 330Q304 323 290 317T262 302Q240 287 216 263T171
209T135 152T114 104Q112 96 112 87Q112 80 115 75Q119 69 135 64T171 55T209 49T236 47L237 40H234Q225 36 212 36Q187 36 163 42T114 56Q116 50 118 44T122 32Q127 20 142 14T176 6T206 4Z" />
<glyph unicode="P" glyph-name="P" horiz-adv-x="547" d="M386 169Q367 169 347 169T307 171Q295 171 291 173T287 179Q287 183 290 186T294 190L293 193Q297 192 298 191T301 189L302 190H303Q307 192 314 192Q319 192 323 192T331 191Q340 191 349 192T369 194Q371
194 381 196Q384 197 386 197T390 200H400Q405 200 409 200T415 204Q430 204 444 207T474 213Q484 215 492 219T512 225L544 237Q552 240 556 244T566 252Q568 254 570 255T576 258Q596 268 608 286T626 322T632 350Q632 381 609 398T551 423T480 433T420 435Q410
435 401 433T381 429Q366 426 351 426T320 425Q256 412 193 387T79 323Q67 314 51 301T24 272T14 242Q14 239 19 233T24 223Q24 218 16 218Q6 223 1 239T-5 264Q-8 293 3 321T43 360Q51 363 59 364T75 368Q86 372 97 380T119 396Q127 397 134 400T148 406Q158 410
181 417T227 431T259 438Q267 443 277 444T297 446Q302 449 314 451T332 453Q336 454 350 455T381 457T410 460T423 461Q449 461 476 461T530 453Q561 446 592 430T645 388T670 331Q671 315 667 301T655 273Q633 236 591 215T505 183Q495 181 484 179T462 175Q443
174 424 172T386 169ZM249 -29Q234 -29 215 -19T182 6T166 36Q164 62 176 89T201 138T213 168Q215 170 219 173T222 179Q249 223 278 263Q281 267 283 271T288 280Q295 289 303 297T318 314Q329 328 339 342T359 370Q364 376 374 386T385 405Q384 407 381 410L380
412Q376 415 376 420L379 423Q385 422 402 417T435 403T450 381Q450 371 440 361T417 341T396 323Q372 298 341 261T281 181T234 95T219 14Q220 6 224 -3T238 -12L277 12Q288 20 297 27T307 39H316Q312 28 307 23T296 8Q287 -4 277 -16T249 -29Z" />
<glyph unicode="Q" glyph-name="Q" horiz-adv-x="744" d="M657 -95Q626 -95 592 -88T540 -76Q527 -72 515 -68T488 -64Q487 -64 485 -62Q454 -54 412 -42T336 -21Q316 -22 300 -23T270 -26Q264 -27 258 -27T247 -28Q219 -28 198 -18T143 22Q137 27 130 34T121
49Q105 54 90 57T58 61Q41 61 34 59T27 48Q27 43 30 34L33 21Q34 19 34 16Q34 13 31 13Q27 13 23 16T17 23Q1 38 -1 62Q-1 76 7 88T32 101Q58 103 77 97T121 82Q121 87 120 90T116 98Q115 100 115 103Q115 104 115 106Q102 116 94 130Q87 142 82 155T76 183Q76
194 79 205T85 226L95 236Q95 244 105 260T129 295T156 327T175 343L177 344Q177 344 177 344T178 345Q183 351 189 356T204 362Q206 366 209 368T215 374Q224 383 229 387T239 395Q244 397 250 400T266 409Q294 424 321 436T379 458Q382 459 391 461T410 467T421
473L429 471L440 476H449Q453 481 459 481T471 480Q474 480 478 481T488 483Q493 485 499 485T510 487Q525 487 540 487T570 488Q579 488 598 486T627 481Q657 475 684 460T729 420T747 359Q747 326 735 291T702 225T659 170Q653 166 647 163T635 154Q622 144 611
131T586 107Q565 91 541 78T492 52Q467 40 442 29T393 6Q390 5 388 4T384 1Q431 -11 477 -22T572 -38Q583 -39 595 -41T619 -43Q635 -42 651 -42T683 -41Q692 -40 701 -38T720 -35Q727 -30 735 -25T744 -10Q744 3 732 15T707 38T695 52Q695 52 696 57Q709 50 725
40T751 19Q768 0 769 -43Q770 -51 761 -60T740 -77T720 -85Q717 -85 714 -84T706 -83Q699 -90 686 -92T657 -95ZM299 24Q317 19 332 15T352 10Q369 18 385 25T418 41Q430 48 445 60T473 74L474 77Q520 113 567 153T647 242Q650 247 653 251T660 258Q662 269 670
278T683 298Q693 317 700 339T707 383Q707 416 689 435T643 463T583 471Q548 471 507 463T426 439T353 406Q323 390 285 363T212 301T153 231T130 161Q130 130 147 115T190 97T244 94Q257 95 276 98T309 102Q314 104 324 108T346 117Q359 122 373 127T402 138Q431
150 452 162T472 184Q478 196 482 185Q483 183 483 180T483 177Q482 167 479 160T468 145Q439 118 399 103T317 83T236 76Q215 76 191 78T145 89Q148 83 152 75T162 64Q173 55 199 50T239 41Q246 40 263 35T299 24ZM284 -5Q289 -3 294 -2T303 0L233 21Q214 26 196
30T166 35Q173 16 193 7T239 -4T284 -5Z" />
<glyph unicode="R" glyph-name="R" horiz-adv-x="590" d="M634 -164Q603 -164 576 -150T527 -115T484 -71Q482 -68 476 -62L474 -61L471 -59Q463 -54 470 -47L468 -48Q464 -48 460 -45T456 -37L457 -36V-34Q457 -33 457 -33T458 -32H456Q453 -35 452 -35Q448 -35
448 -30H447Q444 -30 444 -26T445 -21Q445 -18 443 -17T438 -15Q436 -15 434 -13Q433 -11 425 -1T408 20T400 32V35H399Q396 35 396 36Q390 43 385 51T374 66Q358 88 348 113T322 160Q315 169 304 185T280 201Q278 201 274 200T268 193L264 196H261L260 203H263Q270
211 284 216T309 221Q321 221 329 214T348 206Q350 206 355 206T362 210Q370 209 382 212T402 216Q413 223 425 226T450 233Q467 238 495 249T553 276T603 309T624 345Q624 355 616 363T598 377Q564 399 523 404T441 409H384Q357 409 331 409T279 404Q227 397 176
390T74 363Q67 360 51 353T35 337Q35 333 42 332T60 328Q71 327 81 327T96 327L97 321H93Q87 316 79 316T64 317Q57 317 50 316T35 315Q22 315 7 324T-11 350Q-11 357 2 368T30 388T51 397Q51 397 52 397T54 396H55L74 405L75 403Q96 409 117 415T161 422Q163 422
166 422T170 424Q196 428 220 430T269 435Q277 436 285 437T300 439Q319 439 338 439T377 437Q417 437 464 434T556 418T629 370Q639 359 643 347T649 320Q649 317 649 314T650 308Q652 289 638 272T607 247Q597 243 589 237T572 228Q560 224 547 221T521 213Q485
200 445 195T363 189Q366 180 374 166T392 138T406 117Q420 98 442 66T491 -2T548 -71T606 -124T659 -145Q676 -145 689 -132Q698 -123 702 -96T707 -44Q707 -24 704 -12H711V-14H712Q723 -31 724 -48Q725 -61 727 -73T730 -98Q730 -111 726 -122Q721 -134 704
-143T666 -158T634 -164ZM193 -32Q177 -32 159 -23T126 1T111 30Q109 50 116 68T131 102Q135 110 139 117T146 130Q153 140 153 147Q155 149 159 152T161 158Q188 202 217 242Q220 246 222 250T228 259Q235 268 242 276T257 293Q268 307 278 321T299 349Q304 355
314 365T324 383Q324 386 321 389L319 391Q316 394 316 399L319 402Q325 401 342 397T374 385T389 363Q389 353 378 342T355 322T335 305Q311 279 281 244T222 170T177 90T163 12Q164 3 168 -5T182 -15Q187 -12 198 -5T220 10Q232 18 241 25T251 36H259Q255 25
251 20T239 6Q230 -7 220 -19T193 -32Z" />
<glyph unicode="S" glyph-name="S" horiz-adv-x="426" d="M54 -54Q38 -50 21 -37T4 -8Q4 11 25 30T77 65T142 95T201 116T236 127Q243 128 250 130T263 133Q254 140 245 145T229 154Q218 160 207 167T185 180Q165 191 149 198T118 216T89 247Q80 259 72 277T64
309Q64 337 86 360T140 401T194 425Q204 428 213 434T232 442Q241 444 249 448T267 455Q281 459 295 460T325 465Q328 466 331 466T337 466Q342 466 347 466T357 469L359 470H361Q366 470 370 470T379 469Q384 469 388 470T397 472Q403 472 409 471T421 469Q426
469 436 466T450 460Q465 455 478 436T491 402Q491 389 485 382T471 366Q461 358 454 348T441 327Q437 319 432 319Q428 319 427 324T429 333Q437 350 449 367T461 404Q461 420 452 423T432 426H416Q401 426 387 424T357 420Q316 416 279 405T205 377Q191 370 178
359T151 343L137 338Q127 326 112 312T97 281Q97 256 126 237T193 195Q213 184 238 170T284 138Q297 140 310 142T337 144Q370 144 393 121T418 67Q418 63 418 60T419 55Q419 39 413 31T391 15Q383 11 371 5T350 -2Q347 -4 343 -4Q340 -2 340 0Q340 6 349 10Q359
18 372 29T396 54T405 78Q404 91 391 96T361 103T335 105Q325 105 315 104Q318 100 320 96Q324 88 324 78Q324 67 319 54Q305 25 278 7T216 -22T150 -37Q146 -38 142 -38T133 -38Q120 -38 99 -36T64 -29Q63 -27 60 -23T60 -17Q60 -17 61 -17T63 -16Q66 -16 72 -19Q77
-19 82 -19T91 -20Q98 -20 104 -19T117 -16L139 -8Q146 -5 163 0T196 12T213 24Q213 28 216 28Q227 35 244 47T275 73T287 102Q257 98 227 91T171 75Q151 68 121 54T65 22T32 -16V-20Q32 -27 38 -36T53 -45L54 -54Z" />
<glyph unicode="T" glyph-name="T" horiz-adv-x="689" d="M315 -34Q288 -36 265 -22T230 14T221 57Q225 77 234 96T251 133Q279 191 314 246T387 354Q401 373 408 384T428 414Q400 414 382 413T338 405Q322 401 307 400T274 394Q255 390 236 385T196 374L142 368Q111
361 81 353T18 345Q6 345 -3 347T-20 357Q-38 375 -38 395Q-38 411 -28 426T-1 451L17 462L21 464L23 463Q32 468 41 473T61 478L69 480Q78 486 95 491T130 501T160 505Q168 505 175 504T191 502L198 507L274 506L275 498H273V496Q229 496 192 487T120 465Q104
459 87 454T53 439Q40 432 22 423T-4 401Q5 398 18 398Q26 398 34 398T48 400Q61 402 74 402T100 404L117 407L118 408Q121 411 123 408Q126 410 126 410T127 409H128Q131 409 133 409T139 410Q144 412 149 413T159 415Q164 417 169 417T180 418Q182 420 194 421T207
422Q219 429 238 431T273 433Q273 434 273 434T274 434H277L279 436L319 442L323 443L330 444Q333 445 335 445T337 445L341 449L344 446H347L351 450L353 448Q361 449 369 450T385 452L394 454Q403 458 418 458T443 459L477 463Q485 464 492 468T508 473Q509 473
509 473T511 472L514 474Q520 471 526 469T539 465V466Q547 467 555 467T573 468Q605 468 638 463T692 450Q724 438 744 411T764 353Q764 333 752 313Q739 291 721 282T685 266T649 245Q648 244 646 242T642 240Q639 240 636 248Q644 255 654 262T675 279Q686 287
697 297T718 318Q729 329 735 341T742 365Q742 382 724 397Q713 406 687 412T631 423T572 427Q539 427 522 421Q508 416 498 404T470 391Q466 375 454 364T432 340Q420 326 416 319T398 296Q383 279 374 257T354 215Q348 206 343 198T332 181Q314 150 299 107T279
27Q278 17 280 2T298 -13Q313 -13 332 3T361 27L386 47Q387 41 378 28T357 1T332 -24T315 -34Z" />
<glyph unicode="U" glyph-name="U" horiz-adv-x="634" d="M270 -17Q249 -17 229 -6T195 22T179 57Q177 86 187 117T214 177T245 231Q248 238 254 251T267 277Q273 289 280 299T295 313L292 316Q292 318 294 320Q296 322 298 325T302 333Q316 354 329 374T356 417Q366
433 373 447T384 473Q387 482 387 487Q387 495 375 495Q366 495 357 493T340 487Q262 463 197 418T72 316Q52 296 30 268T8 207Q8 196 10 193T17 184Q19 183 22 174H20V171Q1 182 -10 206T-21 243Q-21 274 0 306T57 370T131 427T208 474T272 505Q283 510 294 515T319
522Q322 523 325 523T333 523Q334 524 341 526L349 528Q363 528 384 522T421 503T438 467Q438 447 426 423T396 376T367 339Q361 332 355 326T344 311Q337 298 329 284T313 257Q309 249 303 242T291 226Q287 219 284 212T276 197Q258 160 250 126T242 49Q242 26
249 17T266 8Q283 8 302 23T331 46Q365 75 393 110T452 178Q478 208 504 238T555 298Q566 311 576 323T596 348Q600 352 606 352T609 346Q605 339 589 317T551 264T505 204T465 150T440 118Q433 109 426 99T410 82L394 70Q389 66 385 61T376 50Q367 40 358 30T337
11Q324 1 307 -8T270 -17ZM587 -13Q563 -13 544 2T522 43L526 45Q519 51 517 59T514 74Q512 100 522 138T550 219T586 298T617 360Q620 366 624 378T635 401T646 415L663 421Q672 418 683 412T696 397Q696 391 690 373T674 337T658 318L654 315Q653 320 651 321Q650
313 647 307T641 295Q640 293 640 292T639 286Q633 288 632 288L630 286Q630 269 619 251T599 217Q583 184 575 148T570 74Q567 71 567 68T566 59Q567 50 574 33T589 10Q598 5 611 5L613 4H618Q614 -3 603 -8T587 -13Z" />
<glyph unicode="V" glyph-name="V" horiz-adv-x="472" d="M183 -25Q179 -25 178 -22T177 -17Q177 -11 179 1T186 27T191 48Q204 96 219 151T246 264T257 372Q257 394 254 418T239 459T196 476Q156 476 124 454T69 400T33 337Q24 316 17 294T9 249Q9 228 21 204T55
170Q57 169 58 169T60 167H62V159Q37 162 17 178T-16 217T-30 259Q-33 290 -23 323T4 388T43 440Q52 449 62 455T83 469Q94 476 106 482T131 492Q136 493 140 493T147 493Q150 494 153 495T160 497Q183 493 209 488T255 465Q273 449 288 427T305 381Q306 377 306
373T306 363Q306 317 290 274T262 186Q259 174 257 162T251 139Q243 117 233 95T217 49Q216 45 212 41L209 37Q204 31 197 13T190 -14Q190 -18 189 -21T183 -25ZM219 -46Q212 -46 205 -42T197 -28Q197 -23 200 -13T204 1Q211 21 221 38T241 74Q246 81 250 87T258
101Q261 113 265 120Q273 134 282 147T298 173Q302 180 311 196T332 232T354 265T369 281Q376 299 393 321T423 358Q431 368 445 382T481 409T527 422Q543 421 561 413T593 391T608 360V354Q608 350 608 346T607 338Q604 328 599 317T589 296Q588 294 586 292T577
288L576 294L578 296Q581 311 583 326T583 357Q582 368 578 380T560 392Q555 392 543 386T525 375Q513 375 496 360T460 323T428 281T408 251V250Q406 246 404 245Q401 243 399 239T395 231Q392 229 388 223T383 215L390 216L384 210Q376 204 371 198T364 182V181Q364
178 362 177L363 175Q358 174 346 159T321 125T298 88T284 65Q282 58 280 51T274 38Q271 33 268 28T261 18Q260 16 259 12T256 3Q252 -12 245 -29T219 -46ZM367 278H371L370 280Q369 279 368 279T367 278Z" />
<glyph unicode="W" glyph-name="W" horiz-adv-x="767" d="M578 -97Q569 -97 555 -86T541 -65V-59Q549 -21 569 12T610 77Q616 87 622 95T634 114Q638 122 641 129T648 143Q659 161 671 177T695 212Q699 217 702 222T709 234Q714 243 728 263T760 310T796 360T829
403T851 427Q862 450 883 470T923 507Q934 517 954 533T1001 567T1055 596T1104 608Q1126 608 1141 594T1159 543Q1160 535 1156 521T1147 501Q1139 488 1133 473T1120 447Q1116 441 1113 439Q1112 438 1110 438Q1106 438 1106 443T1109 450Q1111 460 1116 484T1121
531Q1121 552 1115 567T1091 582Q1071 582 1044 567T990 529T942 482T914 439Q912 434 909 434Q905 431 901 425T895 414Q884 407 878 394T866 369Q862 362 857 357Q847 349 836 333T824 303Q824 297 820 296Q803 284 794 272T773 242Q749 208 726 174T680 105Q676
98 671 92T662 77Q658 68 654 59T645 41Q641 33 639 24T631 7Q632 4 632 -4Q632 -20 626 -42T607 -80T578 -97ZM157 -40Q143 -40 135 -26T126 -2Q124 20 133 39T157 76T183 109Q199 129 212 145T239 177Q253 192 268 206T306 236Q308 244 311 255T322 271L324 273Q320
274 320 282Q327 306 334 338T345 403T347 459Q346 473 343 484T323 495Q304 495 280 483T233 455T197 426Q175 407 155 387T114 346Q89 321 69 293T48 229Q48 215 50 209T55 200Q60 195 62 194T67 184H62L49 185Q29 196 20 216T10 255Q10 291 35 329T97 402T175
464T246 505Q256 510 266 514T286 521Q290 523 293 523T301 523Q302 523 304 524T308 526L315 528Q333 528 353 521T388 501T407 469Q410 450 410 428Q410 412 409 396T402 363Q397 345 392 324T380 286Q377 282 377 278Q397 290 425 303T482 326T536 336Q569 336
584 313T601 262L604 229Q605 220 605 211T606 193Q606 153 598 114T572 39Q572 35 567 35Q563 35 561 40T559 47Q559 52 560 55Q567 70 569 83T572 109Q573 123 573 136T572 162Q572 179 569 195T561 228Q558 244 546 263T511 283Q508 283 505 283T498 282Q473
276 456 270T423 256Q408 249 393 240T356 218Q347 193 336 170T314 122Q304 101 293 81T268 42Q265 38 261 35T254 26Q246 16 238 9Q233 4 221 -5Q205 -19 193 -29T157 -40ZM155 -20Q185 -20 207 2T245 57T273 123T293 179Q263 159 249 145Q245 141 241 136T231
125L209 96Q201 85 186 67T158 30T146 -5Q147 -7 149 -13T155 -20Z" />
<glyph unicode="X" glyph-name="X" horiz-adv-x="422" d="M453 -190Q443 -190 433 -189T414 -183Q384 -171 356 -141T304 -69T261 16T228 102T208 171H207Q203 168 194 161T176 148T167 137Q151 119 134 102T101 68Q92 58 78 40T49 0T24 -41T14 -75Q14 -85 17
-88T28 -96Q35 -100 34 -108H29Q13 -108 0 -91T-15 -60Q-16 -52 -14 -41T-10 -23Q-9 -22 -7 -16Q-4 -13 -7 -11Q23 30 50 62T116 129L164 170Q172 177 182 185T199 201Q200 202 200 205Q200 210 198 217T195 226Q188 251 182 278T170 328Q168 337 164 356T154 395T138
430T117 445Q92 445 81 424T66 375T64 328Q64 320 64 313T66 297Q67 292 68 288T70 278H63Q54 289 46 305T38 354Q38 388 54 414T100 457Q111 463 120 466T143 470Q161 470 176 464T198 437Q200 432 201 427T204 416Q207 413 208 408Q215 396 217 388T221 369T228
335Q231 324 232 317T235 298Q237 285 242 273T250 246Q255 251 259 255T270 260V262Q280 270 300 286T341 316T371 334V336Q377 344 380 346T390 353T414 369Q434 384 453 398T491 429Q499 437 506 445T522 460Q524 462 524 462H518Q502 462 474 454T419 436T376
415L377 425Q400 441 424 457T477 481Q483 482 488 482T499 483L507 485L516 487Q524 487 538 486T564 479T576 462Q576 452 563 440T540 421Q511 401 480 382T418 343Q399 330 381 318T344 291Q333 283 324 273T301 254Q297 252 293 250T284 244Q275 239 270 226T266
202Q271 180 277 154T291 107Q296 92 301 72T314 36Q308 28 316 28Q325 7 340 -24T377 -88T424 -141T476 -163Q487 -163 497 -159T515 -148Q526 -140 537 -122T556 -82T566 -47H572V-48H573Q574 -51 574 -54T574 -59Q574 -67 572 -74T568 -89Q564 -108 560 -125T545
-157Q533 -174 504 -182T453 -190Z" />
<glyph unicode="Y" glyph-name="Y" horiz-adv-x="665" d="M343 -250Q319 -250 292 -242Q283 -239 264 -233T229 -217T211 -197L213 -194L206 -195V-192Q183 -166 183 -131Q183 -127 183 -124T184 -117Q186 -104 189 -91T190 -64L193 -61H200V-64H202Q201 -69 201
-73T201 -80Q204 -113 220 -148T264 -206T334 -230H339L344 -229Q349 -226 355 -225T367 -223L402 -205Q413 -200 422 -195T436 -186Q457 -169 470 -156T493 -128Q504 -112 513 -95T533 -60Q559 -12 574 45T596 156Q598 172 598 188T600 221Q592 217 589 213Q568
197 552 174Q526 139 493 110T428 51Q406 30 383 9T329 -17Q327 -18 321 -18Q308 -18 290 -10T257 12T241 39Q240 59 252 89T284 153T328 222T372 284T405 329Q414 341 428 363T458 411T483 460T494 498Q494 510 486 513T466 517Q450 517 434 512T402 502Q332 478
278 443T177 363T84 266Q65 244 47 218T29 161Q29 139 39 133T64 126Q69 125 74 125T84 125Q95 125 105 128T127 132Q129 132 136 131T145 125Q146 120 130 117T97 111T75 109Q62 109 41 116T1 135T-21 164H-26Q-25 173 -25 179T-24 190Q-24 195 -24 198T-22 206Q-18
218 -3 241Q1 247 4 255T17 265V272L25 276L27 275V277L28 278L22 283Q27 288 30 292T38 301Q45 312 54 313L53 319L70 329V332Q70 338 77 343L80 345L84 349Q122 387 157 414T232 464T322 507Q364 524 399 528T444 533Q478 533 506 517T534 462Q534 437 523 409T497
361Q483 344 460 311T409 236T357 152T316 74T300 18Q300 11 302 5T312 -1Q320 -1 328 4Q363 21 391 47T444 101Q477 136 514 166T583 234Q591 244 598 254T613 275Q621 286 628 300T651 314Q660 314 669 309T679 293V289Q679 288 674 278T663 257T655 244Q651
238 644 233T634 222Q632 218 632 215T631 207Q631 188 629 165T625 124Q623 103 620 83T612 42Q607 24 604 8T597 -25Q593 -41 588 -57T575 -90Q572 -97 564 -114T551 -138Q546 -147 540 -155T526 -172Q497 -209 448 -229T343 -250Z" />
<glyph unicode="Z" glyph-name="Z" horiz-adv-x="613" d="M476 -58L475 -50H479Q483 -45 488 -41T498 -31Q507 -23 519 -12T540 12T549 37Q548 46 536 50T506 57T472 60T449 61Q439 61 419 61T376 61T335 59T308 54L285 46Q277 43 268 42T250 39Q234 36 217 32T184
23Q171 19 158 15T131 6Q117 0 95 -8T58 -17Q41 -17 31 -6T16 19T11 45Q11 62 19 77T37 105Q68 149 111 180T203 236T297 282Q338 303 378 325T462 367Q481 376 500 382T537 399Q541 401 545 403T553 408Q538 412 520 412Q498 412 466 412T411 410Q399 409 388
406T364 401Q337 398 298 391T223 376T170 360Q164 357 164 356T169 354L198 349Q208 348 214 346T221 341Q221 339 194 339Q183 339 173 336T151 333Q138 331 129 331T110 331Q89 331 74 348Q68 354 68 362Q68 371 77 377T98 388T115 394Q133 401 152 405T191
415Q198 417 205 420T219 424Q240 426 260 426T301 430Q315 432 322 433T347 435H372Q386 435 403 437T436 439Q448 439 460 438T485 437Q507 437 530 435T573 424T606 392Q608 389 610 384T613 375Q613 373 611 371Q604 362 593 364T573 364Q559 361 545 357T517
348Q507 345 496 341T474 331Q443 318 413 305T352 278Q295 253 251 227T169 166T95 82Q89 74 79 56T70 30Q70 28 71 28Q78 28 90 32T109 37Q120 41 144 49T196 66Q223 74 247 80T281 88Q289 92 298 93T316 95Q341 100 354 102T392 106Q403 107 415 107T438 108Q442
108 445 109T452 110Q463 110 473 108T493 104Q528 98 544 85T576 38Q578 34 580 30T582 20Q582 8 571 -2T546 -20T522 -32Q517 -35 512 -39T502 -47Q497 -51 491 -54T476 -58Z" />
<glyph unicode="[" glyph-name="bracketleft" horiz-adv-x="321" d="M19 -26L16 -23L15 -25L3 -18Q-1 -10 -7 -4T-18 9Q-15 14 -13 14T-6 16Q-2 17 3 30T13 61T23 95T30 116Q47 161 68 204T101 295L103 292V296H102L108 302L105 307Q108 316 111 324T118 341L114
339L118 349H122Q127 362 130 373L136 377Q131 380 131 388L141 394Q148 394 158 394T173 392Q178 393 183 393T193 394Q198 394 203 394T214 392Q222 393 229 393T243 393Q248 393 251 391T253 380Q246 369 239 359T220 340L217 348H215L211 351H202Q188 351 173
354Q172 359 167 360L165 356V348L162 347L164 346L154 332L158 333Q153 324 149 315T139 296Q135 288 131 280T123 268V260Q107 227 94 193T66 125L61 121L59 127L57 115L54 110L53 106Q41 91 36 70L25 54V48Q17 30 14 14H18Q19 14 20 14L17 20L18 25L28 27L21
14Q24 14 28 13Q34 15 42 15T57 15Q58 15 64 13L80 14Q86 14 92 13T107 12L104 2Q97 -9 90 -19T71 -38L67 -29Q63 -27 56 -27T43 -28Q39 -28 35 -27T25 -25L23 -23V-24L19 -26ZM211 361H216L215 363L211 361Z" />
<glyph unicode="\" glyph-name="backslash" horiz-adv-x="495" d="M477 -58Q472 -58 462 -51T458 -40L460 -38Q465 -35 465 -29Q465 -17 454 1T427 39T396 75T371 102Q310 169 246 233T117 361Q88 390 58 418T-2 477Q-10 483 -10 493Q-10 500 -1 504T19 510T36
513Q41 513 61 495T108 448T167 386T226 322T274 269T300 240Q324 212 348 185T394 130Q406 116 423 96T456 54T484 10T496 -30Q496 -37 492 -47T477 -58Z" />
<glyph unicode="]" glyph-name="bracketright" horiz-adv-x="290" d="M106 -32Q100 -32 90 -32T74 -29Q70 -30 65 -30T55 -31Q50 -31 45 -31T34 -29H33Q26 -30 19 -30T4 -30Q0 -30 -3 -28T-6 -18Q2 -6 9 4T28 22L31 14L33 15L37 12H46Q59 12 74 9Q77 5 80 3L83
7V15L85 16H83Q86 21 88 24T93 31L90 29L108 67Q113 75 117 82T125 94V102Q141 135 154 169T182 238L186 241L189 235L190 248L193 253L195 257Q200 265 205 274T211 293L222 309V315Q231 330 234 349H230Q229 349 228 349L231 343L229 338L219 335L227 349Q224
349 220 350Q214 348 206 348T190 348Q187 348 183 350L168 349Q161 349 155 350T140 351L143 360Q151 372 158 383T177 401L180 391Q182 390 188 390Q192 390 196 390T204 391Q209 391 214 390T223 388L224 387V387L229 388L231 386L233 388L245 381Q249 374 254
368T265 354Q263 349 261 349T254 347Q250 346 245 333T235 302T225 268T218 247Q201 201 180 158T146 68L144 70V66L139 61L143 56Q135 38 129 22L134 24L129 13H126Q122 2 118 -10L112 -15Q116 -17 117 -25L106 -32ZM33 0L36 2H32L33 0Z" />
<glyph unicode="^" glyph-name="asciicircum" horiz-adv-x="417" d="M34 320Q26 327 19 334T4 348Q4 353 12 360T32 374Q38 378 49 385T65 399L84 410L86 416Q96 420 110 435T139 468T161 495Q169 497 178 499T197 501Q211 501 222 493T248 483L256 468L252 462Q254
463 254 463T255 463L264 456L260 445L271 435Q275 434 286 423T310 398T336 371T354 351L358 358L357 365Q365 358 369 354T379 344L367 334Q315 339 278 369T203 433L202 437Q195 441 190 445T178 454L174 452L169 456L171 464L166 457L173 452Q172 440 163 435T145
423L147 420L140 411L125 414L131 406Q122 403 116 400T103 394L106 388L96 373Q87 369 79 361T63 345L55 336Q51 332 46 327T34 320Z" />
<glyph unicode="_" glyph-name="underscore" horiz-adv-x="422" d="M5 -112Q-10 -110 -10 -95Q-10 -90 -7 -87Q-5 -84 9 -83T42 -80T77 -79T99 -79L217 -78Q236 -78 254 -78T289 -76Q318 -76 354 -76T419 -85Q432 -89 432 -95Q432 -97 424 -102Q417 -102 413 -102T404
-100Q376 -94 346 -94Q339 -94 334 -94T322 -95L241 -96Q234 -97 226 -97T210 -98Q201 -100 180 -100T134 -101H89Q73 -101 63 -102T41 -106T9 -112H5Z" />
<glyph unicode="`" glyph-name="grave" horiz-adv-x="118" d="M116 287Q111 287 97 295T50 326Q48 328 47 329T43 331Q39 336 34 337L28 341Q0 361 0 368Q0 374 9 380T25 387Q36 387 46 374Q54 364 67 349T93 321Q98 317 102 313T110 305Q115 301 118 299T122
292Q123 291 122 288T116 287Z" />
<glyph unicode="a" glyph-name="a" horiz-adv-x="346" d="M302 -10Q292 -10 279 -6T258 6Q234 28 230 56T224 115Q220 110 214 104T202 92Q199 89 196 85T190 76Q183 69 177 66T166 57Q164 55 158 47Q156 43 152 41T145 34Q138 33 134 28T124 16Q114 12 103 6T80
-1Q66 -1 50 6T20 25T5 53H4V71Q4 87 8 92Q10 95 11 99T13 107L27 127Q30 132 42 145T69 171T89 189Q97 196 113 205T145 223T172 237L176 238Q181 242 192 246T209 252Q215 254 228 254T248 256Q254 256 258 258L279 252Q290 251 305 242T321 219Q323 212 320
208L311 213Q304 224 292 226T266 229Q238 229 206 216T145 181T94 134T61 86Q60 83 60 80T58 75Q55 65 53 56T51 36Q51 29 53 28T61 21L69 18L76 21L84 24Q92 27 97 32Q101 34 104 34T107 36Q114 38 114 41T120 49Q135 63 149 76T177 105Q184 113 194 123T214
143Q217 146 219 149T224 156Q229 164 239 178T262 193Q264 194 268 194Q278 194 284 187T290 171Q290 161 286 153T280 135Q276 112 276 90Q276 83 276 76T277 61Q280 40 298 23L302 22Q316 30 321 38T337 58Q337 58 339 59T342 61Q346 61 346 57V56Q346 52 345
49T343 40Q342 28 332 9T302 -10Z" />
<glyph unicode="b" glyph-name="b" horiz-adv-x="322" d="M7 -86Q-2 -86 -17 -82T-44 -68T-59 -47Q-59 -45 -58 -42T-52 -38Q-44 -38 -42 -45T-37 -56Q-32 -62 -23 -63T-6 -65Q0 -65 6 -65T17 -64Q23 -62 27 -62Q32 -60 38 -58T49 -54Q58 -52 65 -48T79 -39Q119
-18 149 3T208 56Q216 65 229 83T241 113Q252 133 252 154Q252 162 250 165T239 169Q224 169 213 164T187 153Q183 152 171 144T145 127T120 108T109 96Q105 95 102 95T97 93Q94 93 90 86L87 81Q85 77 83 76Q73 66 68 54T56 29Q54 25 52 16T48 2Q46 -6 42 -12T28
-19Q20 -19 12 -7T3 13Q3 13 3 14T4 16V19Q8 33 17 43T34 65Q42 76 47 88T60 111Q69 125 75 138T88 164Q95 177 101 190T118 216Q131 236 143 256T170 293Q177 301 192 321T226 362Q244 383 261 399T290 417H296Q301 417 314 411T340 396T355 382Q356 381 358 377T360
370Q360 368 358 368Q354 368 347 372Q344 374 338 376T328 379Q320 379 318 378T314 374Q310 369 309 366T301 359Q296 356 290 352T279 341L278 339Q276 335 270 334Q266 332 264 330L263 327Q260 323 257 318T251 307Q247 305 241 301T232 293Q227 284 221 276T206
260Q201 256 192 242T173 214T160 192Q154 181 142 173T128 151L122 144Q139 154 157 163T194 181Q198 181 201 182T208 184Q213 186 224 187T243 189Q248 187 257 186T270 179Q281 174 292 164T304 141Q306 122 294 96T271 56Q267 51 263 45T252 34Q251 33 247
32T242 29Q237 22 234 20Q232 19 231 18T227 15Q220 8 220 6T207 -2Q205 -6 199 -11T190 -19L181 -22Q179 -27 169 -33T148 -45T132 -54Q125 -57 121 -60T108 -66Q104 -67 93 -72T80 -80Q76 -79 76 -79T71 -81Q55 -85 39 -85T7 -86Z" />
<glyph unicode="c" glyph-name="c" horiz-adv-x="300" d="M102 -14Q83 -14 59 -5T24 21Q20 27 19 33T17 44Q16 64 18 75T25 98T36 125Q37 128 44 135T58 149T68 160Q73 166 76 171T88 178Q90 179 91 179T94 180Q98 189 103 194T116 205Q122 210 140 218T166 226Q171
226 175 224T185 222L188 223Q189 219 196 216Q203 212 215 206T229 192Q229 189 226 180T217 163T206 154Q206 159 206 162T208 169Q208 172 208 174T209 180Q208 185 205 189T197 193Q184 193 167 181T135 155T112 130Q97 114 87 98T71 60Q70 53 70 46T69 31Q71
28 71 24T74 17Q76 16 76 14T78 11L79 9V8H87Q97 8 104 10T118 13Q123 15 128 16T140 18Q146 23 153 26T167 33V35Q175 34 182 40T196 49Q219 62 240 75T280 104Q283 106 294 115T307 124Q307 124 309 126Q317 121 317 116Q317 110 311 104T300 95Q296 93 293 91T286
86Q282 84 279 82T273 76Q271 72 269 69T261 65L260 63Q253 59 246 55T232 45Q228 42 226 42Q215 37 203 28Q194 22 187 16T169 8Q167 1 160 0T147 -3Q126 -14 102 -14Z" />
<glyph unicode="d" glyph-name="d" horiz-adv-x="263" d="M211 -86Q193 -86 176 -81T151 -59Q148 -53 145 -43T142 -26V-19Q142 -14 142 -10T143 -1Q147 14 153 37T167 73H165L164 77L168 81Q171 83 173 86H170L169 88Q165 86 166 81Q159 79 154 69T143 56L145
53H140L135 50Q133 48 133 47L132 46Q129 43 126 43Q117 27 95 10T52 -7Q43 -7 36 -5T24 1Q21 3 17 5T8 9L5 10Q1 21 -4 23T-12 42L-13 51L-12 55Q-12 59 -10 66T-3 76Q-3 88 5 102T23 129T40 151Q57 170 72 185T111 213V212Q116 214 120 216T130 218Q134 220 137
220Q143 220 157 214T183 199T196 182Q196 181 196 176T194 169Q191 165 189 164T184 158Q183 155 180 149T171 143H169Q168 145 168 150T169 155Q172 158 172 165Q172 172 168 178T157 185Q149 185 136 177T114 163Q85 146 65 116T33 54Q29 44 29 30Q29 23 31
17T39 10Q55 10 78 29T127 76T173 130T204 169Q209 176 217 189T232 216Q240 230 247 243T259 264Q261 268 265 272T270 281Q272 283 275 291Q277 295 279 300T284 311Q289 322 294 332T302 347Q307 353 309 360T319 373L323 376L324 383Q324 385 330 395T341 409L340
411Q347 415 351 421T361 433Q366 439 373 445T389 456Q395 455 411 448T434 436V434Q440 428 440 422Q440 417 433 408Q431 404 428 401T423 395L410 378Q403 368 393 360T373 343Q366 337 361 332T353 324L341 312Q335 306 331 299T320 285Q307 271 296 256T275
224Q270 215 265 207T252 190L250 186L247 179Q244 171 239 168Q238 164 236 159T230 147Q226 140 223 134T218 124Q216 118 215 110T208 98Q208 93 205 90T200 82Q194 68 190 46T185 2T185 -37Q186 -46 189 -55T200 -70Q201 -70 203 -69L204 -70L221 -64Q226 -62
229 -57T241 -52L244 -54L240 -70Q239 -76 228 -81T211 -86Z" />
<glyph unicode="e" glyph-name="e" horiz-adv-x="241" d="M101 -7Q83 -7 63 0T28 21T11 55Q11 60 11 65T11 74Q11 77 5 80L2 83Q-2 85 -6 88T-10 97Q-7 98 -5 98Q0 98 4 97T13 96Q12 96 14 100Q14 102 15 104T17 108Q18 108 20 115T23 124Q37 167 61 197T129 243Q133
244 136 244T144 245Q152 245 165 240T188 226T200 208Q200 204 200 201T201 194Q201 188 198 180L192 177Q190 173 188 171L182 164Q174 156 176 153L174 152Q174 152 174 151Q174 151 174 151T174 151Q174 151 173 151L174 152V152L173 151V150L168 149Q164 146
161 143T155 135Q140 119 116 108T72 87Q69 86 64 85T56 80Q52 75 51 67T50 52Q52 40 56 29T76 18H85Q90 18 95 19T107 21L114 25L115 24Q121 26 136 33T165 47T182 58L183 59L184 61L187 64Q205 77 222 86T255 112L257 110H260Q259 103 255 100T246 91L243 86Q231
67 207 48T162 16Q155 12 148 7T132 -2Q115 -7 101 -7ZM69 117Q75 117 77 117T85 119Q105 130 122 145T156 175Q158 182 166 187L170 190Q172 192 173 194T175 198Q176 199 174 205L173 210V212Q170 213 165 213Q158 210 151 204T136 197Q132 191 119 181Q112 175
106 170T97 162Q90 155 80 141T69 117Z" />
<glyph unicode="f" glyph-name="f" horiz-adv-x="292" d="M35 -280Q14 -280 -4 -268T-39 -243Q-46 -237 -49 -226T-54 -208Q-55 -203 -56 -197T-58 -185Q-58 -183 -58 -181T-59 -175Q-59 -166 -56 -157L-55 -153Q-53 -147 -53 -146Q-53 -144 -54 -142T-56 -136Q-53
-132 -52 -127T-50 -117Q-48 -110 -48 -104T-46 -90Q-44 -83 -41 -77T-36 -63Q-35 -58 -35 -54T-33 -45Q-27 -31 -25 -19T-17 7L-20 10Q-30 17 -30 31Q-30 45 -15 52T11 63Q20 66 23 69Q24 69 28 82T32 99Q35 99 36 103Q38 108 38 114T42 123L41 128L43 129L42
133Q53 137 55 151T64 174Q67 178 70 181T75 188Q77 192 77 193L78 196Q80 201 84 206T92 216V217L93 219Q97 223 98 225Q99 227 101 229V231L103 233L106 235V237L108 238V240L111 246Q113 247 113 249L116 251H117Q117 251 117 251T118 255H119L123 257Q124 258
127 260V264L132 266L133 267V270L136 272Q137 273 139 275T140 278Q141 280 151 291T174 314T189 329Q191 334 194 337T201 342L203 344L202 345Q207 347 209 349T215 355Q221 363 225 364Q228 369 235 370T250 372Q266 372 276 368Q292 367 305 357T322 331L313
327Q310 335 305 335H299Q298 336 296 336Q284 336 269 326T240 303T213 285Q203 272 188 264Q186 263 176 251T156 227T144 210Q145 209 144 206L141 205Q137 198 133 192T122 181Q122 181 124 177Q120 177 119 177T118 176Q114 173 111 168T105 157Q101 152 98
147T91 139L92 136Q82 129 77 118T70 96Q70 94 68 92L65 88Q63 86 62 83T66 79Q68 79 70 79T74 80L77 84Q79 82 81 82Q89 82 99 86H103Q110 86 116 87T129 88Q135 90 141 92T153 96Q157 97 171 100T188 106Q196 107 204 109T220 112Q224 112 227 112T234 113Q236
113 238 114T242 115V116Q249 116 254 116T263 117L265 119H267Q269 119 273 117T278 109H275Q271 108 266 107T255 105Q250 104 246 103T242 97L235 98Q230 91 220 91Q216 88 212 86T204 82Q193 76 194 72Q194 69 200 65T208 58Q220 46 234 29T251 -6Q251 -14
250 -21T247 -37V-41Q247 -45 247 -49T249 -58H246Q242 -62 239 -71T236 -87H234Q228 -93 230 -107H227V-110L223 -112Q221 -118 218 -121Q218 -125 215 -131T207 -139Q206 -143 204 -149T197 -157Q196 -158 196 -159T194 -163L189 -172Q184 -180 182 -189L171
-190Q169 -192 169 -193L170 -195Q171 -199 168 -204Q162 -209 158 -216T149 -229Q146 -232 142 -234L139 -236Q137 -238 136 -238Q118 -254 91 -267T35 -280ZM36 -254Q41 -254 45 -254T55 -253Q70 -247 75 -243Q77 -242 81 -238Q83 -236 85 -234T91 -229L93 -224Q101
-217 105 -211T116 -197Q119 -194 121 -192T125 -185Q128 -181 129 -177Q133 -172 136 -168T143 -158Q154 -141 161 -123T179 -88V-84Q179 -81 179 -79T181 -75L184 -70Q188 -64 191 -51T197 -25T201 -4Q201 -2 202 1T204 6V9Q206 11 204 12L196 38Q192 50 179
60T154 72L120 60Q116 58 112 56T103 52Q98 50 92 49T80 45Q76 44 73 42T67 37Q54 31 46 26T36 13Q34 7 34 0Q34 -2 34 -5T33 -11Q29 -22 24 -33T15 -55Q12 -64 11 -68T9 -83L5 -95Q-1 -110 -3 -127T-6 -162Q-6 -167 -6 -173T-5 -184Q-4 -195 0 -211T13 -241T36
-254Z" />
<glyph unicode="g" glyph-name="g" horiz-adv-x="346" d="M45 -250Q25 -250 -2 -241T-49 -214T-72 -174Q-72 -172 -71 -171Q-70 -166 -70 -162T-70 -153Q-70 -148 -69 -143T-68 -131Q-68 -129 -68 -127T-69 -121Q-69 -113 -65 -108L-61 -106H-58Q-57 -118 -57
-124T-53 -142L-47 -158L-42 -167L-41 -171Q-39 -176 -35 -181T-27 -192Q-20 -201 -17 -209Q-2 -222 11 -227T45 -233Q63 -233 86 -218T122 -191Q136 -177 146 -161T167 -127Q202 -67 223 -7T257 120Q253 113 248 107T238 96Q234 90 229 84T219 70H216V67Q204 62
192 47T168 24Q155 14 152 12T148 10T143 3Q136 2 131 -1T118 -9Q112 -12 104 -15T85 -18Q75 -18 57 -7T32 13Q30 16 25 18T17 25Q13 30 8 39T3 55Q2 61 5 75T13 106T26 135T40 150Q42 152 46 154T50 159V160L46 159Q48 167 59 182T86 213T116 243T139 259Q151
265 167 271T198 283V282Q206 284 210 284Q217 284 228 281T247 275Q258 272 272 263T297 241T308 217V214Q308 209 307 204T305 194Q309 192 319 187T329 176Q330 170 328 155T322 123T316 98Q313 88 312 77T307 54Q303 41 297 29T288 4L285 -8Q283 -15 280 -22T273
-37Q270 -44 263 -56T254 -73Q251 -85 244 -95T228 -113Q227 -120 217 -135T204 -153Q201 -154 201 -156Q200 -158 194 -167T185 -178Q184 -182 181 -184T176 -188Q171 -192 167 -198T158 -209Q156 -210 152 -211T143 -216Q121 -229 97 -239T45 -250ZM68 7Q74 7
83 9T97 16L98 17Q100 19 102 19Q121 30 136 42T167 68Q169 70 171 72T176 77L185 87Q190 92 195 97T206 105L207 106Q218 117 228 127T246 150Q248 153 250 156T254 163Q259 169 263 174T272 184Q273 184 273 186Q275 188 276 190T278 193Q280 195 284 196T291
198Q290 207 282 224T267 245Q263 247 256 248T243 249L228 246Q210 242 195 232T164 210L143 195Q134 188 127 180T111 163Q107 159 105 154T99 143Q67 107 54 62Q52 55 50 48T48 33Q48 23 52 15T68 7Z" />
<glyph unicode="h" glyph-name="h" horiz-adv-x="339" d="M51 -29Q41 -30 31 -25T19 -9Q18 11 24 39T39 96T53 147Q59 170 59 179H55Q41 179 26 188T10 214Q10 227 20 237T40 253Q43 255 46 258T54 262L65 266L66 262Q66 260 57 251L51 244Q48 241 48 240Q44 235
41 221T37 201Q38 197 41 197T49 196Q53 196 58 198T67 201Q69 207 71 211L77 222V225Q79 232 81 239T84 254Q86 262 88 269T94 285Q101 301 110 326T129 376T150 412Q154 419 158 425T167 438Q177 453 197 473T240 510T280 533L295 538Q305 536 321 528T349 509T363
486Q365 467 352 439T322 386T293 346Q287 339 281 333T269 318Q262 314 258 308T247 296Q241 290 225 277T188 248T150 221T125 207Q121 205 118 204T110 200Q105 197 98 192Q94 189 90 177T83 151T77 131Q73 120 72 108T65 85L63 75Q61 65 58 55T53 34L50 18V17L74
43Q83 53 100 72T137 113T177 156T214 191T237 206Q239 206 240 206T242 207Q259 207 273 199T282 180Q276 156 265 131T245 80T239 29Q240 22 244 5T261 -12Q271 -12 282 -3T304 19T322 39Q327 44 332 49T344 60L345 44Q343 40 341 36T337 28Q330 17 322 1T303
-23Q300 -25 284 -26T263 -28Q257 -28 253 -26T242 -22Q222 -14 204 0T185 37Q185 42 185 47T185 58Q185 70 189 87Q192 102 194 117T199 147L198 146Q194 142 190 138T183 129Q177 121 174 117T162 105L155 99Q148 94 143 88T133 73Q129 68 126 63T117 52Q110
45 103 39T91 24Q87 18 80 6T66 -16T51 -29ZM104 219Q177 263 235 325T322 464Q323 467 323 471Q323 474 323 476T322 483Q322 483 317 483Q316 483 314 483T309 484Q301 480 290 475T273 465L271 462V461Q269 459 269 459Q264 454 259 450T249 441Q242 437 236
429L233 425Q229 420 224 416T214 407Q211 405 202 392T183 366T171 346Q170 343 169 341T165 337Q165 333 163 332L165 327H160Q159 323 154 315T145 304Q144 300 136 283T118 247T104 219Z" />
<glyph unicode="i" glyph-name="i" horiz-adv-x="144" d="M158 243Q148 243 134 245T119 263Q119 265 126 273T142 289T153 299Q156 301 167 310T183 313Q184 312 184 299V285Q184 283 182 281Q181 281 178 280T174 277L175 276Q177 275 178 272T179 267Q175 260
169 252T158 243ZM65 -15Q61 -15 49 -12T32 -7Q22 0 18 5T14 26Q14 55 27 83T52 138Q54 140 52 141V143Q49 153 57 166T76 192T93 208Q98 208 111 207T136 202T148 192Q148 191 145 187T138 178L130 169Q126 165 126 164Q117 148 102 125T74 78Q65 62 60 48T54
22Q54 13 58 9Q69 11 81 23T102 45H107Q107 35 100 28L97 25Q92 16 85 1T65 -15Z" />
<glyph unicode="j" glyph-name="j" horiz-adv-x="258" d="M201 253Q191 253 178 255T162 273Q162 275 169 283T185 299T196 309Q198 311 204 316T217 324T226 323Q227 322 227 309V295Q227 293 225 291Q224 291 221 290T217 287L218 286Q220 285 222 282T222 277Q218
270 212 262T201 253ZM-84 -269Q-103 -269 -117 -254L-121 -249L-131 -239Q-130 -233 -130 -224T-127 -210L-128 -208Q-123 -200 -122 -192T-116 -176Q-104 -151 -88 -127T-54 -81L-55 -78Q-46 -67 -38 -57T-19 -36Q-14 -31 -8 -27T2 -18Q6 -14 12 -8T22 1Q23 3
24 3T26 5Q28 7 29 7T31 9Q56 35 87 56Q90 58 103 66T118 76Q124 85 127 108T131 155T132 191Q131 198 130 201T127 205Q126 207 121 207T114 206Q110 206 104 209L103 214L113 220Q121 219 129 217T145 212Q151 210 162 205T184 193T194 180Q194 179 192 172T188
156T186 147Q184 139 180 126T171 105V104Q187 111 200 113T231 115Q238 115 245 114T259 109V104Q256 103 252 103Q248 102 244 102T237 101Q203 91 185 77T157 42T132 -9Q130 -15 126 -20T118 -32Q115 -37 114 -42T109 -52Q105 -59 101 -65T93 -78Q85 -91 78
-105T62 -132Q58 -139 52 -145T41 -159Q37 -165 34 -171T26 -182Q20 -190 7 -204T-23 -233T-56 -258T-84 -269ZM-91 -251H-89Q-84 -247 -78 -244T-67 -237Q-37 -213 -10 -177T39 -100T76 -27Q79 -20 86 -5T94 17H95Q96 22 101 29T103 37Q97 33 92 28Q85 21 79 19Q77
17 75 16T70 12Q65 8 61 3T51 -8Q47 -11 41 -15T32 -23Q28 -29 24 -34T15 -46Q11 -52 5 -56T-7 -68Q-11 -76 -17 -83T-29 -98Q-36 -108 -42 -120T-55 -143Q-65 -160 -77 -180T-88 -223H-91Q-94 -225 -94 -234Q-94 -245 -91 -251Z" />
<glyph unicode="k" glyph-name="k" horiz-adv-x="247" d="M379 -241Q350 -241 320 -220T263 -168T214 -105T180 -52Q164 -23 147 13T117 80Q116 83 112 94T105 106Q104 106 104 103Q100 102 96 96T86 81Q83 77 78 69T68 59Q66 54 64 53T59 45L57 42Q54 34 47 25Q45
22 43 19T39 13Q37 8 37 -1T26 -11Q16 -11 7 -5T-3 12Q-5 39 1 67T18 118Q20 125 20 128T22 134Q23 138 24 142T30 155Q47 192 58 222T83 282Q97 313 117 346T174 423L179 429V430Q196 449 215 464T257 490Q265 489 282 486T305 476Q321 455 321 432Q321 427 320
422T317 411Q313 400 296 380T256 337T213 296T181 269Q180 268 177 266T171 261Q164 255 152 244T131 232Q130 233 130 233T130 234Q130 234 129 234T127 235V238Q169 279 210 320T283 413Q288 420 295 431T303 450Q303 454 302 456L301 459Q282 456 273 444T249
423Q242 419 241 419T234 410L230 405Q226 400 224 398T216 392Q211 387 212 382Q203 379 199 373T191 359Q175 353 165 333T145 299Q143 295 140 292T136 283Q132 281 123 266T111 245Q110 242 108 237T105 230Q104 229 99 220T89 198T79 176T75 165Q72 161 66
147T54 115T43 82T38 62Q39 62 41 68T45 75Q49 79 52 83T58 91L59 93Q62 99 67 103T76 113Q78 115 83 122T95 137T101 145V149Q101 154 95 160T81 167V173Q86 174 91 175T101 177Q108 177 114 176T127 174Q131 179 135 182T144 190Q158 202 173 214T208 226Q224
226 235 217T246 193Q246 182 236 171T214 152T191 141Q172 135 151 135Q149 134 149 132T148 127Q149 117 156 102T167 75Q169 72 169 69T171 63Q178 45 196 12T240 -60T293 -134T349 -192T397 -215Q413 -215 423 -202Q431 -191 436 -160T441 -105Q441 -100 441
-96T440 -87H446V-89H447Q451 -98 451 -107Q452 -117 454 -127T457 -147Q458 -155 459 -163T460 -179Q460 -183 460 -187T458 -195Q454 -206 440 -217T408 -234T379 -241ZM130 234L129 233Q129 233 129 233T130 234ZM142 154H143L147 156L148 155Q158 158 174 167T204
188T216 208Q216 209 216 209T215 208H211Q206 206 195 200T175 186T165 172Q159 169 152 165T142 154Z" />
<glyph unicode="l" glyph-name="l" horiz-adv-x="214" d="M95 -19Q66 -19 51 -7T29 25T21 66Q20 77 12 81Q9 83 6 84T2 90Q6 98 14 102T24 108Q24 109 24 110T25 114L30 129L37 155Q40 166 42 178T49 204Q53 218 58 233T70 265Q78 267 78 269T77 278Q77 279 77
280T76 282Q76 288 80 295T89 309Q94 317 99 323T105 331Q131 366 159 397T228 450Q233 452 236 454T245 458L244 459Q246 459 248 459T252 460Q260 460 278 454T311 439T327 419Q327 408 315 387T285 340T248 289T212 245T187 218Q183 214 179 211T171 204Q163
196 156 187T139 170Q126 158 107 144T74 117Q70 113 69 110T64 103Q60 98 59 83T58 59Q59 50 63 37T75 12T95 1Q101 1 105 3T115 8Q144 24 164 41T207 83Q215 91 222 99T238 116Q243 120 248 125T261 130Q260 118 254 114T242 101Q237 92 232 84T223 66Q221 62
217 58T210 50Q194 31 176 16T134 -9Q124 -13 115 -16T95 -19ZM59 137H60Q120 192 176 251T272 378Q274 381 280 393T290 417T290 432Q279 428 270 421T251 407Q248 405 244 403T238 398Q230 390 222 382T206 366Q195 355 186 342T166 316Q143 286 128 264T94 209Q91
203 83 188T68 159T59 137Z" />
<glyph unicode="m" glyph-name="m" horiz-adv-x="402" d="M373 -56Q367 -56 362 -55T352 -53L349 -55Q330 -41 318 -28T304 6Q303 20 301 33T299 61Q299 74 302 87Q303 92 303 98T303 109Q303 115 304 123T308 142Q309 144 311 151T312 161V162Q306 154 300 145T289
126Q286 120 275 101T251 64T234 41Q224 34 213 34Q206 34 194 39T173 51T164 68Q164 74 170 90T178 112Q184 127 188 141T192 165Q192 169 191 169Q185 169 175 160T159 144Q159 143 158 142T156 138L153 134Q153 133 153 133T152 132Q148 128 136 116T122 99Q120
95 120 95Q118 92 111 83T96 65T84 53Q81 46 76 41T66 29Q60 23 53 6T42 -19Q41 -23 33 -25T22 -27Q18 -27 11 -23T2 -13Q2 -10 6 3T15 34T26 66T34 84Q34 87 37 90Q38 96 41 109T49 134T55 150Q64 167 74 190T91 236T97 277Q91 277 86 276T74 274Q61 278 68 285Q72
289 84 289Q92 287 108 286T138 280T154 263Q155 258 147 239T127 197Q122 186 117 175T107 153Q103 143 100 135T94 122Q92 117 89 114T86 103Q82 100 83 96Q88 103 97 114T116 136T128 150H130Q146 167 162 183T197 210L199 212Q200 212 201 215H207L210 216Q212
216 213 216T216 217Q229 217 241 207T255 184Q257 168 251 154T239 125Q235 117 232 109T226 92Q225 88 221 80T217 67Q222 69 223 71T227 78Q228 80 229 82T231 85Q241 98 250 110T270 136Q273 141 276 144T283 151Q289 159 295 169T310 184Q314 186 318 186T327
187Q333 187 344 186T365 181T375 170Q377 154 370 141T360 114Q359 108 356 88T351 48T350 22Q351 21 351 21T353 18Q352 15 352 7Q351 4 350 1T349 -7Q351 -16 352 -28T365 -43V-41L368 -43Q377 -38 388 -25T399 -4H403Q405 -4 405 -6V-8L401 -42Q390 -56 373
-56Z" />
<glyph unicode="n" glyph-name="n" horiz-adv-x="274" d="M44 12Q37 12 28 18T17 32Q16 51 23 78T43 136T68 192T90 236Q95 246 98 255T109 274Q117 274 129 270T152 260T163 246Q163 237 153 227T136 209Q115 185 94 159T60 102Q57 95 56 88T50 75Q49 72 47 69T45
62L44 51Q52 60 69 80T107 122T146 162T171 181Q175 183 179 183Q197 183 213 172T231 145Q231 141 230 132T227 118Q226 108 225 97T223 73Q223 55 229 43T251 30Q255 32 260 33T270 35Q275 35 277 29Q277 23 270 19T258 15H245Q238 15 232 15T220 18Q210 20 201
27T187 47Q182 62 179 73T175 100V128Q175 135 175 141T175 150Q166 147 156 135T140 116Q136 112 133 111L130 108Q126 104 120 97T109 84Q106 81 104 80L99 76L92 69Q86 58 79 50T64 30Q62 28 62 27L60 23Q57 18 54 15T44 12Z" />
<glyph unicode="o" glyph-name="o" horiz-adv-x="293" d="M68 -25Q58 -25 52 -23T40 -18Q37 -16 34 -13T26 -10Q25 -8 22 -5L18 -2Q9 5 6 15T3 38Q3 55 11 69T24 99Q26 104 26 109T27 119Q29 126 33 132T41 144Q64 184 96 208T173 250Q178 252 190 254T208 256Q216
256 223 254T237 249Q239 248 241 248T248 247L246 244Q255 240 260 233T273 220L282 212Q286 208 287 202T289 191Q291 177 288 165T279 141Q273 131 266 121T251 100Q244 90 237 80T221 61Q219 59 211 52T196 36T187 26Q178 23 172 17L166 11Q148 -7 120 -16T68
-25ZM73 -6Q74 -5 76 -5L85 -2Q90 0 94 1T100 3Q104 5 116 13T140 30T150 43Q157 46 167 59T187 87T200 108Q202 113 204 117T210 125Q210 130 212 134T215 141Q217 143 217 147T219 154Q221 162 222 164L221 165Q222 167 222 169T224 173V176Q224 181 225 185T225
195Q227 199 227 202Q227 205 227 208T225 214L226 215Q225 224 220 230T207 236Q182 236 163 223T126 194Q119 189 114 184T103 172Q103 171 102 170Q104 172 108 173Q117 180 131 180Q136 180 151 171T166 154V149Q159 152 158 153L154 155Q150 157 145 157Q129
157 112 142T83 113Q76 105 70 98T65 77Q70 74 72 66Q69 65 66 65Q61 65 56 70Q53 66 51 59T47 47L45 44Q45 40 45 36T45 28Q46 13 52 4T73 -6Z" />
<glyph unicode="p" glyph-name="p" horiz-adv-x="357" d="M32 -257Q27 -257 22 -254Q7 -253 -5 -241T-25 -212T-34 -186Q-35 -177 -34 -168T-31 -150Q-26 -145 -26 -138T-24 -123Q-19 -104 -18 -101T-15 -95T-6 -73L-5 -71Q-5 -69 -3 -67L-4 -64Q1 -58 3 -51T8
-37Q13 -26 18 -16T30 5Q38 18 45 30T60 56Q64 62 68 67T75 79Q83 97 95 120T119 160L118 162L121 167Q123 176 132 188T142 208Q132 208 114 202T77 186T45 166T33 147Q34 142 39 139T48 133V130Q47 130 46 129L47 128Q46 128 46 129V129V129Q46 129 46 129T46
129V129L45 127Q38 128 26 131T4 140T-6 155Q-6 166 10 177T48 199T90 217T120 226L142 230L159 232Q167 243 175 254T191 277H193L194 278H199L200 279Q210 278 224 266T239 245Q239 241 236 238T228 233L225 231Q220 228 220 226Q220 224 223 223T229 220Q234
218 239 216T250 209Q261 202 271 191T283 159Q284 152 283 145T283 131Q288 131 296 132T307 133Q313 133 326 130T344 123Q348 121 350 118T356 112L357 107L351 106Q345 108 340 110T328 112Q324 112 320 111T310 108Q296 103 285 89T263 58Q255 51 250 41T237
22Q231 15 224 8T211 -6Q210 -7 209 -8T206 -11L200 -16Q197 -19 194 -21T190 -25Q185 -31 170 -39T137 -43Q125 -41 112 -26T99 0Q99 23 120 44T168 83T213 108Q216 110 229 115T244 122Q249 127 250 136T252 153Q252 175 247 190T217 205Q203 205 190 196Q181
190 168 170T148 140Q118 97 98 49T57 -47Q55 -55 51 -57Q51 -59 47 -72T38 -97T31 -113L30 -115Q29 -116 29 -118Q28 -125 26 -131T22 -144Q18 -161 15 -180T13 -217Q14 -222 15 -228T19 -239Q21 -243 29 -246T38 -253Q38 -257 32 -257ZM143 1Q148 4 153 7T162
15L168 20Q194 37 204 52T233 90Q237 94 235 97Q229 92 223 88T208 80Q201 76 194 71T181 61Q178 60 164 49Q158 45 152 40T141 27Q132 17 132 6Q132 -6 143 1Z" />
<glyph unicode="q" glyph-name="q" horiz-adv-x="269" d="M147 -268Q128 -268 111 -257T83 -230T70 -198Q69 -193 69 -189T69 -180Q69 -126 91 -81T139 9Q143 16 146 21T154 33Q163 49 170 63T184 90L168 71Q159 60 140 41T98 7T59 -9Q38 -9 18 8T-3 43Q-3 54
2 64T12 83Q17 94 23 104T38 124Q44 133 56 148T76 171Q97 194 129 217T198 240Q202 240 206 239T215 237Q220 235 232 230T256 217T267 204Q268 197 264 182T249 165L246 168Q248 173 249 178T250 187Q250 198 245 205T228 212Q211 212 197 206T169 191Q165 188
161 186T152 181Q145 177 140 172T129 161Q111 146 90 122T53 71T40 20Q40 17 41 14T44 8Q59 7 79 21T116 51T141 75Q154 89 165 102T187 125Q208 148 216 151Q218 152 223 152Q231 152 244 147T258 129Q258 119 247 110T230 93Q226 88 224 85T216 80Q212 78 211
77Q208 74 198 57T180 21T171 -3Q167 -3 167 -6V-7Q165 -11 165 -11V-15Q162 -19 156 -34T144 -66T133 -99T129 -119Q127 -122 125 -135T121 -165T118 -196T117 -215Q118 -222 120 -236T135 -250Q139 -250 143 -247T151 -243Q176 -225 198 -204T241 -159L247 -153Q248
-152 250 -152Q250 -149 262 -136T281 -115L283 -125L282 -129Q281 -131 279 -133T274 -137Q273 -140 269 -145T260 -156Q255 -163 250 -170T242 -179Q233 -193 226 -207T207 -236Q197 -249 183 -258T147 -268Z" />
<glyph unicode="r" glyph-name="r" horiz-adv-x="261" d="M29 -21Q22 -21 14 -17T3 -6L4 -1Q10 30 22 59T44 117Q52 139 62 171T72 228Q72 231 72 234T71 241Q64 241 58 240T45 238H44Q39 238 39 244Q39 247 43 251T55 255Q58 254 72 254Q80 254 94 254T120 250T135
237Q136 231 130 215T115 179Q106 160 98 142Q95 134 92 127T89 114V113L91 116Q97 125 103 133T114 148Q119 154 129 166T151 193Q163 207 174 221T195 242Q197 244 199 247T205 251Q208 252 213 252T230 253Q233 253 236 253T241 252Q245 252 258 247T284 234T297
222Q298 212 291 208T278 197Q271 188 265 178T254 156L252 150Q248 146 245 146Q239 146 241 153Q241 163 243 171T246 187Q248 195 248 202T248 219Q248 222 246 222Q237 222 229 214T216 200L210 196Q205 189 193 180L174 166Q167 161 154 147T134 124Q134 123
127 123H126L125 122V120Q127 117 123 113Q117 105 102 86T73 49T57 22Q53 11 51 2T49 -20Q42 -19 40 -19T36 -20Q33 -21 29 -21Z" />
<glyph unicode="s" glyph-name="s" horiz-adv-x="236" d="M6 -55Q0 -55 -4 -51T-13 -40L-17 -34Q-19 -32 -21 -29T-28 -26Q-28 -21 -30 -18T-32 -10Q-11 19 21 42T86 83H89Q95 89 104 93T119 104Q103 112 88 117T58 134Q46 143 35 156T24 185Q24 208 36 230T67
263Q71 270 87 278T120 293T145 303Q152 308 160 308L173 314H174Q184 314 197 315T218 316Q225 316 237 310T259 296T269 279Q270 274 265 264T253 244T242 232L239 231H235L234 236Q239 241 243 252T247 271Q247 286 230 286Q218 286 207 283T184 275Q145 262
115 244T62 187Q55 176 55 167Q55 152 81 140Q85 139 98 132T125 118T138 111Q143 111 148 115T157 122Q174 130 199 142T242 157Q245 158 248 159T256 161Q261 161 263 156Q261 151 254 149Q249 145 239 141T222 133Q215 131 210 125Q209 122 204 119Q197 114
183 105T169 84Q169 81 175 75T183 63Q184 55 180 41T168 20L169 16Q162 14 160 11T154 2Q151 -2 147 -4T136 -7L131 -13H130Q123 -13 118 -18T108 -29L105 -28Q100 -28 92 -32T78 -39Q71 -42 63 -44T45 -46Q42 -46 39 -46T33 -45Q32 -46 30 -46L27 -48Q21 -50
18 -50Q12 -50 12 -46Q13 -43 16 -40Q18 -38 25 -36T39 -29Q47 -26 53 -23T64 -18Q65 -17 66 -16T68 -14L74 -10Q88 -1 104 13T131 45T141 77Q141 79 140 84T136 89Q133 89 129 85T123 79Q116 74 108 69T91 58Q81 51 73 43T55 26Q42 16 31 6T8 -17Q2 -25 2 -35Q3
-39 5 -43T8 -53L7 -55H6Z" />
<glyph unicode="t" glyph-name="t" horiz-adv-x="216" d="M101 -77Q94 -77 82 -71T64 -60Q47 -43 47 -9Q47 16 54 42T70 92T85 129Q87 132 89 137T95 150Q100 162 107 173L94 169H89Q79 163 68 161T45 155Q33 152 22 147T0 136Q0 135 -3 135Q-8 135 -12 140T-16
150Q-16 153 -5 157T23 167T54 177T74 183Q82 185 88 187T100 191V192H104Q112 192 116 195Q125 215 144 247T186 305Q191 310 191 317T197 330Q205 338 210 343T226 354Q232 353 246 347T272 334T285 321Q285 318 275 311T254 296T239 286L232 284Q220 274 210
263T189 242Q183 236 180 229T170 215V210Q167 208 165 205Q192 207 207 204T239 186Q241 184 241 181Q241 178 238 178H234V179L233 178Q209 184 187 184Q178 184 170 183T156 181Q156 181 150 173T138 156T132 145Q130 142 125 131T114 108Q111 102 109 97T104
87L99 78Q99 71 97 64T92 50H91V48Q91 42 89 36T84 24Q79 1 79 -19Q79 -24 79 -29T80 -39Q82 -46 84 -51T93 -59Q96 -59 98 -60L106 -61Q118 -63 118 -67Q118 -74 112 -75T101 -77Z" />
<glyph unicode="u" glyph-name="u" horiz-adv-x="288" d="M44 -11Q25 -11 15 2T4 33Q4 56 13 84T30 132Q32 139 36 144T40 158Q43 161 46 169T51 181Q47 178 41 172T30 164L27 165Q24 169 27 174Q29 176 32 180T40 189Q44 194 47 198T52 204Q59 212 63 216T77
228Q82 227 93 225T116 218T127 206Q128 200 120 188T102 163T88 144Q81 133 77 125T70 110L56 74Q52 64 50 56T46 37Q46 36 46 34T45 29Q45 25 46 21T52 17Q56 17 63 23Q84 39 98 55Q106 63 113 71T129 89Q151 113 173 136T216 184Q221 190 227 199T240 209H241Q247
209 263 204T279 192V188Q279 179 274 172Q271 168 269 165T265 157Q264 151 262 147T257 137Q248 122 240 95T233 51Q233 46 234 35T240 21Q250 22 256 34T268 53Q273 60 280 60Q281 57 281 52Q281 48 279 44T275 35Q273 29 272 24T266 13Q260 2 244 2Q221 2 203
15T182 46Q181 65 186 89T199 130Q199 131 199 132T200 134Q194 128 189 121T176 110L167 102Q157 83 142 68T113 37Q100 21 84 5T44 -11Z" />
<glyph unicode="v" glyph-name="v" horiz-adv-x="208" d="M29 -24Q15 -24 9 -13T2 9Q2 32 8 54T18 99Q21 113 22 127T25 155Q26 162 27 168T29 182V190Q29 201 25 204T6 207Q1 207 -1 209Q-2 210 -2 210T-2 211Q-2 215 1 217T8 220L22 217L24 218Q30 217 37 217T52
218Q63 218 72 210T81 190Q81 184 80 179T77 167Q77 166 78 164V162Q80 155 74 144T66 124Q65 118 65 113T62 102Q60 97 59 91T56 79Q52 69 50 54Q50 50 50 50T52 52Q57 60 61 69T70 85Q90 111 112 136T159 184Q175 198 190 211T225 231Q234 234 242 234Q264 234
275 221Q280 214 280 209Q280 205 276 205Q274 205 266 210Q262 213 256 213T244 213Q233 213 214 201Q210 198 207 196T202 189Q195 188 193 184T186 175L179 172L157 148H156L157 144Q152 144 150 142Q144 138 140 132T131 120L128 117Q124 113 122 108T116 97L107
91L108 88Q104 85 104 82Q97 75 86 60T74 37Q67 34 60 23T47 1T42 -17Q41 -21 37 -22T29 -24Z" />
<glyph unicode="w" glyph-name="w" horiz-adv-x="400" d="M51 -14Q44 -14 41 -12T32 -8Q1 6 1 42Q1 71 18 107T48 169L56 185L49 184Q44 184 44 188V189Q48 194 51 197T58 204Q66 213 73 227T93 241Q97 241 110 238T136 231T149 221Q149 218 142 208T126 189T114
175Q110 171 108 169T104 164Q94 148 80 124T54 75T43 31Q43 9 49 9Q51 9 53 11T60 15Q75 27 86 42T110 73Q125 92 140 110T169 148Q176 157 187 174T206 198Q210 200 216 200T226 200Q234 200 242 194T250 179V178Q250 170 243 159L236 147Q235 145 234 143T232
138Q226 123 224 101T222 62Q223 53 226 42T239 26H242Q268 32 289 59T324 108Q328 113 331 117T334 129Q337 132 340 137T343 145H339Q340 155 343 159T349 171Q364 202 359 234Q358 239 356 244T348 250Q343 250 338 248T328 246Q320 246 320 255Q326 259 331
261T343 266Q367 265 383 256T409 222Q411 216 411 213Q411 208 410 203T406 192Q404 186 403 179T403 161L398 159Q397 156 395 148T392 136Q385 133 380 124T373 107Q363 101 360 94T351 78Q346 68 339 63T325 44Q310 34 291 21T253 7Q251 7 242 7T230 9Q197
17 186 30T174 77Q174 89 176 101T180 124Q170 119 159 99T141 68Q135 58 127 47T110 28Q100 18 97 11T77 -4Q70 -7 65 -10T51 -14Z" />
<glyph unicode="x" glyph-name="x" horiz-adv-x="285" d="M-27 -145L-29 -142V-139Q-32 -130 -32 -126Q-34 -99 -22 -69T11 -8T52 46T87 87T101 106Q101 112 93 128T76 159T60 174Q53 174 48 168T40 156L33 147Q30 144 27 144Q23 144 22 150T21 158Q25 161 29
167T37 177Q45 188 55 202T80 217Q95 217 104 206T119 181T131 155Q133 150 135 146T139 139Q145 146 160 161T191 189T211 207Q218 213 226 217T241 226Q249 225 263 220T278 207V206Q278 200 274 199T264 197Q257 196 248 190T233 177L225 174L217 164Q208 160
201 156T187 143Q183 139 179 133T168 125Q167 122 163 116L164 113L157 114Q150 114 152 109Q152 102 158 87T175 55T195 26T215 14Q224 14 236 29T258 61T267 85H272L276 84Q276 82 276 81T277 77Q277 72 276 69T273 59V53Q269 45 267 38T262 21Q262 18 259 13Q255
6 245 2T214 -3Q203 -3 192 0T172 7Q160 12 153 19Q152 20 148 24T144 32Q143 33 146 36H145Q141 36 137 41T131 51Q127 57 124 62T118 71Q115 69 108 62T93 48T84 39H82Q82 38 82 37T83 34Q77 30 71 24L65 19L63 17Q62 14 60 11T56 5L57 1Q55 -1 50 -4T40 -13Q29
-20 29 -24L21 -36Q16 -43 16 -49H14Q13 -51 12 -53T7 -56H6Q5 -66 -3 -82T-15 -110Q-16 -112 -16 -119V-128Q-16 -135 -17 -140T-27 -145Z" />
<glyph unicode="y" glyph-name="y" horiz-adv-x="347" d="M-58 -306Q-83 -306 -93 -290T-103 -254Q-103 -234 -96 -215T-79 -180Q-71 -166 -63 -151T-44 -123Q-20 -90 18 -55T91 4Q108 15 132 27T176 48T195 57Q204 60 213 66Q223 71 228 71Q229 72 230 73T232
75Q239 83 241 99T247 125Q249 130 250 132T252 141V147Q252 152 253 156T255 164Q256 167 256 177Q249 175 245 169T235 158Q226 150 219 140T202 122Q188 109 164 86T114 45T68 27Q55 27 39 37T17 57V59Q17 62 16 65T15 72Q15 91 24 114T45 157T67 186L70 190Q74
195 77 199T85 207Q93 216 101 222T121 228Q125 228 138 223T163 213T175 203Q176 199 171 199H168L166 200Q165 200 164 200T161 201Q151 201 134 185T98 144T68 97T56 62Q56 57 60 57Q70 57 81 64T101 76H103Q148 109 183 141Q202 158 221 175T259 211L265 217L271
224Q277 231 285 237Q294 235 311 231T330 213Q330 208 329 204T326 194Q325 184 323 174T319 154Q318 148 316 142T311 130Q309 123 309 115T305 99Q304 96 300 89T296 78Q296 77 300 77Q303 77 305 77T309 78Q333 78 352 62Q354 61 354 61T356 60V58Q356 53 350
50T342 54Q341 57 337 57T330 58Q320 58 303 52T286 33Q281 30 272 16T261 -3Q260 -7 260 -11T256 -19Q252 -23 250 -27T247 -39Q241 -41 234 -50T228 -65L225 -66L227 -70Q219 -73 219 -78Q213 -80 210 -88T200 -100V-104L192 -108L193 -111Q189 -114 186 -117T179
-125Q175 -129 173 -132T168 -137V-141Q165 -142 165 -146Q160 -147 156 -151L151 -156L152 -158Q149 -160 147 -162T143 -168H140Q137 -174 131 -180T119 -192L102 -213Q94 -220 85 -226T67 -240Q64 -242 62 -245T56 -251Q52 -255 46 -258T34 -267Q18 -278 -8
-292T-58 -306ZM-33 -275Q-28 -273 -18 -269T0 -259T9 -251Q22 -243 32 -233T53 -212Q64 -202 75 -192T95 -171Q101 -163 106 -155T118 -140Q126 -129 135 -119T153 -97Q162 -86 169 -73T185 -48Q190 -40 196 -31T207 -13Q209 -10 210 -7T214 1Q218 8 225 22T233
44Q221 38 205 32Q197 28 190 25T182 19Q177 18 159 9T122 -10T99 -25Q80 -39 63 -55T28 -87Q24 -91 21 -95T15 -104Q14 -106 13 -107T10 -111Q8 -113 2 -122T-9 -140T-15 -152Q-24 -161 -36 -182T-53 -216L-60 -232Q-63 -236 -63 -246T-64 -262Q-63 -271 -57 -273T-33
-275Z" />
<glyph unicode="z" glyph-name="z" horiz-adv-x="295" d="M-12 -278Q-18 -278 -24 -274T-34 -264Q-35 -253 -31 -244T-23 -225L-21 -222Q-22 -218 -20 -217T-18 -215L-17 -216Q-15 -212 -13 -208T-8 -202V-200L3 -185Q4 -185 4 -185T5 -184Q8 -178 16 -167T34
-147T47 -137Q47 -137 47 -137T47 -136Q47 -133 50 -132T55 -130L57 -125Q61 -120 75 -107T96 -91V-87Q101 -85 105 -81T114 -73Q119 -69 123 -66T130 -62Q133 -59 137 -57T144 -52Q148 -49 151 -47T155 -43Q157 -42 161 -39T173 -32Q180 -28 186 -25T194 -20Q202
-15 211 -14T228 -7Q234 -2 241 17T249 51Q249 65 240 65Q222 65 198 55T151 31T112 7Q104 2 95 -6T76 -14Q66 -14 55 -1T42 20Q42 24 53 36T78 63T106 91T123 107L138 120Q144 125 153 135T169 147Q171 149 173 152T180 158Q188 165 202 177T218 198Q216 199 213
199Q182 199 157 192T106 169Q99 165 93 162T80 153L87 150Q75 137 69 133L53 123Q46 119 38 114T19 109Q7 109 4 111Q0 114 0 117Q0 122 7 127L15 134Q41 157 69 177T129 210Q136 213 141 216T154 220Q166 227 177 227Q183 227 189 224T201 220Q208 220 222 213T250
197T264 180Q264 173 260 165T250 152H247Q236 145 232 141L219 130Q213 126 204 122T186 113Q183 112 181 111T177 108Q158 94 139 82T103 54L102 52Q92 47 87 39Q92 42 103 47T124 56T138 61Q145 65 163 71T190 78Q196 81 209 82T228 84Q241 84 257 79T285 65T297
41Q297 29 292 20T287 -1H286L291 -2Q298 -3 307 -4T322 -8Q325 -10 326 -17T321 -21Q315 -18 307 -18Q294 -18 282 -23T267 -34Q265 -40 252 -56T224 -88T204 -109Q201 -112 199 -112T194 -117L193 -120Q192 -125 187 -130T178 -139Q167 -150 156 -161T133 -184L123
-190Q118 -193 113 -198T103 -208H100Q95 -213 91 -218T79 -227L74 -231Q68 -235 66 -237Q60 -244 46 -254T15 -271T-12 -278ZM10 -242Q12 -242 16 -239T25 -232H20Q37 -223 51 -210T79 -184Q111 -155 145 -119T200 -48Q201 -46 203 -44T207 -38Q197 -42 191 -46T176
-59Q176 -59 176 -59T175 -60L173 -61Q173 -61 173 -61T172 -64Q167 -64 166 -67L164 -66V-68Q161 -69 159 -68Q154 -68 154 -72L155 -73Q147 -75 147 -80Q139 -82 138 -87Q134 -88 130 -91T125 -99L119 -98L117 -101Q116 -104 114 -107T109 -113L106 -114L108
-117H104Q101 -120 97 -120Q95 -123 90 -127T82 -132Q79 -139 73 -145T62 -157Q56 -165 43 -181T20 -215T9 -240Q9 -242 10 -242Z" />
<glyph unicode="{" glyph-name="braceleft" horiz-adv-x="248" d="M79 -75Q61 -75 41 -71T9 -54T0 -15Q6 20 21 53T42 122Q43 126 43 133Q43 156 27 163T-14 170L-3 186Q36 190 56 203T91 260Q97 278 101 295T112 331Q129 381 166 400T247 420Q255 420 255 411L245
406Q213 406 195 393T168 358T150 309Q146 296 142 283T132 256Q121 231 95 208T42 175Q58 168 71 153T81 117Q76 82 62 49T41 -19Q40 -22 40 -25T40 -31Q40 -48 50 -53Q53 -54 57 -55T66 -57Q71 -58 76 -58T87 -61L94 -69Q85 -75 79 -75Z" />
<glyph unicode="|" glyph-name="bar" horiz-adv-x="168" d="M112 -145Q105 -145 98 -139T88 -129Q76 -111 71 -82T65 -22T63 30Q61 60 61 90T60 151Q59 158 59 181T59 236Q59 270 59 309T61 382T65 440T71 466Q74 468 83 472T100 476Q108 476 112 470Q114 467
114 463T115 456Q114 434 113 413T109 372Q108 359 107 347T105 321L102 261Q99 201 96 141T94 21Q94 13 94 2T93 -21Q93 -47 95 -74T107 -115Q110 -120 113 -121T118 -122Q123 -122 124 -124Q125 -125 125 -128Q125 -132 123 -136T118 -143Q114 -145 112 -145Z"
/>
<glyph unicode="}" glyph-name="braceright" horiz-adv-x="293" d="M13 -75Q6 -75 4 -65L14 -61Q47 -61 65 -48T92 -12T110 37Q114 50 118 63T128 89Q139 115 165 138T217 170Q202 178 189 193T179 228Q184 263 198 296T218 364Q219 368 219 371T219 378Q219 387
217 391T210 398Q206 400 203 401T194 403Q190 404 184 404T172 406L166 415Q176 420 181 420Q199 420 218 416T250 400T259 361Q254 325 239 292T218 224Q217 220 217 213Q217 191 233 184T274 176L263 160Q224 156 204 142T169 86Q163 68 159 50T148 15Q130 -35
94 -55T13 -75Z" />
<glyph unicode="~" glyph-name="asciitilde" horiz-adv-x="366" d="M-7 364Q-8 367 -10 371T-12 380Q-14 407 9 425T59 443Q79 443 99 442T138 434L144 437Q158 431 172 430L176 428H198Q210 423 222 422T247 420Q272 420 288 426T307 467Q315 438 315 430Q317
401 306 389T269 364Q253 366 238 370T207 379Q201 378 194 378T180 375L174 382L181 390L170 397H159V401L152 399L138 404L145 409L142 410Q137 409 132 408T121 405Q104 412 86 412Q67 412 46 406T9 391Q8 389 7 386T4 379Q3 376 1 372T-7 364Z" />
<glyph unicode="&#xa0;" glyph-name="uni00A0" horiz-adv-x="182" />
<glyph unicode="&#xa1;" glyph-name="exclamdown" horiz-adv-x="184" d="M142 150V150Q130 150 124 157L122 158Q121 161 117 162Q117 166 117 168T116 173Q116 179 116 181T113 188Q111 191 109 195Q109 197 115 205T122 218H127Q135 218 141 209T152 188T156
170V166Q156 159 153 156T144 151V150Q143 150 142 150V150ZM-82 -228Q-100 -228 -97 -216Q-97 -214 -88 -204T-69 -183T-55 -168Q-38 -145 -15 -113T33 -46T75 24T98 87Q83 82 77 76T60 59L57 58Q54 57 54 59T54 63L56 67Q58 73 66 83T79 100Q84 104 88 108T97
113Q102 114 105 115T113 115Q126 109 129 104T131 82Q127 58 117 34T92 -15Q79 -39 64 -62T34 -109Q32 -113 32 -114V-118Q32 -128 22 -144T-2 -176T-30 -206T-49 -225Q-54 -226 -62 -227T-78 -228H-82Z" />
<glyph unicode="&#xa2;" glyph-name="cent" horiz-adv-x="227" d="M31 -33Q21 -33 19 -24Q18 -10 23 14T36 62T53 98Q43 106 38 117T33 140Q33 160 48 183T86 222T130 238Q133 244 141 260T160 293T178 324T189 340Q191 342 193 343T200 344Q203 344 206 343T210
336Q211 334 202 319T181 285L160 251Q151 238 148 230Q151 227 151 220Q151 214 144 199T128 183Q123 183 123 189V191Q123 195 124 198T126 205Q125 215 111 215Q96 215 85 203T67 175T60 146Q60 130 69 119T96 108Q115 108 130 117T158 138Q164 144 169 149T178
159Q187 170 193 171L197 166Q197 160 184 146T156 120T135 103Q113 89 86 89H74Q57 64 49 33T34 -29L31 -33Z" />
<glyph unicode="&#xa3;" glyph-name="sterling" horiz-adv-x="518" d="M426 -59Q396 -59 357 -49T278 -24T210 4Q193 -6 164 -14T113 -22Q90 -22 65 -11T22 18T4 61Q4 72 12 76T30 81Q52 81 82 71T142 47T193 23Q217 54 231 89T256 162H153Q144 162 144 169Q144
174 148 178T159 183H263Q271 212 285 246T318 312T357 367Q369 381 386 389T424 398Q451 398 466 377T481 334Q481 308 464 288T423 256Q422 255 420 254T415 253Q409 253 409 259V260Q409 262 411 265T417 272Q421 275 426 279T435 288Q444 297 450 309T457 339Q457
348 454 358T437 368Q431 368 428 367Q404 359 385 338T352 290T328 234T309 184H434Q436 184 439 183T442 177V176Q442 168 436 166T423 163H301Q293 141 282 113T258 58T228 16Q249 6 278 -3T338 -17T391 -22Q408 -22 431 -19T472 -6T490 22Q490 37 479 44T466
58Q466 64 471 64Q482 64 495 48T509 20Q512 -14 488 -36T426 -59ZM110 -5Q123 -5 141 0T171 12Q157 20 131 30T79 47T39 55Q32 55 32 49Q32 42 43 29T72 6T110 -5Z" />
<glyph unicode="&#xa4;" glyph-name="currency" horiz-adv-x="461" d="M81 146Q75 146 69 153T69 165L107 198Q100 210 100 223Q100 256 116 288T157 348L99 405Q97 407 97 411Q97 419 104 424T118 424L176 366Q202 388 231 401T291 414Q320 414 338 396L374 427Q377
430 381 430Q386 430 389 426T393 417Q393 412 390 409L353 377Q361 359 361 339Q361 311 347 283T309 232L370 171Q372 169 372 167Q372 160 364 155T352 153L289 216Q264 196 233 184T169 171Q145 171 125 181L85 147Q84 146 81 146ZM196 210Q229 210 254 228T295
272T310 322Q310 348 299 362T264 377Q239 377 214 356T174 302T160 240Q160 227 170 219T196 210Z" />
<glyph unicode="&#xa5;" glyph-name="yen" horiz-adv-x="420" d="M130 -21Q122 -21 122 -14Q122 -9 124 1T128 20Q129 23 129 25T130 30Q132 44 135 57T140 84Q103 84 75 88T47 100Q47 106 53 111T67 116H147L153 145Q154 147 154 149T155 155Q159 166 160 176Q120
176 94 179T67 192Q67 198 73 203T87 208H153Q144 223 128 246T93 295T56 345T26 384T10 402Q1 407 1 415Q1 424 8 431T24 439Q35 439 52 421T90 375T132 314T173 252L193 222Q210 244 227 265T262 307L284 334L297 349Q310 363 323 378T350 406Q379 433 408 433Q412
433 415 433T419 428Q419 427 418 426T416 422L415 421Q398 412 378 394T340 354T307 317Q300 309 293 302T278 286Q274 282 271 279T263 270Q250 256 238 241T213 209H258Q280 208 302 209L306 205V204Q306 199 288 194T243 184T196 178L185 117H224Q238 117 253
117T282 118L286 114V112Q286 107 268 102T225 93T179 86L167 17Q167 16 167 15T166 12Q166 6 164 0Q162 -8 151 -14T130 -21Z" />
<glyph unicode="&#xa6;" glyph-name="brokenbar" horiz-adv-x="168" d="M82 220Q67 220 67 246Q66 262 65 278T63 310Q61 330 59 351T51 392Q49 403 45 413T39 434Q39 439 44 441T54 444Q70 444 77 433T88 407T92 380Q94 364 96 328T97 245Q95 220 82 220ZM43
-75Q42 -62 45 -46T50 -17Q53 0 56 16T61 42Q63 68 65 93T67 144Q67 154 71 158T80 163Q85 163 89 158T93 143Q91 96 87 53T77 -21T66 -61Q63 -65 58 -69T43 -75Z" />
<glyph unicode="&#xa7;" glyph-name="section" horiz-adv-x="343" d="M102 -113Q62 -113 23 -100T-42 -54L-39 -46Q-12 -58 7 -61T53 -65Q67 -65 91 -62T141 -53T183 -36T200 -9Q200 6 171 32Q150 51 123 74T69 122T26 177T9 237Q9 271 28 294T75 335Q79 364 101
386T154 424T217 450T275 467Q303 474 330 481T386 488Q391 488 396 487T407 484Q418 475 436 460T456 429Q457 422 444 410T411 385T373 364T347 355L336 354V363Q341 366 354 374T383 394T409 415T419 431Q413 435 407 436T394 437H384Q356 437 314 429T229 405T154
368T112 323Q110 317 108 310T106 295Q106 281 117 264T142 232T168 206L203 174Q238 142 269 109T302 45Q305 14 287 -9T237 -41Q239 -66 221 -82T176 -105T128 -113H102ZM231 -13Q245 2 256 28T266 75Q264 87 241 109Q230 120 216 132T185 158Q155 184 126 215T82
280Q66 267 53 250T41 210Q43 188 68 161T126 103Q142 88 158 73T189 43Q203 29 213 15T231 -13Z" />
<glyph unicode="&#xa8;" glyph-name="dieresis" horiz-adv-x="181" d="M122 290Q114 290 108 302T101 321Q101 328 106 335T119 346Q123 350 135 357T160 370T178 376H179Q181 376 181 375Q181 374 180 373Q179 372 177 370T172 363Q171 361 169 359T165 356Q163
352 161 346T156 332Q150 317 143 304T122 290ZM21 290Q13 290 7 302T0 321Q0 328 5 335T18 346Q22 350 34 357T59 370T77 376H78Q80 376 80 375Q80 374 79 373Q78 372 76 370T71 363Q70 361 68 359T64 356Q62 352 60 346T55 332Q49 317 42 304T21 290Z" />
<glyph unicode="&#xa9;" glyph-name="copyright" horiz-adv-x="491" d="M149 21Q90 21 49 50T8 140Q8 183 34 224T103 298T194 351T285 371Q320 371 354 357T413 318T440 256Q444 206 418 163T348 89T251 40T149 22V21ZM162 40Q205 40 246 56T320 99T374 163T394
239Q394 286 362 318T279 351Q238 351 198 333T124 284T71 216T51 141Q51 92 81 66T162 40ZM158 78Q136 78 113 89T88 126Q85 160 103 194T154 257T224 303T298 320Q321 320 331 309T341 285Q341 277 338 271T326 263L319 268Q320 271 321 275T322 283Q322 308
295 308Q265 308 238 291T188 247T152 189T134 131Q133 115 142 107T166 99Q194 99 224 111T276 136Q284 141 291 146T306 154L310 149Q311 134 293 121T247 99T195 84T158 78Z" />
<glyph unicode="&#xaa;" glyph-name="ordfeminine" horiz-adv-x="238" d="M50 218Q37 218 24 230T10 256V261Q10 277 15 284V285L23 299L28 308Q30 311 39 321T58 341T74 353Q79 359 90 367T114 382T131 391Q136 395 154 401Q162 404 169 404Q171 405 176 405Q179
405 181 404H191Q200 403 211 395T221 374L218 372L212 364L206 370Q203 375 197 377T182 379Q159 379 132 364T81 325T47 281L45 273Q42 266 40 261T38 248Q38 243 40 240H44L49 243L53 244Q55 246 56 246Q58 247 60 249L62 250Q66 252 68 253T72 256L75 259Q81
268 91 276Q105 288 114 299Q119 305 127 313T142 326L147 334Q150 334 152 339Q153 340 155 344Q160 350 165 356T177 363H180Q188 363 193 357T199 343Q199 335 195 329Q195 327 194 327V326Q193 323 192 321T190 316Q187 303 186 292T184 266Q184 254 193 244Q199
247 202 250T208 258Q210 260 211 261T213 265L215 268H216L220 270Q228 270 228 262Q228 259 227 257V254L226 253V251Q225 250 225 250Q224 242 221 233T202 224Q183 224 172 237Q159 249 157 265T154 296V303Q152 301 149 298L148 297Q147 294 144 293Q138 287
136 284L133 283L129 277L128 276L125 271Q125 272 125 272T124 272Q124 272 117 267L115 264Q112 260 107 257Q104 250 97 245L95 242H94Q92 242 85 234Q83 232 82 230L75 227Q75 227 75 227T72 225Q70 225 68 223Q64 222 60 220T50 218ZM219 373V372Q219 373
219 373ZM218 372Q218 372 217 372Q218 372 218 372V372Z" />
<glyph unicode="&#xab;" glyph-name="guillemotleft" horiz-adv-x="286" d="M247 260L239 262Q218 286 192 304T140 340Q136 341 136 346Q136 351 146 369T171 408T199 448T217 472Q220 475 223 477T233 480Q240 480 241 473Q241 470 232 455T211 422T189 387T175
365Q180 360 193 347T220 318T245 289T256 271V268Q256 257 247 260ZM159 260L151 262Q130 286 104 304T52 340Q48 341 48 346Q48 351 58 369T83 408T111 448T129 472Q132 475 135 477T145 480Q152 480 153 473Q153 470 144 455T123 422T101 387T87 365Q92 360
105 347T132 318T157 289T168 271V268Q168 257 159 260Z" />
<glyph unicode="&#xac;" glyph-name="logicalnot" horiz-adv-x="367" d="M21 163Q18 163 17 167T15 177Q15 189 21 189H314Q320 190 326 190Q334 190 342 189T352 185Q331 158 311 126T278 64T264 9Q276 11 289 23T310 45H311V44Q311 40 307 33T301 22Q297 15
289 3T270 -10Q267 -10 265 -8T259 -5Q246 1 242 5T238 19Q238 31 246 56T265 110T290 163H21Z" />
<glyph unicode="&#xad;" glyph-name="uni00AD" horiz-adv-x="207" d="M45 109Q42 109 37 119T30 134Q45 139 63 140T98 141Q102 141 117 139T147 134T168 125Q168 121 165 121Q143 121 125 119T95 114Q83 113 72 111T45 109Z" />
<glyph unicode="&#xae;" glyph-name="registered" horiz-adv-x="491" d="M165 18Q130 18 98 31T44 70T19 130Q15 171 34 208T82 274Q72 270 63 265T44 253Q42 252 40 250T33 248Q29 248 26 252T22 260Q22 269 34 277T63 292T97 303T123 309Q156 333 198 352T285
371Q322 371 354 356T407 312T428 246Q428 210 410 176T365 113T307 66Q313 61 321 56T337 50Q347 50 348 56T350 70Q350 73 350 75T353 82Q362 79 362 67Q362 57 354 46T329 35Q319 35 308 42T289 54Q262 39 230 29T165 18ZM291 78Q317 96 340 122T379 178T394
241Q394 288 362 319T279 351Q251 351 224 342T173 318Q188 320 203 321T233 322Q247 322 272 320T324 312T368 292T386 258Q386 234 366 217T316 189T255 174T202 170Q223 146 245 123T291 78ZM175 37Q201 37 226 45T272 66Q242 92 214 120T161 179Q154 168 146
150T133 114T128 84Q128 80 134 74Q134 68 130 68Q122 68 119 80T114 99Q112 124 121 151T143 201Q141 203 137 208T133 216V217Q133 222 138 224T148 227Q155 227 157 224Q171 246 192 268T238 303H242Q256 303 257 290Q236 269 215 248T175 202L190 184Q195 183
199 183T207 183Q223 183 249 189T303 206T349 232T368 265Q368 279 355 287T321 298T283 303T253 304V305Q223 305 194 302T135 291Q101 262 74 219T51 130Q53 102 71 81T118 49T175 37Z" />
<glyph unicode="&#xaf;" glyph-name="overscore" horiz-adv-x="178" d="M15 290Q12 290 7 300T0 315Q10 318 28 319T64 321T94 322Q105 322 123 320T157 315T178 306Q178 302 175 302Q153 302 133 300T91 295Q79 294 58 292T15 290Z" />
<glyph unicode="&#xb0;" glyph-name="degree" horiz-adv-x="217" d="M97 222Q68 222 46 242T24 291Q24 316 42 333T87 350Q117 350 139 330T161 281Q161 256 143 240T97 223V222ZM96 243Q115 243 127 255T139 283Q139 301 124 315T88 329Q70 329 58 318T45 289Q45
271 60 257T96 243Z" />
<glyph unicode="&#xb1;" glyph-name="plusminus" horiz-adv-x="336" d="M169 94Q166 94 164 98Q164 101 162 101Q155 119 153 150T149 201Q124 201 98 200T46 198Q39 198 34 204T26 216L32 221Q61 224 90 224T147 225Q144 248 141 271T135 319V320Q135 325 141
329T153 335L159 329Q166 304 168 278T172 224Q180 224 197 224T232 223Q252 223 269 222T290 219Q291 219 291 218H293Q296 217 296 213L295 208L287 203H173Q174 192 175 165T177 117Q177 111 177 107T176 100Q174 94 169 94ZM99 43Q94 43 87 50T79 62L80 66Q93
69 118 70T157 71Q165 71 184 70T221 67T243 59V57Q243 51 237 51V52Q202 52 168 48T99 43Z" />
<glyph unicode="&#xb2;" glyph-name="uni00B2" horiz-adv-x="382" d="M21 257Q13 257 8 269T2 289Q1 296 13 308T43 336Q62 353 86 372T135 412Q170 439 201 465T255 513T281 546Q283 550 283 553Q276 556 267 557T249 558Q239 558 231 557T215 554L183 544Q179
543 175 542T165 540Q156 537 147 531T128 523Q122 519 115 512H123Q122 509 113 502T94 488T81 480Q79 479 76 479T71 478Q65 478 58 489T49 505Q57 510 64 515T79 524Q80 525 81 525H82Q86 528 99 534T116 542Q120 546 133 551T161 562T183 569L191 571Q194 571
194 571V572L222 576H232L234 577Q242 577 245 578Q258 576 274 573T302 560T314 532Q314 515 304 501T281 477L259 461Q244 451 229 440T198 418Q188 411 177 404T155 388Q146 382 129 375T107 360Q105 358 99 354T87 344Q73 334 68 331Q66 326 58 321T45 311L43
310L47 311Q56 315 69 320T91 325Q96 328 102 331T116 334Q118 336 121 336T126 338L131 340Q133 340 135 342L136 344L144 342L155 348L156 347Q160 348 170 352T182 361L188 360Q190 361 191 362T196 364V363Q199 364 202 364T208 364L213 367H217L227 369L228
368V369Q236 376 252 377T279 380Q298 380 310 368T324 343V341Q324 336 319 333H315Q312 344 301 347Q296 349 290 349T279 350Q273 347 255 345T230 342Q226 340 223 339T214 339L209 336H207Q188 331 172 323T135 309Q127 307 116 302T91 291Q78 285 66 280T46
269Q39 266 34 262T21 257Z" />
<glyph unicode="&#xb3;" glyph-name="uni00B3" horiz-adv-x="264" d="M14 256Q9 256 1 259T-10 268Q-14 269 -14 275Q-14 283 -9 285V286H-4V278Q-4 269 4 269Q12 269 18 272H21Q31 276 41 280T60 290Q64 294 81 304Q95 314 104 318Q107 323 113 327T124 335Q134
344 147 356T171 384T181 413Q181 440 151 440Q132 440 109 430T68 412Q64 410 61 406T52 402Q50 402 46 404T39 411H38Q38 416 37 421T35 430Q44 437 56 442T80 453Q93 459 105 464T128 476H129Q135 482 142 482V484Q153 491 168 503T183 527Q183 536 173 538T153
540Q138 540 117 536T81 525T73 505Q75 502 75 498H71Q62 503 57 518T50 542L52 544H55Q57 545 59 545Q61 545 61 547H65Q66 548 68 548Q69 549 70 549L74 551H76Q84 555 90 555T103 558Q105 559 106 559H107Q112 559 117 559T127 561L136 562H151Q156 562 167
560T183 556Q194 552 202 544T211 523Q211 507 199 495T172 475T145 460L137 457H138Q146 457 153 456T167 453Q170 452 171 450T177 448L181 445Q189 439 197 426T206 405Q207 401 208 396T208 385Q204 363 183 342T144 308Q119 289 84 273T14 256ZM131 453V454H130Q131
454 131 454T131 453Z" />
<glyph unicode="&#xb4;" glyph-name="acute" horiz-adv-x="118" d="M6 287Q2 285 1 288T0 292Q2 297 4 299T12 305Q15 308 20 312T29 321Q42 334 55 349T76 374Q86 387 97 387Q105 387 113 381T122 368Q122 361 94 341L88 337Q84 336 79 331Q78 330 76 329T72
326Q40 304 26 296T6 287Z" />
<glyph unicode="&#xb5;" glyph-name="uni00B5" horiz-adv-x="288" d="M-126 -187Q-135 -187 -134 -178Q-134 -177 -126 -166T-109 -143T-98 -127Q-81 -98 -61 -53T-19 43T21 136T49 201L52 204Q59 212 63 216T77 228Q82 227 93 225T116 218T127 206Q128 200 120
188T102 163T88 144Q81 133 77 125T70 110L56 74Q52 64 50 56T46 37Q46 36 46 34T45 29Q45 25 46 21T52 17Q56 17 63 23Q84 39 98 55Q106 63 113 71T129 89Q151 113 173 136T216 184Q221 190 227 199T240 209H241Q247 209 263 204T279 192V188Q279 179 274 172Q271
168 269 165T265 157Q264 151 262 147T257 137Q248 122 240 95T233 51Q233 46 234 35T240 21Q250 22 256 34T268 53Q273 60 280 60Q281 57 281 52Q281 48 279 44T275 35Q273 29 272 24T266 13Q260 2 244 2Q221 2 203 15T182 46Q181 65 186 89T199 130Q199 131 199
132T200 134Q194 128 189 121T176 110L167 102Q157 83 142 68T113 37Q100 21 84 5T44 -11Q26 -11 15 2Q10 -13 -1 -39T-27 -95T-54 -147T-75 -178Q-79 -179 -95 -182T-119 -186Q-121 -187 -126 -187Z" />
<glyph unicode="&#xb6;" glyph-name="paragraph" horiz-adv-x="422" d="M-17 -128Q-21 -128 -26 -126T-33 -119Q-29 -112 -22 -112Q9 -112 34 -88T81 -26T118 55T146 136T165 199Q139 201 110 209T61 236T41 287Q41 319 60 345T111 390T177 419T243 429Q263 429
283 430T325 432Q333 432 340 432T355 430Q366 442 383 450T419 458Q426 458 433 457T447 447Q444 444 442 444T438 442Q431 441 424 440T411 435Q387 420 366 384T326 298T288 196Q274 156 260 118T232 48Q218 17 203 -7T170 -42Q164 -45 161 -45Q159 -45 156
-43T153 -39Q156 -32 161 -28L163 -25Q179 -10 194 22T222 90T241 147Q254 191 266 239T297 333T343 415H341Q316 415 294 390T251 326T215 243T187 163T169 106Q163 87 151 58T121 -4T81 -64T35 -110T-17 -128Z" />
<glyph unicode="&#xb7;" glyph-name="middot" horiz-adv-x="239" d="M111 156Q105 156 94 163T83 176Q82 179 92 189T113 210T129 223Q146 220 146 205Q146 190 131 173T111 156Z" />
<glyph unicode="&#xb8;" glyph-name="cedilla" horiz-adv-x="120" d="M56 -142Q47 -142 39 -141T22 -138Q15 -136 15 -130Q15 -121 20 -121Q25 -121 32 -122T47 -123Q61 -123 71 -118T81 -97Q81 -85 76 -78T64 -63T58 -44Q58 -23 74 -11T113 1Q119 1 120 -1L119
-3Q105 -6 95 -15T84 -39Q84 -50 94 -56T113 -70T123 -96Q123 -122 103 -132T56 -142Z" />
<glyph unicode="&#xb9;" glyph-name="uni00B9" horiz-adv-x="213" d="M21 227Q3 227 -3 238T-9 265Q-9 275 -7 284T-4 301L8 343Q10 350 14 360T22 377V380Q22 385 25 389T29 398L33 404L32 407Q34 410 37 418T41 431Q46 446 49 452Q49 454 52 461T60 479L70 500L68
499Q62 498 56 492T45 485Q45 485 41 485T37 488Q37 491 44 495Q53 503 59 510T71 525Q81 540 92 551L102 556Q104 556 105 557V558Q110 558 120 556T139 551T148 539Q148 530 141 520T129 502Q122 489 114 476T96 450H93Q90 438 86 431Q73 409 60 388T35 343Q34
341 33 340T31 336Q29 328 28 320T22 304Q24 291 19 280T14 257Q14 247 16 244T19 239Q21 238 25 238T30 239L32 238Q34 237 34 233L33 228Q28 227 21 227Z" />
<glyph unicode="&#xba;" glyph-name="ordmasculine" horiz-adv-x="217" d="M50 210Q43 210 39 211T30 214Q24 220 20 220Q20 221 17 224L15 226Q8 231 6 237T4 254Q4 266 9 275T19 296Q21 300 21 303T21 310Q23 315 25 319T31 328Q47 356 69 373T123 402Q127 404
135 405T148 406Q153 406 158 405T168 401Q170 401 171 401T176 400L174 398Q181 395 185 391T193 381L199 375Q202 373 203 368T204 361Q204 359 204 358T205 354Q205 346 203 339T197 326Q193 319 188 312T178 297Q173 290 168 283T157 270Q155 268 145 258T133
245Q129 244 122 239L118 235Q105 223 86 217T50 210ZM53 223Q54 224 54 224T55 224L72 229Q75 231 83 236T100 248T107 257Q112 259 119 268T133 288T142 303Q144 306 145 309T149 315Q149 318 151 321T153 326Q155 330 155 335L157 343Q157 347 159 348V350Q159
353 159 356T160 364Q160 365 160 366T161 368Q161 370 161 372T160 377Q160 392 147 392Q130 392 117 383T90 363Q86 359 82 356T74 347L72 345Q73 346 75 346T78 348Q83 353 94 353Q98 353 108 347T118 335V331Q113 334 113 334L110 336Q109 336 108 336T104
337Q92 337 80 327T60 306Q55 300 51 295T48 281Q52 279 52 273H48Q44 273 41 276Q39 274 38 269T35 260L34 258Q34 256 34 254T33 250Q33 223 53 223Z" />
<glyph unicode="&#xbb;" glyph-name="guillemotright" horiz-adv-x="279" d="M308 8Q302 8 301 15Q301 18 309 32T329 65T352 100T367 123Q362 128 350 141T323 170T297 199T286 217V220Q286 230 295 230L303 226Q324 201 350 184T402 148Q406 147 406 142Q406
138 396 121T371 81T343 41T325 16Q321 13 318 11T308 8ZM131 8Q125 8 124 15Q124 18 132 32T152 65T175 100T190 123Q185 128 173 141T146 170T120 199T109 217V220Q109 230 118 230L126 226Q147 201 173 184T225 148Q229 147 229 142Q229 138 219 121T194 81T166
41T148 16Q144 13 141 11T131 8Z" />
<glyph unicode="&#xbc;" glyph-name="onequarter" horiz-adv-x="441" d="M21 227Q3 227 -3 238T-9 265Q-9 275 -7 284T-4 301L8 343Q10 350 14 360T22 377V380Q22 385 25 389T29 398L33 404L32 407Q34 410 37 418T41 431Q46 446 49 452Q49 454 52 461T60 479L70
500L68 499Q62 498 56 492T45 485Q45 485 41 485T37 488Q37 491 44 495Q53 503 59 510T71 525Q81 540 92 551L102 556Q104 556 105 557V558Q110 558 120 556T139 551T148 539Q148 530 141 520T129 502Q122 489 114 476T96 450H93Q90 438 86 431Q73 409 60 388T35
343Q34 341 33 340T31 336Q29 328 28 320T22 304Q24 291 19 280T14 257Q14 247 16 244T19 239Q21 238 25 238T30 239L32 238Q34 237 34 233L33 228Q28 227 21 227ZM29 60Q22 60 18 69T12 84Q11 103 20 126T43 173T64 211Q76 233 89 255T116 299Q120 305 134 329T169
385T210 447T246 498T266 519Q272 519 286 515T301 503Q301 494 296 491Q280 466 263 443T228 397Q191 346 155 295T83 189Q76 179 64 160T43 122T33 88Q33 78 37 77T42 71V70Q42 66 37 63T29 60ZM294 -5Q292 -5 289 -4T283 -2Q270 3 265 16T260 44Q260 58 262
71T267 93L266 94L276 123Q278 130 279 135T282 144Q273 143 265 139T248 131Q242 129 236 127T223 122Q218 120 210 115T196 109Q196 109 187 106T174 99Q170 96 167 94T159 92Q148 92 138 103T128 124Q128 133 136 141T152 155H153V156L156 157V158Q158 159 160
159H161L162 160Q166 165 181 176T201 189Q207 197 218 203Q221 207 235 216T254 230L255 233L257 231Q260 236 268 242T280 250L281 252Q284 255 287 257T295 262Q303 268 311 274T327 287Q331 289 334 292T341 297H343Q347 297 350 294T356 290Q361 290 361 294Q362
298 368 307T382 327T393 341Q401 340 416 334T433 320Q433 317 432 315Q428 310 424 306T414 296Q409 292 404 287T394 276Q390 271 376 251T348 210T329 179Q334 180 337 180T345 182Q346 181 346 180T346 179V183Q354 183 362 184T377 186Q393 186 393 178Q393
172 380 171Q375 171 373 170Q371 170 371 168L372 165H349Q343 158 339 159T328 157Q322 154 319 155Q311 142 306 131T297 106V103Q297 99 295 92T290 80Q287 72 285 61T283 39Q284 35 284 25T287 12Q289 9 295 8T302 1Q302 -1 299 -3T294 -5ZM156 124Q170 126
184 133T212 145Q216 147 219 148T227 149Q235 154 248 158T272 164Q280 168 286 176L290 182Q290 182 292 186L294 191Q295 195 299 199Q300 203 302 206T303 213L307 216Q307 218 308 218Q311 226 315 230Q318 235 317 239Q320 241 322 245T326 254Q315 246 307
241T285 227Q274 220 263 211T240 195L238 193L234 192V192Q231 183 218 178T204 165Q192 155 180 146T156 124ZM205 186Q204 187 203 187Q203 186 202 185Q203 186 205 186ZM153 154V154V154V154Z" />
<glyph unicode="&#xbd;" glyph-name="onehalf" horiz-adv-x="441" d="M21 227Q3 227 -3 238T-9 265Q-9 275 -7 284T-4 301L8 343Q10 350 14 360T22 377V380Q22 385 25 389T29 398L33 404L32 407Q34 410 37 418T41 431Q46 446 49 452Q49 454 52 461T60 479L70 500L68
499Q62 498 56 492T45 485Q45 485 41 485T37 488Q37 491 44 495Q53 503 59 510T71 525Q81 540 92 551L102 556Q104 556 105 557V558Q110 558 120 556T139 551T148 539Q148 530 141 520T129 502Q122 489 114 476T96 450H93Q90 438 86 431Q73 409 60 388T35 343Q34
341 33 340T31 336Q29 328 28 320T22 304Q24 291 19 280T14 257Q14 247 16 244T19 239Q21 238 25 238T30 239L32 238Q34 237 34 233L33 228Q28 227 21 227ZM29 60Q22 60 18 69T12 84Q11 103 20 126T43 173T64 211Q76 233 89 255T116 299Q120 305 134 329T169 385T210
447T246 498T266 519Q272 519 286 515T301 503Q301 494 296 491Q280 466 263 443T228 397Q191 346 155 295T83 189Q76 179 64 160T43 122T33 88Q33 78 37 77T42 71V70Q42 66 37 63T29 60ZM127 -3Q119 -3 114 9T108 29Q107 36 119 48T149 76Q168 92 192 111T241
151Q276 179 307 205T361 252T387 286Q389 290 389 292Q382 296 373 296T356 297Q334 297 321 293Q314 292 307 289T289 284Q285 283 281 282T272 279Q262 277 253 271T234 263Q233 262 228 258T221 251H229Q229 249 220 242T200 228T187 220Q183 217 177 217Q171
217 164 228T155 245Q163 250 170 255T185 264Q186 264 186 264T187 265H188Q192 268 205 274T222 282Q226 286 239 291T267 301T289 308L297 311Q298 311 299 311T301 311L300 312L328 316V315Q330 316 333 316T338 316L340 317Q343 317 346 317T352 318Q364 316
379 312T407 300T420 276Q422 257 411 243T387 217Q377 209 365 201Q350 191 335 180T304 158Q294 151 283 144T261 128Q252 121 236 115T214 100L193 84Q179 74 174 71Q172 66 164 61T151 51L150 50L153 51Q162 54 175 59T197 65Q202 68 208 71T222 74Q224 76
227 76T232 78L237 80Q239 80 240 80T242 81L243 83L251 82L261 88L262 87Q266 88 276 92T288 101L294 99Q296 100 297 101T302 103V102Q305 103 308 103T314 104L319 107H322L323 106L333 109L334 108V109Q342 116 360 117T388 119Q406 119 417 108T430 83V81Q430
75 425 72H422Q421 79 417 82T407 86Q402 88 396 88T385 90Q379 87 361 85T336 82Q330 78 320 78L315 75L313 76Q294 70 278 62T241 48Q233 47 222 42T197 31Q184 25 172 19T152 9Q146 6 141 2T127 -3Z" />
<glyph unicode="&#xbe;" glyph-name="threequarters" horiz-adv-x="520" d="M14 256Q9 256 1 259T-10 268Q-14 269 -14 275Q-14 283 -9 285V286H-4V278Q-4 269 4 269Q12 269 18 272H21Q31 276 41 280T60 290Q64 294 81 304Q95 314 104 318Q107 323 113 327T124
335Q134 344 147 356T171 384T181 413Q181 440 151 440Q132 440 109 430T68 412Q64 410 61 406T52 402Q50 402 46 404T39 411H38Q38 416 37 421T35 430Q44 437 56 442T80 453Q93 459 105 464T128 476H129Q135 482 142 482V484Q153 491 168 503T183 527Q183 536
173 538T153 540Q138 540 117 536T81 525T73 505Q75 502 75 498H71Q62 503 57 518T50 542L52 544H55Q57 545 59 545Q61 545 61 547H65Q66 548 68 548Q69 549 70 549L74 551H76Q84 555 90 555T103 558Q105 559 106 559H107Q112 559 117 559T127 561L136 562H151Q156
562 167 560T183 556Q194 552 202 544T211 523Q211 507 199 495T172 475T145 460L137 457H138Q146 457 153 456T167 453Q170 452 171 450T177 448L181 445Q189 439 197 426T206 405Q207 401 208 396T208 385Q204 363 183 342T144 308Q119 289 84 273T14 256ZM115
73Q107 73 103 82T97 97Q96 116 105 139T128 186T149 224Q161 247 174 268T201 312Q205 318 220 342T255 398T295 460T331 511T351 532Q357 532 371 528T386 516Q386 508 382 504Q366 480 348 457T313 410Q276 359 240 308T168 202Q162 192 150 174T129 135T119
101Q119 91 123 90T128 84Q128 80 123 77T115 73ZM131 453V454H130Q131 454 131 454T131 453ZM380 8Q377 8 374 9T369 11Q356 16 351 29T345 58Q345 71 347 84T352 106V107Q353 111 355 119T361 136Q363 143 364 148T367 157Q358 156 350 152T333 144Q327 142 321
140T308 135Q303 133 295 128T282 122Q281 122 273 119T259 112Q255 109 253 107T244 105Q234 105 224 115T213 136Q213 146 222 154T237 168H238V169L242 170V171Q243 172 246 172H247L248 173Q251 178 266 189T286 202V202Q292 211 304 216Q306 221 320 230T340
243V246L343 244Q346 249 353 255T366 263V265Q370 268 373 270T380 275Q388 281 396 287T412 300Q416 302 419 305T427 310H429Q433 310 436 307T442 303Q445 303 447 307Q448 311 454 320T467 340T478 354Q486 353 502 347T518 333Q519 332 519 331T518 328Q509
318 499 309Q494 305 489 300T479 289Q475 284 461 264T433 223T414 192Q419 193 422 193T431 195Q431 194 431 193T432 192V196Q440 196 447 197T463 199Q479 199 479 192Q479 187 466 184Q460 184 458 183Q457 183 457 181L458 178H435Q429 171 425 172T413 170Q409
167 404 168Q397 155 391 144T383 119V118Q383 113 381 106T376 93Q373 85 371 74T369 52Q369 48 369 38T373 25Q375 22 381 21T387 14V13Q387 8 380 8ZM242 138Q256 139 270 146T297 158Q302 160 305 161T312 162Q320 167 334 171T357 177Q365 181 371 189L375
195Q375 195 377 199L379 204Q381 207 382 209T384 212Q385 216 387 219T389 226L392 229Q392 231 394 231Q394 238 401 243Q402 245 402 247T403 252Q408 257 412 267Q401 259 393 254T371 240Q359 233 348 224T325 208L324 206L320 205H319Q316 196 304 191T290
178Q278 168 266 159T242 138ZM290 199Q289 200 288 201Q288 199 287 198Q288 199 290 199Z" />
<glyph unicode="&#xbf;" glyph-name="questiondown" horiz-adv-x="336" d="M303 176Q296 177 284 179T270 191Q270 195 272 198T277 203Q282 208 282 215Q282 220 280 223T273 228Q271 230 270 235Q274 236 276 236T281 237Q293 237 301 227T310 207V204Q310 197
308 191T303 176ZM54 -222L50 -219Q41 -219 32 -220T14 -221Q0 -221 -20 -214T-52 -199H-57V-198H-58Q-59 -190 -65 -183T-71 -169Q-71 -159 -67 -146T-57 -125Q-30 -94 2 -79T67 -43Q81 -35 93 -26T115 -6Q117 -3 122 -2T129 1Q136 7 142 12T156 23Q161 26 166
29T177 35Q183 39 188 42T197 48Q202 53 208 57T220 67Q227 75 236 89T244 115Q247 117 247 120T248 124Q247 128 244 130T238 134L232 137Q225 140 225 143Q225 147 234 150Q250 149 264 139T279 112Q279 91 261 70T230 37Q190 -1 150 -31T66 -96Q47 -112 27 -126T-10
-158Q-16 -164 -21 -171T-27 -185Q-27 -192 -15 -193T6 -195Q35 -195 71 -186T141 -162T200 -134Q202 -133 204 -132T209 -130Q212 -125 217 -123T227 -116Q232 -111 239 -104T251 -89L252 -87Q254 -83 255 -82Q255 -82 255 -82T253 -82L252 -80Q249 -75 249 -71Q249
-66 255 -64Q257 -64 263 -68L267 -71Q274 -71 284 -84T294 -102Q295 -113 281 -126T246 -151T210 -170T189 -179H190Q180 -184 169 -188T147 -196L125 -202V-203Q116 -204 108 -206T92 -210Q88 -213 80 -214T67 -216Q64 -217 61 -217T55 -218H54V-222Z" />
<glyph unicode="&#xc0;" glyph-name="Agrave" horiz-adv-x="678" d="M105 -36Q99 -36 93 -36T80 -34Q62 -31 48 -17T28 14Q27 20 27 26T26 39L25 47Q27 55 31 59Q29 62 29 66Q29 71 31 76T34 87Q42 96 47 106T52 128L55 130Q44 130 29 133T2 144T-12 166Q-12 176
-3 183T20 194T40 199Q49 202 61 202L62 196H61Q51 192 37 185T15 171Q7 165 11 163Q16 158 40 158L47 159L79 168Q84 170 91 179T102 193Q109 201 117 208T136 215Q136 213 136 211T134 207Q130 202 121 191T108 174L254 212Q266 215 279 216T304 222Q323 228
341 231T378 242Q386 245 393 259T408 280Q420 292 429 306T449 334Q458 346 469 359T490 386Q494 390 502 401T517 423T526 440L527 442Q527 445 529 447L544 466Q551 460 551 455Q551 451 545 443Q541 439 538 432T532 419Q525 407 518 396T503 372Q492 356 481
339T456 306Q455 305 454 303T451 299Q450 297 444 288T430 267T418 249Q450 253 482 259Q487 290 500 323T530 385T559 432Q560 433 560 436V442Q560 451 571 465T595 493T615 513Q623 510 640 505T661 491L667 475Q662 471 658 469T651 461L647 453L641 444L630
429Q616 411 614 406Q613 404 604 394T588 375T583 369L584 370Q580 359 574 350T561 329Q555 321 551 312T543 288L540 275Q551 275 562 276T584 277Q616 277 646 265T695 223Q699 218 699 211T698 198Q698 184 685 172T656 151T630 135V138H628V144Q637 150 648
164T667 192T675 216Q675 231 657 237T616 245T583 246Q574 246 560 246T538 242Q530 240 525 223T517 185T512 155Q511 145 509 140Q510 137 510 134T511 128Q512 118 512 108T513 86Q514 72 518 51T532 15T564 -2Q577 -2 589 6T605 24Q607 27 609 27T613 24Q613
23 613 23T614 21Q614 20 614 18T612 12Q609 1 594 -6T567 -13Q518 -13 493 15T461 79Q458 92 457 104T456 126Q456 140 457 151T461 173Q465 191 469 207T477 239Q471 238 455 233T422 220T397 207Q380 193 367 173T340 135Q337 131 331 124T319 108Q312 100 306
93T296 83Q294 81 291 79T286 75Q280 68 276 62T266 48L257 41Q246 32 235 23T212 6Q187 -13 161 -24T105 -36ZM94 -18Q100 -18 112 -13T136 0T154 10Q187 33 215 60T269 116Q280 128 292 139T314 163Q318 168 322 174T330 185Q332 187 334 189T338 193L347 200Q354
205 358 211Q350 210 329 204T281 191T226 175T177 160T149 149Q135 140 116 133Q107 129 99 125T84 116Q75 110 70 94T62 59T59 26Q59 7 66 -5T94 -18ZM704 552Q698 552 687 558T663 570Q652 576 639 583T623 590Q619 594 613 594L607 597Q588 606 581 610T574
619Q574 626 582 634T598 642Q607 642 617 633Q627 625 646 611T681 587Q687 582 691 579T700 573Q712 566 712 559Q712 552 704 552Z" />
<glyph unicode="&#xc1;" glyph-name="Aacute" horiz-adv-x="678" d="M105 -36Q99 -36 93 -36T80 -34Q62 -31 48 -17T28 14Q27 20 27 26T26 39L25 47Q27 55 31 59Q29 62 29 66Q29 71 31 76T34 87Q42 96 47 106T52 128L55 130Q44 130 29 133T2 144T-12 166Q-12 176
-3 183T20 194T40 199Q49 202 61 202L62 196H61Q51 192 37 185T15 171Q7 165 11 163Q16 158 40 158L47 159L79 168Q84 170 91 179T102 193Q109 201 117 208T136 215Q136 213 136 211T134 207Q130 202 121 191T108 174L254 212Q266 215 279 216T304 222Q323 228
341 231T378 242Q386 245 393 259T408 280Q420 292 429 306T449 334Q458 346 469 359T490 386Q494 390 502 401T517 423T526 440L527 442Q527 445 529 447L544 466Q551 460 551 455Q551 451 545 443Q541 439 538 432T532 419Q525 407 518 396T503 372Q492 356 481
339T456 306Q455 305 454 303T451 299Q450 297 444 288T430 267T418 249Q450 253 482 259Q487 290 500 323T530 385T559 432Q560 433 560 436V442Q560 451 571 465T595 493T615 513Q623 510 640 505T661 491L667 475Q662 471 658 469T651 461L647 453L641 444L630
429Q616 411 614 406Q613 404 604 394T588 375T583 369L584 370Q580 359 574 350T561 329Q555 321 551 312T543 288L540 275Q551 275 562 276T584 277Q616 277 646 265T695 223Q699 218 699 211T698 198Q698 184 685 172T656 151T630 135V138H628V144Q637 150 648
164T667 192T675 216Q675 231 657 237T616 245T583 246Q574 246 560 246T538 242Q530 240 525 223T517 185T512 155Q511 145 509 140Q510 137 510 134T511 128Q512 118 512 108T513 86Q514 72 518 51T532 15T564 -2Q577 -2 589 6T605 24Q607 27 609 27T613 24Q613
23 613 23T614 21Q614 20 614 18T612 12Q609 1 594 -6T567 -13Q518 -13 493 15T461 79Q458 92 457 104T456 126Q456 140 457 151T461 173Q465 191 469 207T477 239Q471 238 455 233T422 220T397 207Q380 193 367 173T340 135Q337 131 331 124T319 108Q312 100 306
93T296 83Q294 81 291 79T286 75Q280 68 276 62T266 48L257 41Q246 32 235 23T212 6Q187 -13 161 -24T105 -36ZM94 -18Q100 -18 112 -13T136 0T154 10Q187 33 215 60T269 116Q280 128 292 139T314 163Q318 168 322 174T330 185Q332 187 334 189T338 193L347 200Q354
205 358 211Q350 210 329 204T281 191T226 175T177 160T149 149Q135 140 116 133Q107 129 99 125T84 116Q75 110 70 94T62 59T59 26Q59 7 66 -5T94 -18ZM603 552Q595 552 595 559Q595 566 607 573Q611 575 615 578T626 587Q641 597 660 611T690 633Q701 642 709
642Q717 642 725 634T733 619Q733 615 726 611T700 597L694 594Q688 594 684 590Q683 590 669 583T644 570Q632 564 621 558T603 552Z" />
<glyph unicode="&#xc2;" glyph-name="Acircumflex" horiz-adv-x="678" d="M105 -36Q99 -36 93 -36T80 -34Q62 -31 48 -17T28 14Q27 20 27 26T26 39L25 47Q27 55 31 59Q29 62 29 66Q29 71 31 76T34 87Q42 96 47 106T52 128L55 130Q44 130 29 133T2 144T-12 166Q-12
176 -3 183T20 194T40 199Q49 202 61 202L62 196H61Q51 192 37 185T15 171Q7 165 11 163Q16 158 40 158L47 159L79 168Q84 170 91 179T102 193Q109 201 117 208T136 215Q136 213 136 211T134 207Q130 202 121 191T108 174L254 212Q266 215 279 216T304 222Q323
228 341 231T378 242Q386 245 393 259T408 280Q420 292 429 306T449 334Q458 346 469 359T490 386Q494 390 502 401T517 423T526 440L527 442Q527 445 529 447L544 466Q551 460 551 455Q551 451 545 443Q541 439 538 432T532 419Q525 407 518 396T503 372Q492 356
481 339T456 306Q455 305 454 303T451 299Q450 297 444 288T430 267T418 249Q450 253 482 259Q487 290 500 323T530 385T559 432Q560 433 560 436V442Q560 451 571 465T595 493T615 513Q623 510 640 505T661 491L667 475Q662 471 658 469T651 461L647 453L641 444L630
429Q616 411 614 406Q613 404 604 394T588 375T583 369L584 370Q580 359 574 350T561 329Q555 321 551 312T543 288L540 275Q551 275 562 276T584 277Q616 277 646 265T695 223Q699 218 699 211T698 198Q698 184 685 172T656 151T630 135V138H628V144Q637 150 648
164T667 192T675 216Q675 231 657 237T616 245T583 246Q574 246 560 246T538 242Q530 240 525 223T517 185T512 155Q511 145 509 140Q510 137 510 134T511 128Q512 118 512 108T513 86Q514 72 518 51T532 15T564 -2Q577 -2 589 6T605 24Q607 27 609 27T613 24Q613
23 613 23T614 21Q614 20 614 18T612 12Q609 1 594 -6T567 -13Q518 -13 493 15T461 79Q458 92 457 104T456 126Q456 140 457 151T461 173Q465 191 469 207T477 239Q471 238 455 233T422 220T397 207Q380 193 367 173T340 135Q337 131 331 124T319 108Q312 100 306
93T296 83Q294 81 291 79T286 75Q280 68 276 62T266 48L257 41Q246 32 235 23T212 6Q187 -13 161 -24T105 -36ZM94 -18Q100 -18 112 -13T136 0T154 10Q187 33 215 60T269 116Q280 128 292 139T314 163Q318 168 322 174T330 185Q332 187 334 189T338 193L347 200Q354
205 358 211Q350 210 329 204T281 191T226 175T177 160T149 149Q135 140 116 133Q107 129 99 125T84 116Q75 110 70 94T62 59T59 26Q59 7 66 -5T94 -18ZM751 558Q742 559 727 571T698 599T675 626Q670 622 654 612T618 590T583 570T564 562Q563 562 563 565T562
571Q563 576 580 591T621 623T664 653T689 667L691 664Q709 636 724 617T755 574Q758 571 756 565Q756 558 751 558Z" />
<glyph unicode="&#xc3;" glyph-name="Atilde" horiz-adv-x="678" d="M105 -36Q99 -36 93 -36T80 -34Q62 -31 48 -17T28 14Q27 20 27 26T26 39L25 47Q27 55 31 59Q29 62 29 66Q29 71 31 76T34 87Q42 96 47 106T52 128L55 130Q44 130 29 133T2 144T-12 166Q-12 176
-3 183T20 194T40 199Q49 202 61 202L62 196H61Q51 192 37 185T15 171Q7 165 11 163Q16 158 40 158L47 159L79 168Q84 170 91 179T102 193Q109 201 117 208T136 215Q136 213 136 211T134 207Q130 202 121 191T108 174L254 212Q266 215 279 216T304 222Q323 228
341 231T378 242Q386 245 393 259T408 280Q420 292 429 306T449 334Q458 346 469 359T490 386Q494 390 502 401T517 423T526 440L527 442Q527 445 529 447L544 466Q551 460 551 455Q551 451 545 443Q541 439 538 432T532 419Q525 407 518 396T503 372Q492 356 481
339T456 306Q455 305 454 303T451 299Q450 297 444 288T430 267T418 249Q450 253 482 259Q487 290 500 323T530 385T559 432Q560 433 560 436V442Q560 451 571 465T595 493T615 513Q623 510 640 505T661 491L667 475Q662 471 658 469T651 461L647 453L641 444L630
429Q616 411 614 406Q613 404 604 394T588 375T583 369L584 370Q580 359 574 350T561 329Q555 321 551 312T543 288L540 275Q551 275 562 276T584 277Q616 277 646 265T695 223Q699 218 699 211T698 198Q698 184 685 172T656 151T630 135V138H628V144Q637 150 648
164T667 192T675 216Q675 231 657 237T616 245T583 246Q574 246 560 246T538 242Q530 240 525 223T517 185T512 155Q511 145 509 140Q510 137 510 134T511 128Q512 118 512 108T513 86Q514 72 518 51T532 15T564 -2Q577 -2 589 6T605 24Q607 27 609 27T613 24Q613
23 613 23T614 21Q614 20 614 18T612 12Q609 1 594 -6T567 -13Q518 -13 493 15T461 79Q458 92 457 104T456 126Q456 140 457 151T461 173Q465 191 469 207T477 239Q471 238 455 233T422 220T397 207Q380 193 367 173T340 135Q337 131 331 124T319 108Q312 100 306
93T296 83Q294 81 291 79T286 75Q280 68 276 62T266 48L257 41Q246 32 235 23T212 6Q187 -13 161 -24T105 -36ZM94 -18Q100 -18 112 -13T136 0T154 10Q187 33 215 60T269 116Q280 128 292 139T314 163Q318 168 322 174T330 185Q332 187 334 189T338 193L347 200Q354
205 358 211Q350 210 329 204T281 191T226 175T177 160T149 149Q135 140 116 133Q107 129 99 125T84 116Q75 110 70 94T62 59T59 26Q59 7 66 -5T94 -18ZM707 565Q696 565 686 569T664 578Q652 584 639 589T609 594Q599 594 590 587T573 568Q572 565 567 565Q560
565 562 573Q563 578 569 591T588 615T618 627Q630 627 640 623T661 614Q673 609 686 604T720 598Q740 598 749 612Q751 616 753 619T758 622Q763 622 763 615Q763 587 749 576T707 565Z" />
<glyph unicode="&#xc4;" glyph-name="Adieresis" horiz-adv-x="678" d="M105 -36Q99 -36 93 -36T80 -34Q62 -31 48 -17T28 14Q27 20 27 26T26 39L25 47Q27 55 31 59Q29 62 29 66Q29 71 31 76T34 87Q42 96 47 106T52 128L55 130Q44 130 29 133T2 144T-12 166Q-12
176 -3 183T20 194T40 199Q49 202 61 202L62 196H61Q51 192 37 185T15 171Q7 165 11 163Q16 158 40 158L47 159L79 168Q84 170 91 179T102 193Q109 201 117 208T136 215Q136 213 136 211T134 207Q130 202 121 191T108 174L254 212Q266 215 279 216T304 222Q323
228 341 231T378 242Q386 245 393 259T408 280Q420 292 429 306T449 334Q458 346 469 359T490 386Q494 390 502 401T517 423T526 440L527 442Q527 445 529 447L544 466Q551 460 551 455Q551 451 545 443Q541 439 538 432T532 419Q525 407 518 396T503 372Q492 356
481 339T456 306Q455 305 454 303T451 299Q450 297 444 288T430 267T418 249Q450 253 482 259Q487 290 500 323T530 385T559 432Q560 433 560 436V442Q560 451 571 465T595 493T615 513Q623 510 640 505T661 491L667 475Q662 471 658 469T651 461L647 453L641 444L630
429Q616 411 614 406Q613 404 604 394T588 375T583 369L584 370Q580 359 574 350T561 329Q555 321 551 312T543 288L540 275Q551 275 562 276T584 277Q616 277 646 265T695 223Q699 218 699 211T698 198Q698 184 685 172T656 151T630 135V138H628V144Q637 150 648
164T667 192T675 216Q675 231 657 237T616 245T583 246Q574 246 560 246T538 242Q530 240 525 223T517 185T512 155Q511 145 509 140Q510 137 510 134T511 128Q512 118 512 108T513 86Q514 72 518 51T532 15T564 -2Q577 -2 589 6T605 24Q607 27 609 27T613 24Q613
23 613 23T614 21Q614 20 614 18T612 12Q609 1 594 -6T567 -13Q518 -13 493 15T461 79Q458 92 457 104T456 126Q456 140 457 151T461 173Q465 191 469 207T477 239Q471 238 455 233T422 220T397 207Q380 193 367 173T340 135Q337 131 331 124T319 108Q312 100 306
93T296 83Q294 81 291 79T286 75Q280 68 276 62T266 48L257 41Q246 32 235 23T212 6Q187 -13 161 -24T105 -36ZM94 -18Q100 -18 112 -13T136 0T154 10Q187 33 215 60T269 116Q280 128 292 139T314 163Q318 168 322 174T330 185Q332 187 334 189T338 193L347 200Q354
205 358 211Q350 210 329 204T281 191T226 175T177 160T149 149Q135 140 116 133Q107 129 99 125T84 116Q75 110 70 94T62 59T59 26Q59 7 66 -5T94 -18ZM704 560Q696 560 690 572T683 591Q683 598 688 605T701 616Q705 620 717 627T742 640T760 646H761Q763 646
763 645Q763 644 762 643Q761 642 759 640T754 633Q753 631 751 629T747 626Q745 622 743 616T738 602Q732 587 725 574T704 560ZM603 560Q595 560 589 572T582 591Q582 598 587 605T600 616Q604 620 616 627T641 640T659 646H660Q662 646 662 645Q662 644 661
643Q660 642 658 640T653 633Q652 631 650 629T646 626Q644 622 642 616T637 602Q631 587 624 574T603 560Z" />
<glyph unicode="&#xc5;" glyph-name="Aring" horiz-adv-x="678" d="M105 -36Q99 -36 93 -36T80 -34Q62 -31 48 -17T28 14Q27 20 27 26T26 39L25 47Q27 55 31 59Q29 62 29 66Q29 71 31 76T34 87Q42 96 47 106T52 128L55 130Q44 130 29 133T2 144T-12 166Q-12 176
-3 183T20 194T40 199Q49 202 61 202L62 196H61Q51 192 37 185T15 171Q7 165 11 163Q16 158 40 158L47 159L79 168Q84 170 91 179T102 193Q109 201 117 208T136 215Q136 213 136 211T134 207Q130 202 121 191T108 174L254 212Q266 215 279 216T304 222Q323 228
341 231T378 242Q386 245 393 259T408 280Q420 292 429 306T449 334Q458 346 469 359T490 386Q494 390 502 401T517 423T526 440L527 442Q527 445 529 447L544 466Q551 460 551 455Q551 451 545 443Q541 439 538 432T532 419Q525 407 518 396T503 372Q492 356 481
339T456 306Q455 305 454 303T451 299Q450 297 444 288T430 267T418 249Q450 253 482 259Q487 290 500 323T530 385T559 432Q560 433 560 436V442Q560 451 571 465T595 493T615 513Q623 510 640 505T661 491L667 475Q662 471 658 469T651 461L647 453L641 444L630
429Q616 411 614 406Q613 404 604 394T588 375T583 369L584 370Q580 359 574 350T561 329Q555 321 551 312T543 288L540 275Q551 275 562 276T584 277Q616 277 646 265T695 223Q699 218 699 211T698 198Q698 184 685 172T656 151T630 135V138H628V144Q637 150 648
164T667 192T675 216Q675 231 657 237T616 245T583 246Q574 246 560 246T538 242Q530 240 525 223T517 185T512 155Q511 145 509 140Q510 137 510 134T511 128Q512 118 512 108T513 86Q514 72 518 51T532 15T564 -2Q577 -2 589 6T605 24Q607 27 609 27T613 24Q613
23 613 23T614 21Q614 20 614 18T612 12Q609 1 594 -6T567 -13Q518 -13 493 15T461 79Q458 92 457 104T456 126Q456 140 457 151T461 173Q465 191 469 207T477 239Q471 238 455 233T422 220T397 207Q380 193 367 173T340 135Q337 131 331 124T319 108Q312 100 306
93T296 83Q294 81 291 79T286 75Q280 68 276 62T266 48L257 41Q246 32 235 23T212 6Q187 -13 161 -24T105 -36ZM94 -18Q100 -18 112 -13T136 0T154 10Q187 33 215 60T269 116Q280 128 292 139T314 163Q318 168 322 174T330 185Q332 187 334 189T338 193L347 200Q354
205 358 211Q350 210 329 204T281 191T226 175T177 160T149 149Q135 140 116 133Q107 129 99 125T84 116Q75 110 70 94T62 59T59 26Q59 7 66 -5T94 -18ZM662 557Q644 557 633 566T622 588Q622 613 637 637T677 676T726 692Q744 692 755 681T767 649Q767 627 752
606T712 571T662 557ZM678 578Q705 578 723 599T742 641Q742 672 716 672Q702 672 688 660T666 630T658 595Q658 578 678 578Z" />
<glyph unicode="&#xc6;" glyph-name="AE" horiz-adv-x="964" d="M996 540Q1010 540 1027 532T1046 505Q1027 506 1015 490T990 460L983 452Q990 442 994 430T999 406Q999 398 995 386T981 372Q980 382 981 391Q982 395 982 398T983 405Q982 409 979 419T969 430Q965
430 958 419T944 392T933 362T928 342Q930 334 942 327L934 319Q919 322 906 334T892 361Q892 377 899 393T914 423T921 444Q921 450 913 451T899 452Q877 452 844 444T776 420T710 387T661 349T644 311Q645 302 656 299T680 296T699 295H731Q737 295 743 295T757
297L772 299Q776 300 780 300T788 300Q792 301 796 302T804 303Q826 303 842 285T862 249L861 247V242Q849 248 842 249T827 251Q820 251 791 251T733 250Q711 250 671 251T593 248Q587 246 583 246H577Q544 242 527 229Q520 213 517 190T512 155Q507 126 509 102Q510
97 510 84T513 57T527 31Q547 10 572 6T631 1Q646 1 660 3T689 8Q693 9 700 11T717 17Q726 19 733 21T742 24H743Q751 29 759 32T776 40Q805 54 830 70T873 112Q881 123 887 138T894 168Q894 187 876 199Q874 201 871 203T868 209V213Q882 211 896 200T920 176T932
151Q934 128 924 106T897 65T864 34Q860 31 854 28T842 25Q841 12 825 8T799 -2Q792 -5 787 -9T773 -14H772V-15Q746 -22 720 -27T666 -32Q623 -32 579 -24T503 4T459 58Q457 66 455 77T453 96Q453 107 454 112T456 126Q456 140 457 151T461 173Q465 191 469 207T477
239Q471 238 455 233T422 220T397 207Q380 193 367 173T340 135Q337 131 331 124T319 108Q312 100 306 93T296 83Q294 81 291 79T286 75Q280 68 276 62T266 48L257 41Q246 32 235 23T212 6Q187 -13 161 -24T105 -36Q99 -36 93 -36T80 -34Q62 -31 48 -17T28 14Q27
20 27 26T26 39L25 47Q27 55 31 59Q29 62 29 66Q29 71 31 76T34 87Q42 96 47 106T52 128L55 130Q44 130 29 133T2 144T-12 166Q-12 176 -3 183T20 194T40 199Q49 202 61 202L62 196H61Q51 192 37 185T15 171Q7 165 11 163Q16 158 40 158L47 159L79 168Q84 170 91
179T102 193Q109 201 117 208T136 215Q136 213 136 211T134 207Q130 202 121 191T108 174L254 212Q266 215 279 216T304 222Q323 228 341 231T378 242Q386 245 393 259T408 280Q420 292 429 306T449 334Q458 346 469 359T490 386Q494 390 502 401T517 423T526 440L527
442Q527 445 529 447L544 466Q551 460 551 455Q551 451 545 443Q541 439 538 432T532 419Q525 407 518 396T503 372Q492 356 481 339T456 306Q455 305 454 303T451 299Q450 297 444 288T430 267T418 249Q450 253 482 259Q487 290 500 323T530 385T559 432Q560 433
560 436V442Q560 451 571 465T595 493T615 513Q623 510 640 505T661 491L667 475Q662 471 658 469T651 461L647 453L641 444L630 429Q616 411 614 406Q613 404 604 394T588 375T583 369L584 370Q580 359 574 350T561 329Q555 321 551 312T543 288L540 275Q551 275
562 276T584 277H591Q614 277 637 277T680 276Q664 279 645 286T612 307T597 338Q595 361 612 382T655 422T708 452T755 471Q775 478 812 485T884 492Q903 492 919 490T946 480Q957 496 968 511T996 540ZM338 193L347 200Q355 206 358 211Q350 209 329 204T281
191T226 175T177 160T149 149Q135 140 116 133Q107 129 99 125T84 116Q75 110 70 94T62 59T59 26Q59 7 66 -5T94 -18Q100 -18 112 -13T136 0T154 10Q187 33 215 60T269 116Q280 128 292 139T314 163Q318 168 322 174T330 185Q332 187 334 189T338 193Z" />
<glyph unicode="&#xc7;" glyph-name="Ccedilla" horiz-adv-x="432" d="M158 -17Q127 -17 109 -10T64 13Q31 33 11 60T-13 123Q-14 133 -12 146T-8 169Q-4 209 25 253T100 338T199 414T307 468T409 488Q427 488 443 478T461 450Q461 447 459 437Q461 440 464 444T472
452Q478 459 489 472T511 498T520 519Q520 523 516 529T510 538Q521 535 534 527T558 510T568 492V487Q567 483 558 474T538 455T522 442Q509 430 492 407T463 360T451 316Q451 305 455 298T469 280H465V277Q448 283 426 297T404 328V334Q404 339 404 342T406 350Q407
354 413 369T426 394Q424 393 422 392T415 391L414 399Q429 414 429 435Q429 449 419 453T392 458Q389 458 386 458T381 457Q341 450 313 437T259 405T203 362Q190 352 182 343T163 321Q156 314 149 307T134 293Q126 286 119 279T106 264Q96 251 84 234T72 197Q63
190 58 174T50 140T47 107Q47 82 58 54T100 15Q111 11 123 11T145 11Q149 11 160 12T173 16Q201 18 225 28T274 50Q285 54 303 64T343 86T384 109T413 127Q421 132 427 138T441 148Q444 150 448 153T458 161Q464 166 470 170T483 180Q496 190 507 198T525 207V206H528Q524
190 515 183T495 165Q457 128 418 97T332 40Q325 36 317 34T300 26V25H296Q269 8 231 -4T158 -17ZM89 -166Q74 -166 63 -163Q56 -161 56 -155Q56 -146 61 -146Q63 -146 67 -146T75 -147Q94 -147 116 -140T138 -112Q138 -100 131 -91T117 -73T109 -52Q109 -31 127
-15T169 1Q175 1 176 -1L175 -3Q161 -6 156 -19T150 -47Q150 -58 159 -67T176 -87T185 -111Q185 -130 170 -142T132 -160T89 -166Z" />
<glyph unicode="&#xc8;" glyph-name="Egrave" horiz-adv-x="504" d="M206 -61Q180 -61 146 -56T80 -38T25 -2T-1 58Q-3 88 15 116T64 167T127 208T186 235L220 247Q204 250 185 257T152 278T137 309Q135 332 152 353T195 393T248 423T295 442Q315 449 352 456T424
463Q443 463 459 461T486 451Q497 467 508 482T536 511Q550 511 567 503T586 476Q567 477 555 461T530 431L523 423Q530 413 534 401T539 377Q539 369 535 357T521 343Q520 353 521 362Q522 366 522 369T523 376Q522 380 519 390T509 401Q505 401 498 390T484 363T473
333T468 313Q470 305 482 298L474 290Q459 293 446 305T432 332Q432 348 439 364T454 394T461 415Q461 421 453 422T439 423Q417 423 384 415T316 391T250 358T201 320T184 282Q185 273 196 270T220 267T239 266H271Q282 270 296 270H312Q316 270 320 270T328 271Q332
272 336 273T344 274Q366 274 382 256T402 220L401 218V213Q389 219 382 220T367 222Q360 222 352 222T332 221Q318 221 304 219T276 215Q226 205 185 188T105 148Q87 138 71 125T44 95Q32 76 32 51Q32 17 54 0T108 -22T171 -28Q186 -28 200 -26T229 -21Q233 -20
240 -18T257 -12Q266 -10 273 -8T282 -5H283Q291 0 299 3T316 11Q345 25 370 41T413 83Q421 94 427 109T434 139Q434 158 416 170Q414 172 411 174T408 180V184Q422 182 436 171T460 147T472 122Q474 99 464 77T437 36T404 5Q400 2 394 -1T382 -4Q381 -17 365 -21T339
-31Q332 -34 327 -38T313 -43H312V-44Q286 -51 260 -56T206 -61ZM437 515Q431 515 420 521T396 533Q385 539 372 546T356 553Q352 557 346 557L340 560Q321 569 314 573T307 582Q307 589 315 597T331 605Q340 605 350 596Q360 588 379 574T414 550Q420 545 424
542T433 536Q445 529 445 522Q445 515 437 515Z" />
<glyph unicode="&#xc9;" glyph-name="Eacute" horiz-adv-x="504" d="M206 -61Q180 -61 146 -56T80 -38T25 -2T-1 58Q-3 88 15 116T64 167T127 208T186 235L220 247Q204 250 185 257T152 278T137 309Q135 332 152 353T195 393T248 423T295 442Q315 449 352 456T424
463Q443 463 459 461T486 451Q497 467 508 482T536 511Q550 511 567 503T586 476Q567 477 555 461T530 431L523 423Q530 413 534 401T539 377Q539 369 535 357T521 343Q520 353 521 362Q522 366 522 369T523 376Q522 380 519 390T509 401Q505 401 498 390T484 363T473
333T468 313Q470 305 482 298L474 290Q459 293 446 305T432 332Q432 348 439 364T454 394T461 415Q461 421 453 422T439 423Q417 423 384 415T316 391T250 358T201 320T184 282Q185 273 196 270T220 267T239 266H271Q282 270 296 270H312Q316 270 320 270T328 271Q332
272 336 273T344 274Q366 274 382 256T402 220L401 218V213Q389 219 382 220T367 222Q360 222 352 222T332 221Q318 221 304 219T276 215Q226 205 185 188T105 148Q87 138 71 125T44 95Q32 76 32 51Q32 17 54 0T108 -22T171 -28Q186 -28 200 -26T229 -21Q233 -20
240 -18T257 -12Q266 -10 273 -8T282 -5H283Q291 0 299 3T316 11Q345 25 370 41T413 83Q421 94 427 109T434 139Q434 158 416 170Q414 172 411 174T408 180V184Q422 182 436 171T460 147T472 122Q474 99 464 77T437 36T404 5Q400 2 394 -1T382 -4Q381 -17 365 -21T339
-31Q332 -34 327 -38T313 -43H312V-44Q286 -51 260 -56T206 -61ZM336 515Q328 515 328 522Q328 529 340 536Q344 538 348 541T359 550Q374 560 393 574T423 596Q434 605 442 605Q450 605 458 597T466 582Q466 578 459 574T433 560L427 557Q421 557 417 553Q416
553 402 546T377 533Q365 527 354 521T336 515Z" />
<glyph unicode="&#xca;" glyph-name="Ecircumflex" horiz-adv-x="504" d="M206 -61Q180 -61 146 -56T80 -38T25 -2T-1 58Q-3 88 15 116T64 167T127 208T186 235L220 247Q204 250 185 257T152 278T137 309Q135 332 152 353T195 393T248 423T295 442Q315 449 352
456T424 463Q443 463 459 461T486 451Q497 467 508 482T536 511Q550 511 567 503T586 476Q567 477 555 461T530 431L523 423Q530 413 534 401T539 377Q539 369 535 357T521 343Q520 353 521 362Q522 366 522 369T523 376Q522 380 519 390T509 401Q505 401 498 390T484
363T473 333T468 313Q470 305 482 298L474 290Q459 293 446 305T432 332Q432 348 439 364T454 394T461 415Q461 421 453 422T439 423Q417 423 384 415T316 391T250 358T201 320T184 282Q185 273 196 270T220 267T239 266H271Q282 270 296 270H312Q316 270 320 270T328
271Q332 272 336 273T344 274Q366 274 382 256T402 220L401 218V213Q389 219 382 220T367 222Q360 222 352 222T332 221Q318 221 304 219T276 215Q226 205 185 188T105 148Q87 138 71 125T44 95Q32 76 32 51Q32 17 54 0T108 -22T171 -28Q186 -28 200 -26T229 -21Q233
-20 240 -18T257 -12Q266 -10 273 -8T282 -5H283Q291 0 299 3T316 11Q345 25 370 41T413 83Q421 94 427 109T434 139Q434 158 416 170Q414 172 411 174T408 180V184Q422 182 436 171T460 147T472 122Q474 99 464 77T437 36T404 5Q400 2 394 -1T382 -4Q381 -17 365
-21T339 -31Q332 -34 327 -38T313 -43H312V-44Q286 -51 260 -56T206 -61ZM484 521Q475 522 460 534T431 562T408 589Q403 585 387 575T351 553T316 533T297 525Q296 525 296 528T295 534Q296 539 313 554T354 586T397 616T422 630L424 627Q442 599 457 580T488
537Q491 534 489 528Q489 521 484 521Z" />
<glyph unicode="&#xcb;" glyph-name="Edieresis" horiz-adv-x="504" d="M206 -61Q180 -61 146 -56T80 -38T25 -2T-1 58Q-3 88 15 116T64 167T127 208T186 235L220 247Q204 250 185 257T152 278T137 309Q135 332 152 353T195 393T248 423T295 442Q315 449 352 456T424
463Q443 463 459 461T486 451Q497 467 508 482T536 511Q550 511 567 503T586 476Q567 477 555 461T530 431L523 423Q530 413 534 401T539 377Q539 369 535 357T521 343Q520 353 521 362Q522 366 522 369T523 376Q522 380 519 390T509 401Q505 401 498 390T484 363T473
333T468 313Q470 305 482 298L474 290Q459 293 446 305T432 332Q432 348 439 364T454 394T461 415Q461 421 453 422T439 423Q417 423 384 415T316 391T250 358T201 320T184 282Q185 273 196 270T220 267T239 266H271Q282 270 296 270H312Q316 270 320 270T328 271Q332
272 336 273T344 274Q366 274 382 256T402 220L401 218V213Q389 219 382 220T367 222Q360 222 352 222T332 221Q318 221 304 219T276 215Q226 205 185 188T105 148Q87 138 71 125T44 95Q32 76 32 51Q32 17 54 0T108 -22T171 -28Q186 -28 200 -26T229 -21Q233 -20
240 -18T257 -12Q266 -10 273 -8T282 -5H283Q291 0 299 3T316 11Q345 25 370 41T413 83Q421 94 427 109T434 139Q434 158 416 170Q414 172 411 174T408 180V184Q422 182 436 171T460 147T472 122Q474 99 464 77T437 36T404 5Q400 2 394 -1T382 -4Q381 -17 365 -21T339
-31Q332 -34 327 -38T313 -43H312V-44Q286 -51 260 -56T206 -61ZM437 523Q429 523 423 535T416 554Q416 561 421 568T434 579Q438 583 450 590T475 603T493 609H494Q496 609 496 608Q496 607 495 606Q494 605 492 603T487 596Q486 594 484 592T480 589Q478 585
476 579T471 565Q465 550 458 537T437 523ZM336 523Q328 523 322 535T315 554Q315 561 320 568T333 579Q337 583 349 590T374 603T392 609H393Q395 609 395 608Q395 607 394 606Q393 605 391 603T386 596Q385 594 383 592T379 589Q377 585 375 579T370 565Q364
550 357 537T336 523Z" />
<glyph unicode="&#xcc;" glyph-name="Igrave" horiz-adv-x="383" d="M9 -61Q-1 -61 -9 -46T-19 -23L-18 -21V-18H-8Q-6 -16 -4 -16H-3Q8 -13 14 -12T30 -8Q36 -7 54 -3T90 6T107 15L128 12Q136 14 143 16T159 19Q167 21 166 35T166 55Q171 118 196 174T255 284T320
387L197 375Q188 374 187 386T184 405Q184 414 194 420T216 428T235 431Q240 432 245 432T256 433Q258 433 261 433T266 432H269L270 424L263 422Q271 422 280 420T296 418Q316 422 322 422Q330 423 348 422Q350 424 353 425T357 427Q358 428 358 432V435Q358 439
359 444T367 454Q371 458 376 461T385 467Q390 466 401 463T422 454T432 442Q432 438 429 434T424 426Q435 426 445 426T466 424Q469 424 481 426T500 428Q515 428 529 427T559 426L568 420Q537 404 506 401T442 391Q405 384 386 369T344 323Q340 317 336 311T328
300Q304 266 278 225T232 139T213 50Q213 34 216 31T231 27Q237 27 244 29T258 32Q261 33 266 33Q286 35 307 35T348 36Q352 37 356 37T364 38Q369 38 382 35T408 27T422 14Q410 16 400 16T380 17Q371 17 347 16T295 10T247 -3T227 -23Q227 -29 241 -40L246 -44Q251
-48 253 -51T257 -61Q252 -60 250 -61H246Q230 -61 211 -47T188 -17Q159 -24 129 -30T69 -44Q54 -49 40 -55T9 -61ZM470 514Q464 514 453 520T429 532Q418 538 405 545T389 552Q385 556 379 556L373 559Q354 568 347 572T340 581Q340 588 348 596T364 604Q373 604
383 595Q393 587 412 573T447 549Q453 544 457 541T466 535Q478 528 478 521Q478 514 470 514Z" />
<glyph unicode="&#xcd;" glyph-name="Iacute" horiz-adv-x="383" d="M9 -61Q-1 -61 -9 -46T-19 -23L-18 -21V-18H-8Q-6 -16 -4 -16H-3Q8 -13 14 -12T30 -8Q36 -7 54 -3T90 6T107 15L128 12Q136 14 143 16T159 19Q167 21 166 35T166 55Q171 118 196 174T255 284T320
387L197 375Q188 374 187 386T184 405Q184 414 194 420T216 428T235 431Q240 432 245 432T256 433Q258 433 261 433T266 432H269L270 424L263 422Q271 422 280 420T296 418Q316 422 322 422Q330 423 348 422Q350 424 353 425T357 427Q358 428 358 432V435Q358 439
359 444T367 454Q371 458 376 461T385 467Q390 466 401 463T422 454T432 442Q432 438 429 434T424 426Q435 426 445 426T466 424Q469 424 481 426T500 428Q515 428 529 427T559 426L568 420Q537 404 506 401T442 391Q405 384 386 369T344 323Q340 317 336 311T328
300Q304 266 278 225T232 139T213 50Q213 34 216 31T231 27Q237 27 244 29T258 32Q261 33 266 33Q286 35 307 35T348 36Q352 37 356 37T364 38Q369 38 382 35T408 27T422 14Q410 16 400 16T380 17Q371 17 347 16T295 10T247 -3T227 -23Q227 -29 241 -40L246 -44Q251
-48 253 -51T257 -61Q252 -60 250 -61H246Q230 -61 211 -47T188 -17Q159 -24 129 -30T69 -44Q54 -49 40 -55T9 -61ZM369 514Q361 514 361 521Q361 528 373 535Q377 537 381 540T392 549Q407 559 426 573T456 595Q467 604 475 604Q483 604 491 596T499 581Q499 577
492 573T466 559L460 556Q454 556 450 552Q449 552 435 545T410 532Q398 526 387 520T369 514Z" />
<glyph unicode="&#xce;" glyph-name="Icircumflex" horiz-adv-x="383" d="M9 -61Q-1 -61 -9 -46T-19 -23L-18 -21V-18H-8Q-6 -16 -4 -16H-3Q8 -13 14 -12T30 -8Q36 -7 54 -3T90 6T107 15L128 12Q136 14 143 16T159 19Q167 21 166 35T166 55Q171 118 196 174T255
284T320 387L197 375Q188 374 187 386T184 405Q184 414 194 420T216 428T235 431Q240 432 245 432T256 433Q258 433 261 433T266 432H269L270 424L263 422Q271 422 280 420T296 418Q316 422 322 422Q330 423 348 422Q350 424 353 425T357 427Q358 428 358 432V435Q358
439 359 444T367 454Q371 458 376 461T385 467Q390 466 401 463T422 454T432 442Q432 438 429 434T424 426Q435 426 445 426T466 424Q469 424 481 426T500 428Q515 428 529 427T559 426L568 420Q537 404 506 401T442 391Q405 384 386 369T344 323Q340 317 336 311T328
300Q304 266 278 225T232 139T213 50Q213 34 216 31T231 27Q237 27 244 29T258 32Q261 33 266 33Q286 35 307 35T348 36Q352 37 356 37T364 38Q369 38 382 35T408 27T422 14Q410 16 400 16T380 17Q371 17 347 16T295 10T247 -3T227 -23Q227 -29 241 -40L246 -44Q251
-48 253 -51T257 -61Q252 -60 250 -61H246Q230 -61 211 -47T188 -17Q159 -24 129 -30T69 -44Q54 -49 40 -55T9 -61ZM517 520Q508 521 493 533T464 561T441 588Q436 584 420 574T384 552T349 532T330 524Q329 524 329 527T328 533Q329 538 346 553T387 585T430 615T455
629L457 626Q475 598 490 579T521 536Q524 533 522 527Q522 520 517 520Z" />
<glyph unicode="&#xcf;" glyph-name="Idieresis" horiz-adv-x="383" d="M9 -61Q-1 -61 -9 -46T-19 -23L-18 -21V-18H-8Q-6 -16 -4 -16H-3Q8 -13 14 -12T30 -8Q36 -7 54 -3T90 6T107 15L128 12Q136 14 143 16T159 19Q167 21 166 35T166 55Q171 118 196 174T255
284T320 387L197 375Q188 374 187 386T184 405Q184 414 194 420T216 428T235 431Q240 432 245 432T256 433Q258 433 261 433T266 432H269L270 424L263 422Q271 422 280 420T296 418Q316 422 322 422Q330 423 348 422Q350 424 353 425T357 427Q358 428 358 432V435Q358
439 359 444T367 454Q371 458 376 461T385 467Q390 466 401 463T422 454T432 442Q432 438 429 434T424 426Q435 426 445 426T466 424Q469 424 481 426T500 428Q515 428 529 427T559 426L568 420Q537 404 506 401T442 391Q405 384 386 369T344 323Q340 317 336 311T328
300Q304 266 278 225T232 139T213 50Q213 34 216 31T231 27Q237 27 244 29T258 32Q261 33 266 33Q286 35 307 35T348 36Q352 37 356 37T364 38Q369 38 382 35T408 27T422 14Q410 16 400 16T380 17Q371 17 347 16T295 10T247 -3T227 -23Q227 -29 241 -40L246 -44Q251
-48 253 -51T257 -61Q252 -60 250 -61H246Q230 -61 211 -47T188 -17Q159 -24 129 -30T69 -44Q54 -49 40 -55T9 -61ZM470 522Q462 522 456 534T449 553Q449 560 454 567T467 578Q471 582 483 589T508 602T526 608H527Q529 608 529 607Q529 606 528 605Q527 604 525
602T520 595Q519 593 517 591T513 588Q511 584 509 578T504 564Q498 549 491 536T470 522ZM369 522Q361 522 355 534T348 553Q348 560 353 567T366 578Q370 582 382 589T407 602T425 608H426Q428 608 428 607Q428 606 427 605Q426 604 424 602T419 595Q418 593
416 591T412 588Q410 584 408 578T403 564Q397 549 390 536T369 522Z" />
<glyph unicode="&#xd0;" glyph-name="Eth" horiz-adv-x="793" d="M305 -97Q286 -97 269 -82T252 -48Q252 -35 255 -23T258 3Q245 10 226 22T207 52Q207 68 220 79T243 97H250V96H252Q251 87 247 80T239 65Q235 58 233 52T230 39Q231 29 243 27T264 24Q267 45 278
63T296 101Q313 142 336 180T383 255Q411 299 437 344T497 430Q505 439 517 439Q527 439 542 433T559 417Q561 398 546 375T516 338H512L511 343Q511 345 513 345Q513 345 513 348H510L504 343Q506 334 500 322T486 300T474 283Q468 276 463 269T453 254Q444 241
444 228H441Q432 224 423 210T405 181T391 156Q378 136 366 115T345 70Q341 59 327 50T307 30H363Q365 31 369 31V32Q379 35 391 37Q395 39 398 39T402 40Q406 41 410 43T418 43L433 48L438 53V49Q447 51 456 53T474 56Q485 64 498 65T523 69Q529 76 545 82T571
88H572L591 98Q593 97 602 101T622 112L659 132Q687 147 715 171T762 226T782 288Q782 333 748 364T661 416Q617 435 572 441T484 448Q444 448 407 444T341 436Q325 434 306 431T273 424Q262 421 252 416T230 407Q180 389 129 369T35 312Q31 308 24 302T16 288Q16
282 25 279T46 276T61 275L60 277H51L70 279Q71 279 71 279T72 278Q87 280 101 283T128 289V291H140Q140 289 140 286T137 281Q117 272 85 262T29 252Q7 252 -16 266T-39 304Q-39 323 -17 342T40 380T109 412T172 436T206 448Q219 452 231 453T257 457Q281 461
304 465T352 470V471H382L390 475Q416 474 442 474T494 473Q557 469 618 453T731 404T813 312Q821 299 823 285T826 257Q826 209 797 173T723 109T629 63T540 29Q521 23 506 15T470 7H467L460 5Q456 4 452 3T447 1Q433 -2 419 -2T391 -3H354Q345 -3 336 -2T317
-1Q313 -1 306 -1T296 -4Q289 -10 289 -25T289 -48Q290 -58 294 -72T315 -86L316 -95Q312 -96 310 -96T305 -97ZM340 236Q337 236 332 244T325 257Q335 260 353 261T389 263T419 264Q430 264 448 263T482 260T503 252Q503 248 500 248Q478 248 458 246T416 241Q404
240 383 238T340 236Z" />
<glyph unicode="&#xd1;" glyph-name="Ntilde" horiz-adv-x="734" d="M284 -43Q274 -43 257 -38T238 -22Q237 -11 241 -2T250 17L280 85Q312 158 351 219T423 354Q437 386 457 422T477 494Q477 511 471 515T450 520Q431 520 413 513T377 497Q324 472 284 442T208
375T137 295Q124 280 106 258T74 211T60 165Q60 150 72 147T97 143Q105 143 112 145T127 148L146 151Q181 157 197 161T218 168T227 171Q229 171 233 171T245 173Q248 172 250 172T253 171Q255 169 255 167Q255 164 251 163T241 161Q232 157 215 149T174 133Q152
125 128 119T82 112Q66 112 47 117T14 134T-2 164Q-4 188 7 210T36 252T67 288Q73 294 77 301T87 314Q92 319 98 324T110 334Q121 344 129 354T151 371Q153 374 155 377T159 384Q164 392 173 398T190 411Q203 422 216 430T243 447Q264 462 285 476T331 501Q334
503 338 504T346 509L347 508Q375 529 416 534Q420 535 424 536T432 538Q461 538 488 521T515 469Q515 445 505 424T483 382Q476 371 471 359T460 336Q437 294 413 253T369 167Q364 157 355 140T344 111Q376 155 403 201T463 289Q471 300 479 310T494 331Q505 344
518 360T546 389T580 401Q593 401 612 394T649 376T671 353Q673 348 674 340T675 324Q675 315 675 306T673 291Q667 257 664 221T660 147Q660 113 663 80Q664 72 666 53T675 16T694 -1Q705 -1 713 16T726 42Q731 52 735 53Q737 50 737 46Q738 39 737 19T730 -8Q726
-12 716 -13T699 -14Q674 -16 658 -4T631 28T617 66T611 98Q609 123 608 149T607 200Q607 247 610 292Q610 297 611 307T612 330Q612 349 609 365T593 382Q585 382 576 375T561 363Q499 305 453 235T366 92Q350 64 339 35T312 -24Q308 -31 302 -37T284 -43ZM715
461Q704 461 694 465T672 474Q660 480 647 485T617 490Q607 490 598 483T581 464Q580 461 575 461Q568 461 570 469Q571 474 577 487T596 511T626 523Q638 523 648 519T669 510Q681 505 694 500T728 494Q748 494 757 508Q759 512 761 515T766 518Q771 518 771 511Q771
483 757 472T715 461Z" />
<glyph unicode="&#xd2;" glyph-name="Ograve" horiz-adv-x="536" d="M229 -23Q195 -23 158 -9T98 30Q86 43 80 51T72 72Q48 87 32 110T7 159T-4 201Q-5 213 -5 224T-5 247V248Q-8 251 -3 251Q-1 258 3 270T12 286V287Q10 291 10 295Q10 308 24 327T62 366T113
406T167 437Q183 447 205 451T251 457T293 463Q298 464 303 465T312 467Q354 467 402 457T494 425T566 370T599 290Q600 279 601 272T602 256Q602 242 598 223Q596 216 589 200T580 176Q576 167 571 158T559 141Q529 96 481 63T379 10Q346 -2 306 -12T229 -23ZM206
4H235V5Q249 6 263 9T290 16Q296 18 306 22T327 31Q338 36 348 40T365 48Q383 56 399 68T431 92Q480 130 513 181T547 293Q547 348 519 381T445 431T348 447Q341 447 334 446T319 444Q304 443 289 440T260 432Q222 422 183 400T110 347T57 278T41 202Q38 197 37
191T36 178Q37 173 42 156T56 123T72 104Q76 156 100 202T161 286T242 352Q255 360 274 368T310 377Q314 379 318 379T327 380Q334 380 352 374T386 360T402 341Q402 339 401 338L402 333Q380 347 365 347Q352 347 340 342T317 330Q304 323 290 317T262 302Q240
287 216 263T171 209T135 152T114 104Q112 96 112 87Q112 80 115 75Q119 69 135 64T171 55T209 49T236 47L237 40H234Q225 36 212 36Q187 36 163 42T114 56Q116 50 118 44T122 32Q127 20 142 14T176 6T206 4ZM510 499Q504 499 493 505T469 517Q458 523 445 530T429
537Q425 541 419 541L413 544Q394 553 387 557T380 566Q380 573 388 581T404 589Q413 589 423 580Q433 572 452 558T487 534Q493 529 497 526T506 520Q518 513 518 506Q518 499 510 499Z" />
<glyph unicode="&#xd3;" glyph-name="Oacute" horiz-adv-x="536" d="M229 -23Q195 -23 158 -9T98 30Q86 43 80 51T72 72Q48 87 32 110T7 159T-4 201Q-5 213 -5 224T-5 247V248Q-8 251 -3 251Q-1 258 3 270T12 286V287Q10 291 10 295Q10 308 24 327T62 366T113
406T167 437Q183 447 205 451T251 457T293 463Q298 464 303 465T312 467Q354 467 402 457T494 425T566 370T599 290Q600 279 601 272T602 256Q602 242 598 223Q596 216 589 200T580 176Q576 167 571 158T559 141Q529 96 481 63T379 10Q346 -2 306 -12T229 -23ZM206
4H235V5Q249 6 263 9T290 16Q296 18 306 22T327 31Q338 36 348 40T365 48Q383 56 399 68T431 92Q480 130 513 181T547 293Q547 348 519 381T445 431T348 447Q341 447 334 446T319 444Q304 443 289 440T260 432Q222 422 183 400T110 347T57 278T41 202Q38 197 37
191T36 178Q37 173 42 156T56 123T72 104Q76 156 100 202T161 286T242 352Q255 360 274 368T310 377Q314 379 318 379T327 380Q334 380 352 374T386 360T402 341Q402 339 401 338L402 333Q380 347 365 347Q352 347 340 342T317 330Q304 323 290 317T262 302Q240
287 216 263T171 209T135 152T114 104Q112 96 112 87Q112 80 115 75Q119 69 135 64T171 55T209 49T236 47L237 40H234Q225 36 212 36Q187 36 163 42T114 56Q116 50 118 44T122 32Q127 20 142 14T176 6T206 4ZM409 499Q401 499 401 506Q401 513 413 520Q417 522
421 525T432 534Q447 544 466 558T496 580Q507 589 515 589Q523 589 531 581T539 566Q539 562 532 558T506 544L500 541Q494 541 490 537Q489 537 475 530T450 517Q438 511 427 505T409 499Z" />
<glyph unicode="&#xd4;" glyph-name="Ocircumflex" horiz-adv-x="536" d="M229 -23Q195 -23 158 -9T98 30Q86 43 80 51T72 72Q48 87 32 110T7 159T-4 201Q-5 213 -5 224T-5 247V248Q-8 251 -3 251Q-1 258 3 270T12 286V287Q10 291 10 295Q10 308 24 327T62 366T113
406T167 437Q183 447 205 451T251 457T293 463Q298 464 303 465T312 467Q354 467 402 457T494 425T566 370T599 290Q600 279 601 272T602 256Q602 242 598 223Q596 216 589 200T580 176Q576 167 571 158T559 141Q529 96 481 63T379 10Q346 -2 306 -12T229 -23ZM206
4H235V5Q249 6 263 9T290 16Q296 18 306 22T327 31Q338 36 348 40T365 48Q383 56 399 68T431 92Q480 130 513 181T547 293Q547 348 519 381T445 431T348 447Q341 447 334 446T319 444Q304 443 289 440T260 432Q222 422 183 400T110 347T57 278T41 202Q38 197 37
191T36 178Q37 173 42 156T56 123T72 104Q76 156 100 202T161 286T242 352Q255 360 274 368T310 377Q314 379 318 379T327 380Q334 380 352 374T386 360T402 341Q402 339 401 338L402 333Q380 347 365 347Q352 347 340 342T317 330Q304 323 290 317T262 302Q240
287 216 263T171 209T135 152T114 104Q112 96 112 87Q112 80 115 75Q119 69 135 64T171 55T209 49T236 47L237 40H234Q225 36 212 36Q187 36 163 42T114 56Q116 50 118 44T122 32Q127 20 142 14T176 6T206 4ZM557 505Q548 506 533 518T504 546T481 573Q476 569
460 559T424 537T389 517T370 509Q369 509 369 512T368 518Q369 523 386 538T427 570T470 600T495 614L497 611Q515 583 530 564T561 521Q564 518 562 512Q562 505 557 505Z" />
<glyph unicode="&#xd5;" glyph-name="Otilde" horiz-adv-x="536" d="M229 -23Q195 -23 158 -9T98 30Q86 43 80 51T72 72Q48 87 32 110T7 159T-4 201Q-5 213 -5 224T-5 247V248Q-8 251 -3 251Q-1 258 3 270T12 286V287Q10 291 10 295Q10 308 24 327T62 366T113
406T167 437Q183 447 205 451T251 457T293 463Q298 464 303 465T312 467Q354 467 402 457T494 425T566 370T599 290Q600 279 601 272T602 256Q602 242 598 223Q596 216 589 200T580 176Q576 167 571 158T559 141Q529 96 481 63T379 10Q346 -2 306 -12T229 -23ZM206
4H235V5Q249 6 263 9T290 16Q296 18 306 22T327 31Q338 36 348 40T365 48Q383 56 399 68T431 92Q480 130 513 181T547 293Q547 348 519 381T445 431T348 447Q341 447 334 446T319 444Q304 443 289 440T260 432Q222 422 183 400T110 347T57 278T41 202Q38 197 37
191T36 178Q37 173 42 156T56 123T72 104Q76 156 100 202T161 286T242 352Q255 360 274 368T310 377Q314 379 318 379T327 380Q334 380 352 374T386 360T402 341Q402 339 401 338L402 333Q380 347 365 347Q352 347 340 342T317 330Q304 323 290 317T262 302Q240
287 216 263T171 209T135 152T114 104Q112 96 112 87Q112 80 115 75Q119 69 135 64T171 55T209 49T236 47L237 40H234Q225 36 212 36Q187 36 163 42T114 56Q116 50 118 44T122 32Q127 20 142 14T176 6T206 4ZM513 512Q502 512 492 516T470 525Q458 531 445 536T415
541Q405 541 396 534T379 515Q378 512 373 512Q366 512 368 520Q369 525 375 538T394 562T424 574Q436 574 446 570T467 561Q479 556 492 551T526 545Q546 545 555 559Q557 563 559 566T564 569Q569 569 569 562Q569 534 555 523T513 512Z" />
<glyph unicode="&#xd6;" glyph-name="Odieresis" horiz-adv-x="536" d="M229 -23Q195 -23 158 -9T98 30Q86 43 80 51T72 72Q48 87 32 110T7 159T-4 201Q-5 213 -5 224T-5 247V248Q-8 251 -3 251Q-1 258 3 270T12 286V287Q10 291 10 295Q10 308 24 327T62 366T113
406T167 437Q183 447 205 451T251 457T293 463Q298 464 303 465T312 467Q354 467 402 457T494 425T566 370T599 290Q600 279 601 272T602 256Q602 242 598 223Q596 216 589 200T580 176Q576 167 571 158T559 141Q529 96 481 63T379 10Q346 -2 306 -12T229 -23ZM206
4H235V5Q249 6 263 9T290 16Q296 18 306 22T327 31Q338 36 348 40T365 48Q383 56 399 68T431 92Q480 130 513 181T547 293Q547 348 519 381T445 431T348 447Q341 447 334 446T319 444Q304 443 289 440T260 432Q222 422 183 400T110 347T57 278T41 202Q38 197 37
191T36 178Q37 173 42 156T56 123T72 104Q76 156 100 202T161 286T242 352Q255 360 274 368T310 377Q314 379 318 379T327 380Q334 380 352 374T386 360T402 341Q402 339 401 338L402 333Q380 347 365 347Q352 347 340 342T317 330Q304 323 290 317T262 302Q240
287 216 263T171 209T135 152T114 104Q112 96 112 87Q112 80 115 75Q119 69 135 64T171 55T209 49T236 47L237 40H234Q225 36 212 36Q187 36 163 42T114 56Q116 50 118 44T122 32Q127 20 142 14T176 6T206 4ZM510 507Q502 507 496 519T489 538Q489 545 494 552T507
563Q511 567 523 574T548 587T566 593H567Q569 593 569 592Q569 591 568 590Q567 589 565 587T560 580Q559 578 557 576T553 573Q551 569 549 563T544 549Q538 534 531 521T510 507ZM409 507Q401 507 395 519T388 538Q388 545 393 552T406 563Q410 567 422 574T447
587T465 593H466Q468 593 468 592Q468 591 467 590Q466 589 464 587T459 580Q458 578 456 576T452 573Q450 569 448 563T443 549Q437 534 430 521T409 507Z" />
<glyph unicode="&#xd7;" glyph-name="multiply" horiz-adv-x="285" d="M27 63Q17 63 17 73Q17 79 25 90Q38 107 50 121T72 145Q93 166 93 169Q93 175 85 193T66 228T51 245Q43 245 37 236T19 224L18 225H11Q17 231 23 237T33 250L37 256Q42 266 50 277T71 288Q86
288 92 273T102 240Q104 232 105 224T109 208Q113 196 120 195Q124 200 135 212T161 238T186 263T202 278Q209 283 217 287T232 297Q240 296 254 291T269 278V277Q269 270 265 269T255 267Q248 266 239 260T224 248L216 245L208 234Q198 230 184 219T164 198Q160
195 155 191T144 185Q143 183 142 181T140 176V173Q136 174 134 174Q128 174 128 169Q129 161 143 142T176 106T206 84Q213 82 215 80T217 75Q217 69 202 72Q173 79 155 90T121 124Q118 129 115 133T109 142Q104 138 91 126T75 110H73Q73 108 74 105Q68 101 62
95L56 90Q54 88 54 87Q53 85 51 81T46 74L37 69Q33 63 27 63Z" />
<glyph unicode="&#xd8;" glyph-name="Oslash" horiz-adv-x="536" d="M181 -103Q174 -103 171 -92T168 -73Q169 -61 173 -47T184 -17Q160 -11 137 1T98 30Q86 43 80 51T72 72Q48 87 32 110T7 159T-4 201Q-5 213 -5 224T-5 247V248Q-8 251 -3 251Q-1 258 3 270T12
286V287Q10 291 10 295Q10 308 24 327T62 366T113 406T167 437Q183 447 205 451T251 457T293 463Q298 464 303 465T312 467Q346 467 384 461T459 440Q479 468 483 468Q489 468 501 464T513 449Q513 444 512 440T508 432Q504 426 501 421Q541 399 568 367T599 290Q600
279 601 272T602 256Q602 242 598 223Q596 216 589 200T580 176Q576 167 571 158T559 141Q529 96 481 63T379 10Q346 -2 306 -12T229 -23Q219 -23 208 -22Q201 -36 196 -48T190 -71Q190 -79 192 -83L194 -85Q196 -87 196 -89Q196 -94 191 -98T181 -103ZM36 178Q37
173 42 156T56 123T72 104Q76 156 100 202T161 286T242 352Q255 360 274 368T310 377Q314 379 318 379T327 380Q333 380 347 376T377 364T399 348Q413 371 426 391T452 429Q428 438 402 442T348 447Q341 447 334 446T319 444Q304 443 289 440T260 432Q222 422 183
400T110 347T57 278T41 202Q38 197 37 191T36 178ZM255 58Q249 48 240 34T222 4H235V5Q249 6 263 9T290 16Q296 18 306 22T327 31Q338 36 348 40T365 48Q383 56 399 68T431 92Q480 130 513 181T547 293Q547 332 532 360T491 407Q475 384 459 362T427 317Q384 253
341 189T255 58ZM115 75Q120 69 138 64T178 54T218 48Q224 58 229 67T239 84Q255 112 271 139T303 194Q307 201 320 223T353 275T393 339Q377 347 365 347Q352 347 340 342T317 330Q304 323 290 317T262 302Q240 287 216 263T171 209T135 152T114 104Q112 96 112
87Q112 79 115 75ZM122 32Q128 16 151 11T195 4Q199 12 203 20T212 36Q187 36 163 42T114 56Q116 50 118 44T122 32Z" />
<glyph unicode="&#xd9;" glyph-name="Ugrave" horiz-adv-x="634" d="M270 -17Q249 -17 229 -6T195 22T179 57Q177 86 187 117T214 177T245 231Q248 238 254 251T267 277Q273 289 280 299T295 313L292 316Q292 318 294 320Q296 322 298 325T302 333Q316 354 329
374T356 417Q366 433 373 447T384 473Q387 482 387 487Q387 495 375 495Q366 495 357 493T340 487Q262 463 197 418T72 316Q52 296 30 268T8 207Q8 196 10 193T17 184Q19 183 22 174H20V171Q1 182 -10 206T-21 243Q-21 274 0 306T57 370T131 427T208 474T272 505Q283
510 294 515T319 522Q322 523 325 523T333 523Q334 524 341 526L349 528Q363 528 384 522T421 503T438 467Q438 447 426 423T396 376T367 339Q361 332 355 326T344 311Q337 298 329 284T313 257Q309 249 303 242T291 226Q287 219 284 212T276 197Q258 160 250 126T242
49Q242 26 249 17T266 8Q283 8 302 23T331 46Q365 75 393 110T452 178Q478 208 504 238T555 298Q566 311 576 323T596 348Q600 352 606 352T609 346Q605 339 589 317T551 264T505 204T465 150T440 118Q433 109 426 99T410 82L394 70Q389 66 385 61T376 50Q367 40
358 30T337 11Q324 1 307 -8T270 -17ZM587 -13Q563 -13 544 2T522 43L526 45Q519 51 517 59T514 74Q512 100 522 138T550 219T586 298T617 360Q620 366 624 378T635 401T646 415L663 421Q672 418 683 412T696 397Q696 391 690 373T674 337T658 318L654 315Q653
320 651 321Q650 313 647 307T641 295Q640 293 640 292T639 286Q633 288 632 288L630 286Q630 269 619 251T599 217Q583 184 575 148T570 74Q567 71 567 68T566 59Q567 50 574 33T589 10Q598 5 611 5L613 4H618Q614 -3 603 -8T587 -13ZM627 525Q621 525 610 531T586
543Q575 549 562 556T546 563Q542 567 536 567L530 570Q511 579 504 583T497 592Q497 599 505 607T521 615Q530 615 540 606Q550 598 569 584T604 560Q610 555 614 552T623 546Q635 539 635 532Q635 525 627 525Z" />
<glyph unicode="&#xda;" glyph-name="Uacute" horiz-adv-x="634" d="M270 -17Q249 -17 229 -6T195 22T179 57Q177 86 187 117T214 177T245 231Q248 238 254 251T267 277Q273 289 280 299T295 313L292 316Q292 318 294 320Q296 322 298 325T302 333Q316 354 329
374T356 417Q366 433 373 447T384 473Q387 482 387 487Q387 495 375 495Q366 495 357 493T340 487Q262 463 197 418T72 316Q52 296 30 268T8 207Q8 196 10 193T17 184Q19 183 22 174H20V171Q1 182 -10 206T-21 243Q-21 274 0 306T57 370T131 427T208 474T272 505Q283
510 294 515T319 522Q322 523 325 523T333 523Q334 524 341 526L349 528Q363 528 384 522T421 503T438 467Q438 447 426 423T396 376T367 339Q361 332 355 326T344 311Q337 298 329 284T313 257Q309 249 303 242T291 226Q287 219 284 212T276 197Q258 160 250 126T242
49Q242 26 249 17T266 8Q283 8 302 23T331 46Q365 75 393 110T452 178Q478 208 504 238T555 298Q566 311 576 323T596 348Q600 352 606 352T609 346Q605 339 589 317T551 264T505 204T465 150T440 118Q433 109 426 99T410 82L394 70Q389 66 385 61T376 50Q367 40
358 30T337 11Q324 1 307 -8T270 -17ZM587 -13Q563 -13 544 2T522 43L526 45Q519 51 517 59T514 74Q512 100 522 138T550 219T586 298T617 360Q620 366 624 378T635 401T646 415L663 421Q672 418 683 412T696 397Q696 391 690 373T674 337T658 318L654 315Q653
320 651 321Q650 313 647 307T641 295Q640 293 640 292T639 286Q633 288 632 288L630 286Q630 269 619 251T599 217Q583 184 575 148T570 74Q567 71 567 68T566 59Q567 50 574 33T589 10Q598 5 611 5L613 4H618Q614 -3 603 -8T587 -13ZM526 525Q518 525 518 532Q518
539 530 546Q534 548 538 551T549 560Q564 570 583 584T613 606Q624 615 632 615Q640 615 648 607T656 592Q656 588 649 584T623 570L617 567Q611 567 607 563Q606 563 592 556T567 543Q555 537 544 531T526 525Z" />
<glyph unicode="&#xdb;" glyph-name="Ucircumflex" horiz-adv-x="634" d="M270 -17Q249 -17 229 -6T195 22T179 57Q177 86 187 117T214 177T245 231Q248 238 254 251T267 277Q273 289 280 299T295 313L292 316Q292 318 294 320Q296 322 298 325T302 333Q316 354
329 374T356 417Q366 433 373 447T384 473Q387 482 387 487Q387 495 375 495Q366 495 357 493T340 487Q262 463 197 418T72 316Q52 296 30 268T8 207Q8 196 10 193T17 184Q19 183 22 174H20V171Q1 182 -10 206T-21 243Q-21 274 0 306T57 370T131 427T208 474T272
505Q283 510 294 515T319 522Q322 523 325 523T333 523Q334 524 341 526L349 528Q363 528 384 522T421 503T438 467Q438 447 426 423T396 376T367 339Q361 332 355 326T344 311Q337 298 329 284T313 257Q309 249 303 242T291 226Q287 219 284 212T276 197Q258 160
250 126T242 49Q242 26 249 17T266 8Q283 8 302 23T331 46Q365 75 393 110T452 178Q478 208 504 238T555 298Q566 311 576 323T596 348Q600 352 606 352T609 346Q605 339 589 317T551 264T505 204T465 150T440 118Q433 109 426 99T410 82L394 70Q389 66 385 61T376
50Q367 40 358 30T337 11Q324 1 307 -8T270 -17ZM587 -13Q563 -13 544 2T522 43L526 45Q519 51 517 59T514 74Q512 100 522 138T550 219T586 298T617 360Q620 366 624 378T635 401T646 415L663 421Q672 418 683 412T696 397Q696 391 690 373T674 337T658 318L654
315Q653 320 651 321Q650 313 647 307T641 295Q640 293 640 292T639 286Q633 288 632 288L630 286Q630 269 619 251T599 217Q583 184 575 148T570 74Q567 71 567 68T566 59Q567 50 574 33T589 10Q598 5 611 5L613 4H618Q614 -3 603 -8T587 -13ZM674 531Q665 532
650 544T621 572T598 599Q593 595 577 585T541 563T506 543T487 535Q486 535 486 538T485 544Q486 549 503 564T544 596T587 626T612 640L614 637Q632 609 647 590T678 547Q681 544 679 538Q679 531 674 531Z" />
<glyph unicode="&#xdc;" glyph-name="Udieresis" horiz-adv-x="634" d="M270 -17Q249 -17 229 -6T195 22T179 57Q177 86 187 117T214 177T245 231Q248 238 254 251T267 277Q273 289 280 299T295 313L292 316Q292 318 294 320Q296 322 298 325T302 333Q316 354
329 374T356 417Q366 433 373 447T384 473Q387 482 387 487Q387 495 375 495Q366 495 357 493T340 487Q262 463 197 418T72 316Q52 296 30 268T8 207Q8 196 10 193T17 184Q19 183 22 174H20V171Q1 182 -10 206T-21 243Q-21 274 0 306T57 370T131 427T208 474T272
505Q283 510 294 515T319 522Q322 523 325 523T333 523Q334 524 341 526L349 528Q363 528 384 522T421 503T438 467Q438 447 426 423T396 376T367 339Q361 332 355 326T344 311Q337 298 329 284T313 257Q309 249 303 242T291 226Q287 219 284 212T276 197Q258 160
250 126T242 49Q242 26 249 17T266 8Q283 8 302 23T331 46Q365 75 393 110T452 178Q478 208 504 238T555 298Q566 311 576 323T596 348Q600 352 606 352T609 346Q605 339 589 317T551 264T505 204T465 150T440 118Q433 109 426 99T410 82L394 70Q389 66 385 61T376
50Q367 40 358 30T337 11Q324 1 307 -8T270 -17ZM587 -13Q563 -13 544 2T522 43L526 45Q519 51 517 59T514 74Q512 100 522 138T550 219T586 298T617 360Q620 366 624 378T635 401T646 415L663 421Q672 418 683 412T696 397Q696 391 690 373T674 337T658 318L654
315Q653 320 651 321Q650 313 647 307T641 295Q640 293 640 292T639 286Q633 288 632 288L630 286Q630 269 619 251T599 217Q583 184 575 148T570 74Q567 71 567 68T566 59Q567 50 574 33T589 10Q598 5 611 5L613 4H618Q614 -3 603 -8T587 -13ZM627 533Q619 533
613 545T606 564Q606 571 611 578T624 589Q628 593 640 600T665 613T683 619H684Q686 619 686 618Q686 617 685 616Q684 615 682 613T677 606Q676 604 674 602T670 599Q668 595 666 589T661 575Q655 560 648 547T627 533ZM526 533Q518 533 512 545T505 564Q505
571 510 578T523 589Q527 593 539 600T564 613T582 619H583Q585 619 585 618Q585 617 584 616Q583 615 581 613T576 606Q575 604 573 602T569 599Q567 595 565 589T560 575Q554 560 547 547T526 533Z" />
<glyph unicode="&#xdd;" glyph-name="Yacute" horiz-adv-x="665" d="M343 -250Q319 -250 292 -242Q283 -239 264 -233T229 -217T211 -197L213 -194L206 -195V-192Q183 -166 183 -131Q183 -127 183 -124T184 -117Q186 -104 189 -91T190 -64L193 -61H200V-64H202Q201
-69 201 -73T201 -80Q204 -113 220 -148T264 -206T334 -230H339L344 -229Q349 -226 355 -225T367 -223L402 -205Q413 -200 422 -195T436 -186Q457 -169 470 -156T493 -128Q504 -112 513 -95T533 -60Q559 -12 574 45T596 156Q598 172 598 188T600 221Q592 217 589
213Q568 197 552 174Q526 139 493 110T428 51Q406 30 383 9T329 -17Q327 -18 321 -18Q308 -18 290 -10T257 12T241 39Q240 59 252 89T284 153T328 222T372 284T405 329Q414 341 428 363T458 411T483 460T494 498Q494 510 486 513T466 517Q450 517 434 512T402 502Q332
478 278 443T177 363T84 266Q65 244 47 218T29 161Q29 139 39 133T64 126Q69 125 74 125T84 125Q95 125 105 128T127 132Q129 132 136 131T145 125Q146 120 130 117T97 111T75 109Q62 109 41 116T1 135T-21 164H-26Q-25 173 -25 179T-24 190Q-24 195 -24 198T-22
206Q-18 218 -3 241Q1 247 4 255T17 265V272L25 276L27 275V277L28 278L22 283Q27 288 30 292T38 301Q45 312 54 313L53 319L70 329V332Q70 338 77 343L80 345L84 349Q122 387 157 414T232 464T322 507Q364 524 399 528T444 533Q478 533 506 517T534 462Q534 437
523 409T497 361Q483 344 460 311T409 236T357 152T316 74T300 18Q300 11 302 5T312 -1Q320 -1 328 4Q363 21 391 47T444 101Q477 136 514 166T583 234Q591 244 598 254T613 275Q621 286 628 300T651 314Q660 314 669 309T679 293V289Q679 288 674 278T663 257T655
244Q651 238 644 233T634 222Q632 218 632 215T631 207Q631 188 629 165T625 124Q623 103 620 83T612 42Q607 24 604 8T597 -25Q593 -41 588 -57T575 -90Q572 -97 564 -114T551 -138Q546 -147 540 -155T526 -172Q497 -209 448 -229T343 -250ZM625 491Q617 491 617
498Q617 505 629 512Q633 514 637 517T648 526Q663 536 682 550T712 572Q723 581 731 581Q739 581 747 573T755 558Q755 554 748 550T722 536L716 533Q710 533 706 529Q705 529 691 522T666 509Q654 503 643 497T625 491Z" />
<glyph unicode="&#xde;" glyph-name="Thorn" horiz-adv-x="473" d="M89 -115Q64 -115 53 -97T40 -54T37 -12Q37 58 55 130T98 265T145 370Q141 369 138 369T133 368Q125 368 125 372Q125 377 135 384T159 395Q162 401 171 420T192 462T211 502T221 522L222 524Q238
540 269 540Q291 540 291 528Q291 527 282 511T261 472T236 430T218 399H223Q249 399 285 396T356 380T414 345T437 284Q437 245 417 214T363 160T291 121T213 99T144 91Q109 91 109 107Q109 125 138 125Q164 126 190 127T241 132Q273 139 309 156T372 200T398
264Q398 295 377 315T324 348T259 367T201 374Q159 310 128 235T80 89T63 -31Q63 -88 85 -88Q94 -88 100 -83T112 -72Q122 -62 127 -62Q134 -62 134 -67Q134 -72 126 -80Q117 -87 117 -93Q117 -93 126 -102L127 -105Q127 -111 114 -113T89 -115Z" />
<glyph unicode="&#xdf;" glyph-name="germandbls" horiz-adv-x="393" d="M-104 -184Q-133 -184 -152 -167T-172 -122Q-172 -105 -166 -93T-150 -81Q-144 -81 -144 -92Q-143 -105 -142 -124T-134 -157T-108 -171Q-78 -171 -41 -128T27 -17Q37 6 50 38T82 119Q89
135 95 151T109 186Q99 185 88 184T66 183Q60 183 54 190T45 203L47 206L67 207Q80 209 93 210T120 211Q124 221 132 239T144 268Q155 291 171 323T209 385T260 436T323 457Q346 457 360 449T384 426Q388 421 392 418T397 403Q397 399 396 395T395 389Q395 385
396 381T398 371Q398 365 394 358Q392 351 393 344Q393 340 391 336T387 328Q383 312 376 300T353 281Q317 265 295 248T261 219Q259 216 256 212T251 206Q241 197 236 185T231 162Q231 153 237 147T253 136L304 107Q307 107 314 113Q319 116 321 117Q331 122 346
129T377 144T404 153L419 156Q424 158 426 153Q428 153 425 152T418 148Q415 144 393 135Q381 130 378 128L374 123Q372 119 368 117Q359 112 346 103T332 81Q332 77 333 73Q334 70 334 68T335 64Q335 57 333 50T326 34Q319 21 314 16Q310 12 309 12T305 7Q300
1 297 1T289 -4Q284 -9 278 -11T268 -17Q266 -19 261 -21T253 -26Q251 -27 248 -28T237 -34Q216 -51 192 -47Q192 -47 188 -49Q182 -52 177 -52Q176 -52 173 -51T170 -49Q170 -47 175 -44L196 -34Q211 -27 221 -20T247 -3Q252 0 265 12T290 41T302 74Q302 79 301
83T300 87Q295 87 291 80L289 77Q287 76 283 74T276 69Q269 65 265 63T256 56Q252 53 248 49T239 40L219 24Q207 15 197 6T172 -19Q171 -21 168 -27T165 -38Q165 -40 165 -42T167 -47Q168 -50 168 -52T169 -56Q169 -60 167 -60Q157 -59 146 -42Q143 -39 142 -35T139
-28Q138 -26 136 -25T132 -21Q131 -18 131 -14Q171 37 250 78L257 81L267 88Q280 97 283 101V102Q279 104 276 106T264 112Q255 116 245 120T228 132Q215 144 207 155T199 179Q199 201 220 221T262 256Q273 263 296 274T344 293Q353 300 357 317T362 352T363 380Q363
445 337 445Q324 445 311 435T281 405L270 392Q261 382 255 374T242 353Q241 351 238 345T229 326Q225 318 224 314T220 307Q218 303 216 300T211 293Q207 289 205 286T200 278Q198 274 196 267T190 253L182 234Q170 213 158 188T132 136Q127 126 124 120T118 107Q109
90 101 73T85 38Q77 19 68 0T48 -42Q8 -120 -26 -152T-104 -184Z" />
<glyph unicode="&#xe0;" glyph-name="agrave" horiz-adv-x="346" d="M302 -10Q292 -10 279 -6T258 6Q234 28 230 56T224 115Q220 110 214 104T202 92Q199 89 196 85T190 76Q183 69 177 66T166 57Q164 55 158 47Q156 43 152 41T145 34Q138 33 134 28T124 16Q114
12 103 6T80 -1Q66 -1 50 6T20 25T5 53H4V71Q4 87 8 92Q10 95 11 99T13 107L27 127Q30 132 42 145T69 171T89 189Q97 196 113 205T145 223T172 237L176 238Q181 242 192 246T209 252Q215 254 228 254T248 256Q254 256 258 258L279 252Q290 251 305 242T321 219Q323
212 320 208L311 213Q304 224 292 226T266 229Q238 229 206 216T145 181T94 134T61 86Q60 83 60 80T58 75Q55 65 53 56T51 36Q51 29 53 28T61 21L69 18L76 21L84 24Q92 27 97 32Q101 34 104 34T107 36Q114 38 114 41T120 49Q135 63 149 76T177 105Q184 113 194
123T214 143Q217 146 219 149T224 156Q229 164 239 178T262 193Q264 194 268 194Q278 194 284 187T290 171Q290 161 286 153T280 135Q276 112 276 90Q276 83 276 76T277 61Q280 40 298 23L302 22Q316 30 321 38T337 58Q337 58 339 59T342 61Q346 61 346 57V56Q346
52 345 49T343 40Q342 28 332 9T302 -10ZM279 304Q274 304 260 312T213 343Q211 345 210 346T206 348Q202 353 197 354L191 358Q163 378 163 385Q163 391 172 397T188 404Q199 404 209 391Q217 381 230 366T256 338Q261 334 265 330T273 322Q278 318 281 316T285
309Q286 308 285 305T279 304Z" />
<glyph unicode="&#xe1;" glyph-name="aacute" horiz-adv-x="346" d="M302 -10Q292 -10 279 -6T258 6Q234 28 230 56T224 115Q220 110 214 104T202 92Q199 89 196 85T190 76Q183 69 177 66T166 57Q164 55 158 47Q156 43 152 41T145 34Q138 33 134 28T124 16Q114
12 103 6T80 -1Q66 -1 50 6T20 25T5 53H4V71Q4 87 8 92Q10 95 11 99T13 107L27 127Q30 132 42 145T69 171T89 189Q97 196 113 205T145 223T172 237L176 238Q181 242 192 246T209 252Q215 254 228 254T248 256Q254 256 258 258L279 252Q290 251 305 242T321 219Q323
212 320 208L311 213Q304 224 292 226T266 229Q238 229 206 216T145 181T94 134T61 86Q60 83 60 80T58 75Q55 65 53 56T51 36Q51 29 53 28T61 21L69 18L76 21L84 24Q92 27 97 32Q101 34 104 34T107 36Q114 38 114 41T120 49Q135 63 149 76T177 105Q184 113 194
123T214 143Q217 146 219 149T224 156Q229 164 239 178T262 193Q264 194 268 194Q278 194 284 187T290 171Q290 161 286 153T280 135Q276 112 276 90Q276 83 276 76T277 61Q280 40 298 23L302 22Q316 30 321 38T337 58Q337 58 339 59T342 61Q346 61 346 57V56Q346
52 345 49T343 40Q342 28 332 9T302 -10ZM229 304Q225 302 224 305T223 309Q225 314 227 316T235 322Q238 325 243 329T252 338Q265 351 278 366T299 391Q309 404 320 404Q328 404 336 398T345 385Q345 378 317 358L311 354Q307 353 302 348Q301 347 299 346T295
343Q263 321 249 313T229 304Z" />
<glyph unicode="&#xe2;" glyph-name="acircumflex" horiz-adv-x="346" d="M302 -10Q292 -10 279 -6T258 6Q234 28 230 56T224 115Q220 110 214 104T202 92Q199 89 196 85T190 76Q183 69 177 66T166 57Q164 55 158 47Q156 43 152 41T145 34Q138 33 134 28T124 16Q114
12 103 6T80 -1Q66 -1 50 6T20 25T5 53H4V71Q4 87 8 92Q10 95 11 99T13 107L27 127Q30 132 42 145T69 171T89 189Q97 196 113 205T145 223T172 237L176 238Q181 242 192 246T209 252Q215 254 228 254T248 256Q254 256 258 258L279 252Q290 251 305 242T321 219Q323
212 320 208L311 213Q304 224 292 226T266 229Q238 229 206 216T145 181T94 134T61 86Q60 83 60 80T58 75Q55 65 53 56T51 36Q51 29 53 28T61 21L69 18L76 21L84 24Q92 27 97 32Q101 34 104 34T107 36Q114 38 114 41T120 49Q135 63 149 76T177 105Q184 113 194
123T214 143Q217 146 219 149T224 156Q229 164 239 178T262 193Q264 194 268 194Q278 194 284 187T290 171Q290 161 286 153T280 135Q276 112 276 90Q276 83 276 76T277 61Q280 40 298 23L302 22Q316 30 321 38T337 58Q337 58 339 59T342 61Q346 61 346 57V56Q346
52 345 49T343 40Q342 28 332 9T302 -10ZM345 303Q336 304 323 315T298 341T279 367Q274 363 259 354T227 333T195 315T178 307Q177 307 177 310T176 316Q177 321 193 336T230 368T270 398T293 412L295 409Q313 382 323 362T349 319Q352 316 350 310Q350 303 345
303Z" />
<glyph unicode="&#xe3;" glyph-name="atilde" horiz-adv-x="346" d="M302 -10Q292 -10 279 -6T258 6Q234 28 230 56T224 115Q220 110 214 104T202 92Q199 89 196 85T190 76Q183 69 177 66T166 57Q164 55 158 47Q156 43 152 41T145 34Q138 33 134 28T124 16Q114
12 103 6T80 -1Q66 -1 50 6T20 25T5 53H4V71Q4 87 8 92Q10 95 11 99T13 107L27 127Q30 132 42 145T69 171T89 189Q97 196 113 205T145 223T172 237L176 238Q181 242 192 246T209 252Q215 254 228 254T248 256Q254 256 258 258L279 252Q290 251 305 242T321 219Q323
212 320 208L311 213Q304 224 292 226T266 229Q238 229 206 216T145 181T94 134T61 86Q60 83 60 80T58 75Q55 65 53 56T51 36Q51 29 53 28T61 21L69 18L76 21L84 24Q92 27 97 32Q101 34 104 34T107 36Q114 38 114 41T120 49Q135 63 149 76T177 105Q184 113 194
123T214 143Q217 146 219 149T224 156Q229 164 239 178T262 193Q264 194 268 194Q278 194 284 187T290 171Q290 161 286 153T280 135Q276 112 276 90Q276 83 276 76T277 61Q280 40 298 23L302 22Q316 30 321 38T337 58Q337 58 339 59T342 61Q346 61 346 57V56Q346
52 345 49T343 40Q342 28 332 9T302 -10ZM311 312Q300 312 290 316T268 325Q256 331 243 336T213 341Q203 341 194 334T177 315Q176 312 171 312Q164 312 166 320Q167 325 173 338T192 362T222 374Q234 374 244 370T265 361Q277 356 290 351T324 345Q344 345 353
359Q355 363 357 366T362 369Q367 369 367 362Q367 334 353 323T311 312Z" />
<glyph unicode="&#xe4;" glyph-name="adieresis" horiz-adv-x="346" d="M302 -10Q292 -10 279 -6T258 6Q234 28 230 56T224 115Q220 110 214 104T202 92Q199 89 196 85T190 76Q183 69 177 66T166 57Q164 55 158 47Q156 43 152 41T145 34Q138 33 134 28T124 16Q114
12 103 6T80 -1Q66 -1 50 6T20 25T5 53H4V71Q4 87 8 92Q10 95 11 99T13 107L27 127Q30 132 42 145T69 171T89 189Q97 196 113 205T145 223T172 237L176 238Q181 242 192 246T209 252Q215 254 228 254T248 256Q254 256 258 258L279 252Q290 251 305 242T321 219Q323
212 320 208L311 213Q304 224 292 226T266 229Q238 229 206 216T145 181T94 134T61 86Q60 83 60 80T58 75Q55 65 53 56T51 36Q51 29 53 28T61 21L69 18L76 21L84 24Q92 27 97 32Q101 34 104 34T107 36Q114 38 114 41T120 49Q135 63 149 76T177 105Q184 113 194
123T214 143Q217 146 219 149T224 156Q229 164 239 178T262 193Q264 194 268 194Q278 194 284 187T290 171Q290 161 286 153T280 135Q276 112 276 90Q276 83 276 76T277 61Q280 40 298 23L302 22Q316 30 321 38T337 58Q337 58 339 59T342 61Q346 61 346 57V56Q346
52 345 49T343 40Q342 28 332 9T302 -10ZM299 307Q291 307 285 319T278 338Q278 345 283 352T296 363Q300 367 312 374T337 387T355 393H356Q358 393 358 392Q358 391 357 390Q356 389 354 387T349 380Q348 378 346 376T342 373Q340 369 338 363T333 349Q327 334
320 321T299 307ZM198 307Q190 307 184 319T177 338Q177 345 182 352T195 363Q199 367 211 374T236 387T254 393H255Q257 393 257 392Q257 391 256 390Q255 389 253 387T248 380Q247 378 245 376T241 373Q239 369 237 363T232 349Q226 334 219 321T198 307Z" />
<glyph unicode="&#xe5;" glyph-name="aring" horiz-adv-x="346" d="M302 -10Q292 -10 279 -6T258 6Q234 28 230 56T224 115Q220 110 214 104T202 92Q199 89 196 85T190 76Q183 69 177 66T166 57Q164 55 158 47Q156 43 152 41T145 34Q138 33 134 28T124 16Q114
12 103 6T80 -1Q66 -1 50 6T20 25T5 53H4V71Q4 87 8 92Q10 95 11 99T13 107L27 127Q30 132 42 145T69 171T89 189Q97 196 113 205T145 223T172 237L176 238Q181 242 192 246T209 252Q215 254 228 254T248 256Q254 256 258 258L279 252Q290 251 305 242T321 219Q323
212 320 208L311 213Q304 224 292 226T266 229Q238 229 206 216T145 181T94 134T61 86Q60 83 60 80T58 75Q55 65 53 56T51 36Q51 29 53 28T61 21L69 18L76 21L84 24Q92 27 97 32Q101 34 104 34T107 36Q114 38 114 41T120 49Q135 63 149 76T177 105Q184 113 194
123T214 143Q217 146 219 149T224 156Q229 164 239 178T262 193Q264 194 268 194Q278 194 284 187T290 171Q290 161 286 153T280 135Q276 112 276 90Q276 83 276 76T277 61Q280 40 298 23L302 22Q316 30 321 38T337 58Q337 58 339 59T342 61Q346 61 346 57V56Q346
52 345 49T343 40Q342 28 332 9T302 -10ZM255 304Q237 304 226 313T215 335Q215 373 241 397T305 421Q323 421 334 410T346 378Q346 344 320 324T255 304ZM271 325Q297 325 309 337T321 367Q321 401 295 401Q273 401 261 385T251 342Q251 325 271 325Z" />
<glyph unicode="&#xe6;" glyph-name="ae" horiz-adv-x="486" d="M326 -7Q308 -7 287 0T251 21T236 55V56Q230 70 228 84T224 115Q220 111 212 103T202 92Q199 91 194 86T190 76Q183 75 177 69T166 57Q162 53 161 53Q159 49 154 44T145 34Q138 33 134 28T124 16Q114
12 103 6T80 -1Q66 -1 50 6T20 25T5 53H4V71Q4 87 8 92L7 94Q10 96 17 109T27 127Q30 132 42 146T69 173T89 189Q97 200 116 209T176 238Q181 242 192 246T209 252Q215 254 228 254T248 256Q254 256 258 258L279 252Q289 251 301 244T319 226Q327 231 335 235T354
243Q358 244 361 244T369 245Q377 245 390 240T413 226T425 208Q425 204 425 201T426 194Q426 188 423 180L417 177Q415 173 413 171L407 164Q399 156 401 153Q400 152 400 152T399 152V151H398V150L393 149Q389 146 386 143T380 135Q365 119 341 108T297 87Q294
86 289 85T281 80Q277 75 276 67T275 52Q277 40 281 29T301 18H310Q315 18 320 19T332 21L339 25L340 24Q346 26 361 33T390 47T407 58L408 59L409 61L412 64Q430 77 447 86T480 112L482 110H485Q484 103 480 100T471 91L468 86Q456 67 432 48T387 16Q380 12 373
7T357 -2Q340 -7 326 -7ZM61 17L62 18L64 19L69 18L76 21L84 24Q92 27 97 32Q97 32 97 32T98 33Q105 35 110 40T120 49Q135 63 149 76T177 105Q184 113 194 125T214 143L215 146Q225 150 232 161T246 182T262 193Q264 194 268 194Q272 194 275 193T281 190Q291
204 307 217Q300 225 289 227T266 229Q238 229 206 216T145 181T94 134T61 86Q60 83 60 80T58 75Q55 65 53 56T51 36Q51 29 53 26T61 17ZM294 117Q300 117 302 117T310 119Q330 130 347 145T381 175Q383 182 391 187L395 190Q397 192 398 194T400 198Q401 199 399
205L398 210V212Q395 213 390 213Q383 210 376 204T361 197Q357 191 344 181Q337 175 331 170T322 162Q315 155 305 141T294 117Z" />
</font>
</defs>
</svg>
